M48
; DRILL file {KiCad (5.1.5-0-10_14)} date Wednesday, November 04, 2020 at 07:04:47 AM
; FORMAT={-:-/ absolute / inch / decimal}
; #@! TF.CreationDate,2020-11-04T07:04:47-07:00
; #@! TF.GenerationSoftware,Kicad,Pcbnew,(5.1.5-0-10_14)
; #@! TF.FileFunction,Plated,1,2,PTH
FMAT,2
INCH
T1C0.0130
T2C0.0197
T3C0.0335
%
G90
G05
T1
X3.925Y-1.145
X3.985Y-1.21
X4.05Y-1.915
X4.055Y-1.7068
X4.058Y-1.4902
X4.1632Y-1.7344
X4.237Y-1.3361
X4.256Y-1.475
X4.3054Y-1.7386
X4.3755Y-1.7462
X4.3985Y-1.3824
X4.43Y-1.609
X4.48Y-1.275
X4.5142Y-1.6915
X4.595Y-1.145
X4.6401Y-1.2623
X4.65Y-1.4789
X4.7Y-1.44
X4.725Y-1.755
X4.7746Y-1.7772
X4.78Y-1.44
X4.9Y-1.24
X4.9Y-1.84
X5.0799Y-1.2392
X5.1093Y-1.2553
X5.165Y-1.13
X5.1725Y-1.8175
X5.195Y-1.63
X5.2383Y-1.3599
X5.2662Y-1.3208
X5.2947Y-1.8031
X5.3157Y-1.5655
X5.35Y-1.3474
X5.35Y-1.825
X5.3891Y-1.2385
X5.42Y-1.825
X5.51Y-1.44
X5.5906Y-1.2194
X5.665Y-1.92
T2
X5.1224Y-1.3691
X5.1224Y-1.4191
X5.1224Y-1.4691
X5.1224Y-1.5191
X5.1224Y-1.5691
X5.1224Y-1.6191
X5.1224Y-1.6691
X5.2224Y-1.6791
X5.2724Y-1.6791
X5.3224Y-1.6791
X5.3724Y-1.6791
X5.4224Y-1.6791
X5.4724Y-1.6791
X5.5224Y-1.6791
X5.5724Y-1.6791
T3
X4.82Y-1.38
X4.82Y-1.48
X4.82Y-1.58
X4.82Y-1.68
X4.9Y-1.38
X4.9Y-1.48
X4.9Y-1.58
X4.9Y-1.68
X3.72Y-1.4
X3.72Y-1.65
T0
M30
