G04 #@! TF.GenerationSoftware,KiCad,Pcbnew,(5.1.5-0-10_14)*
G04 #@! TF.CreationDate,2020-11-04T07:04:41-07:00*
G04 #@! TF.ProjectId,NumDisciplineBLE,4e756d44-6973-4636-9970-6c696e65424c,rev?*
G04 #@! TF.SameCoordinates,Original*
G04 #@! TF.FileFunction,Copper,L1,Top*
G04 #@! TF.FilePolarity,Positive*
%FSLAX46Y46*%
G04 Gerber Fmt 4.6, Leading zero omitted, Abs format (unit mm)*
G04 Created by KiCad (PCBNEW (5.1.5-0-10_14)) date 2020-11-04 07:04:41*
%MOMM*%
%LPD*%
G04 APERTURE LIST*
%ADD10C,1.270000*%
%ADD11R,1.270000X1.270000*%
%ADD12R,0.600000X0.600000*%
%ADD13C,0.100000*%
%ADD14R,1.060000X0.650000*%
%ADD15R,1.200000X1.000000*%
%ADD16O,1.270000X1.270000*%
%ADD17R,1.000000X0.650000*%
%ADD18R,0.650000X1.000000*%
%ADD19R,0.900000X0.800000*%
%ADD20C,0.600000*%
%ADD21C,0.300000*%
%ADD22C,0.200000*%
G04 APERTURE END LIST*
D10*
X94488000Y-35560000D03*
D11*
X94488000Y-41910000D03*
D12*
X98595000Y-38735000D03*
X100795000Y-38735000D03*
G04 #@! TA.AperFunction,SMDPad,CuDef*
D13*
G36*
X109243691Y-37892053D02*
G01*
X109264926Y-37895203D01*
X109285750Y-37900419D01*
X109305962Y-37907651D01*
X109325368Y-37916830D01*
X109343781Y-37927866D01*
X109361024Y-37940654D01*
X109376930Y-37955070D01*
X109391346Y-37970976D01*
X109404134Y-37988219D01*
X109415170Y-38006632D01*
X109424349Y-38026038D01*
X109431581Y-38046250D01*
X109436797Y-38067074D01*
X109439947Y-38088309D01*
X109441000Y-38109750D01*
X109441000Y-38547250D01*
X109439947Y-38568691D01*
X109436797Y-38589926D01*
X109431581Y-38610750D01*
X109424349Y-38630962D01*
X109415170Y-38650368D01*
X109404134Y-38668781D01*
X109391346Y-38686024D01*
X109376930Y-38701930D01*
X109361024Y-38716346D01*
X109343781Y-38729134D01*
X109325368Y-38740170D01*
X109305962Y-38749349D01*
X109285750Y-38756581D01*
X109264926Y-38761797D01*
X109243691Y-38764947D01*
X109222250Y-38766000D01*
X108709750Y-38766000D01*
X108688309Y-38764947D01*
X108667074Y-38761797D01*
X108646250Y-38756581D01*
X108626038Y-38749349D01*
X108606632Y-38740170D01*
X108588219Y-38729134D01*
X108570976Y-38716346D01*
X108555070Y-38701930D01*
X108540654Y-38686024D01*
X108527866Y-38668781D01*
X108516830Y-38650368D01*
X108507651Y-38630962D01*
X108500419Y-38610750D01*
X108495203Y-38589926D01*
X108492053Y-38568691D01*
X108491000Y-38547250D01*
X108491000Y-38109750D01*
X108492053Y-38088309D01*
X108495203Y-38067074D01*
X108500419Y-38046250D01*
X108507651Y-38026038D01*
X108516830Y-38006632D01*
X108527866Y-37988219D01*
X108540654Y-37970976D01*
X108555070Y-37955070D01*
X108570976Y-37940654D01*
X108588219Y-37927866D01*
X108606632Y-37916830D01*
X108626038Y-37907651D01*
X108646250Y-37900419D01*
X108667074Y-37895203D01*
X108688309Y-37892053D01*
X108709750Y-37891000D01*
X109222250Y-37891000D01*
X109243691Y-37892053D01*
G37*
G04 #@! TD.AperFunction*
G04 #@! TA.AperFunction,SMDPad,CuDef*
G36*
X109243691Y-39467053D02*
G01*
X109264926Y-39470203D01*
X109285750Y-39475419D01*
X109305962Y-39482651D01*
X109325368Y-39491830D01*
X109343781Y-39502866D01*
X109361024Y-39515654D01*
X109376930Y-39530070D01*
X109391346Y-39545976D01*
X109404134Y-39563219D01*
X109415170Y-39581632D01*
X109424349Y-39601038D01*
X109431581Y-39621250D01*
X109436797Y-39642074D01*
X109439947Y-39663309D01*
X109441000Y-39684750D01*
X109441000Y-40122250D01*
X109439947Y-40143691D01*
X109436797Y-40164926D01*
X109431581Y-40185750D01*
X109424349Y-40205962D01*
X109415170Y-40225368D01*
X109404134Y-40243781D01*
X109391346Y-40261024D01*
X109376930Y-40276930D01*
X109361024Y-40291346D01*
X109343781Y-40304134D01*
X109325368Y-40315170D01*
X109305962Y-40324349D01*
X109285750Y-40331581D01*
X109264926Y-40336797D01*
X109243691Y-40339947D01*
X109222250Y-40341000D01*
X108709750Y-40341000D01*
X108688309Y-40339947D01*
X108667074Y-40336797D01*
X108646250Y-40331581D01*
X108626038Y-40324349D01*
X108606632Y-40315170D01*
X108588219Y-40304134D01*
X108570976Y-40291346D01*
X108555070Y-40276930D01*
X108540654Y-40261024D01*
X108527866Y-40243781D01*
X108516830Y-40225368D01*
X108507651Y-40205962D01*
X108500419Y-40185750D01*
X108495203Y-40164926D01*
X108492053Y-40143691D01*
X108491000Y-40122250D01*
X108491000Y-39684750D01*
X108492053Y-39663309D01*
X108495203Y-39642074D01*
X108500419Y-39621250D01*
X108507651Y-39601038D01*
X108516830Y-39581632D01*
X108527866Y-39563219D01*
X108540654Y-39545976D01*
X108555070Y-39530070D01*
X108570976Y-39515654D01*
X108588219Y-39502866D01*
X108606632Y-39491830D01*
X108626038Y-39482651D01*
X108646250Y-39475419D01*
X108667074Y-39470203D01*
X108688309Y-39467053D01*
X108709750Y-39466000D01*
X109222250Y-39466000D01*
X109243691Y-39467053D01*
G37*
G04 #@! TD.AperFunction*
D14*
X107018000Y-36764000D03*
X107018000Y-35814000D03*
X107018000Y-34864000D03*
X104818000Y-34864000D03*
X104818000Y-36764000D03*
D15*
X126746000Y-35560000D03*
X126746000Y-33960000D03*
G04 #@! TA.AperFunction,SMDPad,CuDef*
D13*
G36*
X111021691Y-37866553D02*
G01*
X111042926Y-37869703D01*
X111063750Y-37874919D01*
X111083962Y-37882151D01*
X111103368Y-37891330D01*
X111121781Y-37902366D01*
X111139024Y-37915154D01*
X111154930Y-37929570D01*
X111169346Y-37945476D01*
X111182134Y-37962719D01*
X111193170Y-37981132D01*
X111202349Y-38000538D01*
X111209581Y-38020750D01*
X111214797Y-38041574D01*
X111217947Y-38062809D01*
X111219000Y-38084250D01*
X111219000Y-38521750D01*
X111217947Y-38543191D01*
X111214797Y-38564426D01*
X111209581Y-38585250D01*
X111202349Y-38605462D01*
X111193170Y-38624868D01*
X111182134Y-38643281D01*
X111169346Y-38660524D01*
X111154930Y-38676430D01*
X111139024Y-38690846D01*
X111121781Y-38703634D01*
X111103368Y-38714670D01*
X111083962Y-38723849D01*
X111063750Y-38731081D01*
X111042926Y-38736297D01*
X111021691Y-38739447D01*
X111000250Y-38740500D01*
X110487750Y-38740500D01*
X110466309Y-38739447D01*
X110445074Y-38736297D01*
X110424250Y-38731081D01*
X110404038Y-38723849D01*
X110384632Y-38714670D01*
X110366219Y-38703634D01*
X110348976Y-38690846D01*
X110333070Y-38676430D01*
X110318654Y-38660524D01*
X110305866Y-38643281D01*
X110294830Y-38624868D01*
X110285651Y-38605462D01*
X110278419Y-38585250D01*
X110273203Y-38564426D01*
X110270053Y-38543191D01*
X110269000Y-38521750D01*
X110269000Y-38084250D01*
X110270053Y-38062809D01*
X110273203Y-38041574D01*
X110278419Y-38020750D01*
X110285651Y-38000538D01*
X110294830Y-37981132D01*
X110305866Y-37962719D01*
X110318654Y-37945476D01*
X110333070Y-37929570D01*
X110348976Y-37915154D01*
X110366219Y-37902366D01*
X110384632Y-37891330D01*
X110404038Y-37882151D01*
X110424250Y-37874919D01*
X110445074Y-37869703D01*
X110466309Y-37866553D01*
X110487750Y-37865500D01*
X111000250Y-37865500D01*
X111021691Y-37866553D01*
G37*
G04 #@! TD.AperFunction*
G04 #@! TA.AperFunction,SMDPad,CuDef*
G36*
X111021691Y-39441553D02*
G01*
X111042926Y-39444703D01*
X111063750Y-39449919D01*
X111083962Y-39457151D01*
X111103368Y-39466330D01*
X111121781Y-39477366D01*
X111139024Y-39490154D01*
X111154930Y-39504570D01*
X111169346Y-39520476D01*
X111182134Y-39537719D01*
X111193170Y-39556132D01*
X111202349Y-39575538D01*
X111209581Y-39595750D01*
X111214797Y-39616574D01*
X111217947Y-39637809D01*
X111219000Y-39659250D01*
X111219000Y-40096750D01*
X111217947Y-40118191D01*
X111214797Y-40139426D01*
X111209581Y-40160250D01*
X111202349Y-40180462D01*
X111193170Y-40199868D01*
X111182134Y-40218281D01*
X111169346Y-40235524D01*
X111154930Y-40251430D01*
X111139024Y-40265846D01*
X111121781Y-40278634D01*
X111103368Y-40289670D01*
X111083962Y-40298849D01*
X111063750Y-40306081D01*
X111042926Y-40311297D01*
X111021691Y-40314447D01*
X111000250Y-40315500D01*
X110487750Y-40315500D01*
X110466309Y-40314447D01*
X110445074Y-40311297D01*
X110424250Y-40306081D01*
X110404038Y-40298849D01*
X110384632Y-40289670D01*
X110366219Y-40278634D01*
X110348976Y-40265846D01*
X110333070Y-40251430D01*
X110318654Y-40235524D01*
X110305866Y-40218281D01*
X110294830Y-40199868D01*
X110285651Y-40180462D01*
X110278419Y-40160250D01*
X110273203Y-40139426D01*
X110270053Y-40118191D01*
X110269000Y-40096750D01*
X110269000Y-39659250D01*
X110270053Y-39637809D01*
X110273203Y-39616574D01*
X110278419Y-39595750D01*
X110285651Y-39575538D01*
X110294830Y-39556132D01*
X110305866Y-39537719D01*
X110318654Y-39520476D01*
X110333070Y-39504570D01*
X110348976Y-39490154D01*
X110366219Y-39477366D01*
X110384632Y-39466330D01*
X110404038Y-39457151D01*
X110424250Y-39449919D01*
X110445074Y-39444703D01*
X110466309Y-39441553D01*
X110487750Y-39440500D01*
X111000250Y-39440500D01*
X111021691Y-39441553D01*
G37*
G04 #@! TD.AperFunction*
G04 #@! TA.AperFunction,SMDPad,CuDef*
G36*
X100875191Y-40420053D02*
G01*
X100896426Y-40423203D01*
X100917250Y-40428419D01*
X100937462Y-40435651D01*
X100956868Y-40444830D01*
X100975281Y-40455866D01*
X100992524Y-40468654D01*
X101008430Y-40483070D01*
X101022846Y-40498976D01*
X101035634Y-40516219D01*
X101046670Y-40534632D01*
X101055849Y-40554038D01*
X101063081Y-40574250D01*
X101068297Y-40595074D01*
X101071447Y-40616309D01*
X101072500Y-40637750D01*
X101072500Y-41150250D01*
X101071447Y-41171691D01*
X101068297Y-41192926D01*
X101063081Y-41213750D01*
X101055849Y-41233962D01*
X101046670Y-41253368D01*
X101035634Y-41271781D01*
X101022846Y-41289024D01*
X101008430Y-41304930D01*
X100992524Y-41319346D01*
X100975281Y-41332134D01*
X100956868Y-41343170D01*
X100937462Y-41352349D01*
X100917250Y-41359581D01*
X100896426Y-41364797D01*
X100875191Y-41367947D01*
X100853750Y-41369000D01*
X100416250Y-41369000D01*
X100394809Y-41367947D01*
X100373574Y-41364797D01*
X100352750Y-41359581D01*
X100332538Y-41352349D01*
X100313132Y-41343170D01*
X100294719Y-41332134D01*
X100277476Y-41319346D01*
X100261570Y-41304930D01*
X100247154Y-41289024D01*
X100234366Y-41271781D01*
X100223330Y-41253368D01*
X100214151Y-41233962D01*
X100206919Y-41213750D01*
X100201703Y-41192926D01*
X100198553Y-41171691D01*
X100197500Y-41150250D01*
X100197500Y-40637750D01*
X100198553Y-40616309D01*
X100201703Y-40595074D01*
X100206919Y-40574250D01*
X100214151Y-40554038D01*
X100223330Y-40534632D01*
X100234366Y-40516219D01*
X100247154Y-40498976D01*
X100261570Y-40483070D01*
X100277476Y-40468654D01*
X100294719Y-40455866D01*
X100313132Y-40444830D01*
X100332538Y-40435651D01*
X100352750Y-40428419D01*
X100373574Y-40423203D01*
X100394809Y-40420053D01*
X100416250Y-40419000D01*
X100853750Y-40419000D01*
X100875191Y-40420053D01*
G37*
G04 #@! TD.AperFunction*
G04 #@! TA.AperFunction,SMDPad,CuDef*
G36*
X99300191Y-40420053D02*
G01*
X99321426Y-40423203D01*
X99342250Y-40428419D01*
X99362462Y-40435651D01*
X99381868Y-40444830D01*
X99400281Y-40455866D01*
X99417524Y-40468654D01*
X99433430Y-40483070D01*
X99447846Y-40498976D01*
X99460634Y-40516219D01*
X99471670Y-40534632D01*
X99480849Y-40554038D01*
X99488081Y-40574250D01*
X99493297Y-40595074D01*
X99496447Y-40616309D01*
X99497500Y-40637750D01*
X99497500Y-41150250D01*
X99496447Y-41171691D01*
X99493297Y-41192926D01*
X99488081Y-41213750D01*
X99480849Y-41233962D01*
X99471670Y-41253368D01*
X99460634Y-41271781D01*
X99447846Y-41289024D01*
X99433430Y-41304930D01*
X99417524Y-41319346D01*
X99400281Y-41332134D01*
X99381868Y-41343170D01*
X99362462Y-41352349D01*
X99342250Y-41359581D01*
X99321426Y-41364797D01*
X99300191Y-41367947D01*
X99278750Y-41369000D01*
X98841250Y-41369000D01*
X98819809Y-41367947D01*
X98798574Y-41364797D01*
X98777750Y-41359581D01*
X98757538Y-41352349D01*
X98738132Y-41343170D01*
X98719719Y-41332134D01*
X98702476Y-41319346D01*
X98686570Y-41304930D01*
X98672154Y-41289024D01*
X98659366Y-41271781D01*
X98648330Y-41253368D01*
X98639151Y-41233962D01*
X98631919Y-41213750D01*
X98626703Y-41192926D01*
X98623553Y-41171691D01*
X98622500Y-41150250D01*
X98622500Y-40637750D01*
X98623553Y-40616309D01*
X98626703Y-40595074D01*
X98631919Y-40574250D01*
X98639151Y-40554038D01*
X98648330Y-40534632D01*
X98659366Y-40516219D01*
X98672154Y-40498976D01*
X98686570Y-40483070D01*
X98702476Y-40468654D01*
X98719719Y-40455866D01*
X98738132Y-40444830D01*
X98757538Y-40435651D01*
X98777750Y-40428419D01*
X98798574Y-40423203D01*
X98819809Y-40420053D01*
X98841250Y-40419000D01*
X99278750Y-40419000D01*
X99300191Y-40420053D01*
G37*
G04 #@! TD.AperFunction*
D14*
X102700000Y-34864000D03*
X102700000Y-36764000D03*
X100500000Y-36764000D03*
X100500000Y-35814000D03*
X100500000Y-34864000D03*
D16*
X124460000Y-42672000D03*
X124460000Y-40132000D03*
D11*
X124460000Y-37592000D03*
D16*
X124460000Y-35052000D03*
D11*
X122428000Y-35052000D03*
D16*
X122428000Y-37592000D03*
X122428000Y-40132000D03*
X122428000Y-42672000D03*
D17*
X130108000Y-38585000D03*
X130108000Y-42395000D03*
X130108000Y-41125000D03*
X130108000Y-37315000D03*
X130108000Y-39855000D03*
X130108000Y-34775000D03*
X130108000Y-36045000D03*
D18*
X141538000Y-42649000D03*
X140268000Y-42649000D03*
X138998000Y-42649000D03*
X137728000Y-42649000D03*
X136458000Y-42649000D03*
X135188000Y-42649000D03*
X133918000Y-42649000D03*
D17*
X128397000Y-39218000D03*
X128397000Y-43028000D03*
X128397000Y-37948000D03*
X128397000Y-36678000D03*
X128397000Y-35408000D03*
X128397000Y-40488000D03*
X128397000Y-34138000D03*
X128397000Y-41758000D03*
D18*
X130616000Y-44727000D03*
X131886000Y-44727000D03*
X136966000Y-44727000D03*
X133156000Y-44727000D03*
X138236000Y-44727000D03*
X139506000Y-44727000D03*
X140776000Y-44727000D03*
X135696000Y-44727000D03*
X142046000Y-44727000D03*
X134426000Y-44727000D03*
X142046000Y-32489000D03*
X140776000Y-32489000D03*
X139506000Y-32489000D03*
X138236000Y-32489000D03*
X136966000Y-32489000D03*
X135696000Y-32489000D03*
X134426000Y-32489000D03*
X133156000Y-32489000D03*
X131886000Y-32489000D03*
X130616000Y-32489000D03*
X132648000Y-42649000D03*
G04 #@! TA.AperFunction,SMDPad,CuDef*
D13*
G36*
X116774691Y-36102053D02*
G01*
X116795926Y-36105203D01*
X116816750Y-36110419D01*
X116836962Y-36117651D01*
X116856368Y-36126830D01*
X116874781Y-36137866D01*
X116892024Y-36150654D01*
X116907930Y-36165070D01*
X116922346Y-36180976D01*
X116935134Y-36198219D01*
X116946170Y-36216632D01*
X116955349Y-36236038D01*
X116962581Y-36256250D01*
X116967797Y-36277074D01*
X116970947Y-36298309D01*
X116972000Y-36319750D01*
X116972000Y-36832250D01*
X116970947Y-36853691D01*
X116967797Y-36874926D01*
X116962581Y-36895750D01*
X116955349Y-36915962D01*
X116946170Y-36935368D01*
X116935134Y-36953781D01*
X116922346Y-36971024D01*
X116907930Y-36986930D01*
X116892024Y-37001346D01*
X116874781Y-37014134D01*
X116856368Y-37025170D01*
X116836962Y-37034349D01*
X116816750Y-37041581D01*
X116795926Y-37046797D01*
X116774691Y-37049947D01*
X116753250Y-37051000D01*
X116315750Y-37051000D01*
X116294309Y-37049947D01*
X116273074Y-37046797D01*
X116252250Y-37041581D01*
X116232038Y-37034349D01*
X116212632Y-37025170D01*
X116194219Y-37014134D01*
X116176976Y-37001346D01*
X116161070Y-36986930D01*
X116146654Y-36971024D01*
X116133866Y-36953781D01*
X116122830Y-36935368D01*
X116113651Y-36915962D01*
X116106419Y-36895750D01*
X116101203Y-36874926D01*
X116098053Y-36853691D01*
X116097000Y-36832250D01*
X116097000Y-36319750D01*
X116098053Y-36298309D01*
X116101203Y-36277074D01*
X116106419Y-36256250D01*
X116113651Y-36236038D01*
X116122830Y-36216632D01*
X116133866Y-36198219D01*
X116146654Y-36180976D01*
X116161070Y-36165070D01*
X116176976Y-36150654D01*
X116194219Y-36137866D01*
X116212632Y-36126830D01*
X116232038Y-36117651D01*
X116252250Y-36110419D01*
X116273074Y-36105203D01*
X116294309Y-36102053D01*
X116315750Y-36101000D01*
X116753250Y-36101000D01*
X116774691Y-36102053D01*
G37*
G04 #@! TD.AperFunction*
G04 #@! TA.AperFunction,SMDPad,CuDef*
G36*
X118349691Y-36102053D02*
G01*
X118370926Y-36105203D01*
X118391750Y-36110419D01*
X118411962Y-36117651D01*
X118431368Y-36126830D01*
X118449781Y-36137866D01*
X118467024Y-36150654D01*
X118482930Y-36165070D01*
X118497346Y-36180976D01*
X118510134Y-36198219D01*
X118521170Y-36216632D01*
X118530349Y-36236038D01*
X118537581Y-36256250D01*
X118542797Y-36277074D01*
X118545947Y-36298309D01*
X118547000Y-36319750D01*
X118547000Y-36832250D01*
X118545947Y-36853691D01*
X118542797Y-36874926D01*
X118537581Y-36895750D01*
X118530349Y-36915962D01*
X118521170Y-36935368D01*
X118510134Y-36953781D01*
X118497346Y-36971024D01*
X118482930Y-36986930D01*
X118467024Y-37001346D01*
X118449781Y-37014134D01*
X118431368Y-37025170D01*
X118411962Y-37034349D01*
X118391750Y-37041581D01*
X118370926Y-37046797D01*
X118349691Y-37049947D01*
X118328250Y-37051000D01*
X117890750Y-37051000D01*
X117869309Y-37049947D01*
X117848074Y-37046797D01*
X117827250Y-37041581D01*
X117807038Y-37034349D01*
X117787632Y-37025170D01*
X117769219Y-37014134D01*
X117751976Y-37001346D01*
X117736070Y-36986930D01*
X117721654Y-36971024D01*
X117708866Y-36953781D01*
X117697830Y-36935368D01*
X117688651Y-36915962D01*
X117681419Y-36895750D01*
X117676203Y-36874926D01*
X117673053Y-36853691D01*
X117672000Y-36832250D01*
X117672000Y-36319750D01*
X117673053Y-36298309D01*
X117676203Y-36277074D01*
X117681419Y-36256250D01*
X117688651Y-36236038D01*
X117697830Y-36216632D01*
X117708866Y-36198219D01*
X117721654Y-36180976D01*
X117736070Y-36165070D01*
X117751976Y-36150654D01*
X117769219Y-36137866D01*
X117787632Y-36126830D01*
X117807038Y-36117651D01*
X117827250Y-36110419D01*
X117848074Y-36105203D01*
X117869309Y-36102053D01*
X117890750Y-36101000D01*
X118328250Y-36101000D01*
X118349691Y-36102053D01*
G37*
G04 #@! TD.AperFunction*
G04 #@! TA.AperFunction,SMDPad,CuDef*
G36*
X104049691Y-40420053D02*
G01*
X104070926Y-40423203D01*
X104091750Y-40428419D01*
X104111962Y-40435651D01*
X104131368Y-40444830D01*
X104149781Y-40455866D01*
X104167024Y-40468654D01*
X104182930Y-40483070D01*
X104197346Y-40498976D01*
X104210134Y-40516219D01*
X104221170Y-40534632D01*
X104230349Y-40554038D01*
X104237581Y-40574250D01*
X104242797Y-40595074D01*
X104245947Y-40616309D01*
X104247000Y-40637750D01*
X104247000Y-41150250D01*
X104245947Y-41171691D01*
X104242797Y-41192926D01*
X104237581Y-41213750D01*
X104230349Y-41233962D01*
X104221170Y-41253368D01*
X104210134Y-41271781D01*
X104197346Y-41289024D01*
X104182930Y-41304930D01*
X104167024Y-41319346D01*
X104149781Y-41332134D01*
X104131368Y-41343170D01*
X104111962Y-41352349D01*
X104091750Y-41359581D01*
X104070926Y-41364797D01*
X104049691Y-41367947D01*
X104028250Y-41369000D01*
X103590750Y-41369000D01*
X103569309Y-41367947D01*
X103548074Y-41364797D01*
X103527250Y-41359581D01*
X103507038Y-41352349D01*
X103487632Y-41343170D01*
X103469219Y-41332134D01*
X103451976Y-41319346D01*
X103436070Y-41304930D01*
X103421654Y-41289024D01*
X103408866Y-41271781D01*
X103397830Y-41253368D01*
X103388651Y-41233962D01*
X103381419Y-41213750D01*
X103376203Y-41192926D01*
X103373053Y-41171691D01*
X103372000Y-41150250D01*
X103372000Y-40637750D01*
X103373053Y-40616309D01*
X103376203Y-40595074D01*
X103381419Y-40574250D01*
X103388651Y-40554038D01*
X103397830Y-40534632D01*
X103408866Y-40516219D01*
X103421654Y-40498976D01*
X103436070Y-40483070D01*
X103451976Y-40468654D01*
X103469219Y-40455866D01*
X103487632Y-40444830D01*
X103507038Y-40435651D01*
X103527250Y-40428419D01*
X103548074Y-40423203D01*
X103569309Y-40420053D01*
X103590750Y-40419000D01*
X104028250Y-40419000D01*
X104049691Y-40420053D01*
G37*
G04 #@! TD.AperFunction*
G04 #@! TA.AperFunction,SMDPad,CuDef*
G36*
X102474691Y-40420053D02*
G01*
X102495926Y-40423203D01*
X102516750Y-40428419D01*
X102536962Y-40435651D01*
X102556368Y-40444830D01*
X102574781Y-40455866D01*
X102592024Y-40468654D01*
X102607930Y-40483070D01*
X102622346Y-40498976D01*
X102635134Y-40516219D01*
X102646170Y-40534632D01*
X102655349Y-40554038D01*
X102662581Y-40574250D01*
X102667797Y-40595074D01*
X102670947Y-40616309D01*
X102672000Y-40637750D01*
X102672000Y-41150250D01*
X102670947Y-41171691D01*
X102667797Y-41192926D01*
X102662581Y-41213750D01*
X102655349Y-41233962D01*
X102646170Y-41253368D01*
X102635134Y-41271781D01*
X102622346Y-41289024D01*
X102607930Y-41304930D01*
X102592024Y-41319346D01*
X102574781Y-41332134D01*
X102556368Y-41343170D01*
X102536962Y-41352349D01*
X102516750Y-41359581D01*
X102495926Y-41364797D01*
X102474691Y-41367947D01*
X102453250Y-41369000D01*
X102015750Y-41369000D01*
X101994309Y-41367947D01*
X101973074Y-41364797D01*
X101952250Y-41359581D01*
X101932038Y-41352349D01*
X101912632Y-41343170D01*
X101894219Y-41332134D01*
X101876976Y-41319346D01*
X101861070Y-41304930D01*
X101846654Y-41289024D01*
X101833866Y-41271781D01*
X101822830Y-41253368D01*
X101813651Y-41233962D01*
X101806419Y-41213750D01*
X101801203Y-41192926D01*
X101798053Y-41171691D01*
X101797000Y-41150250D01*
X101797000Y-40637750D01*
X101798053Y-40616309D01*
X101801203Y-40595074D01*
X101806419Y-40574250D01*
X101813651Y-40554038D01*
X101822830Y-40534632D01*
X101833866Y-40516219D01*
X101846654Y-40498976D01*
X101861070Y-40483070D01*
X101876976Y-40468654D01*
X101894219Y-40455866D01*
X101912632Y-40444830D01*
X101932038Y-40435651D01*
X101952250Y-40428419D01*
X101973074Y-40423203D01*
X101994309Y-40420053D01*
X102015750Y-40419000D01*
X102453250Y-40419000D01*
X102474691Y-40420053D01*
G37*
G04 #@! TD.AperFunction*
D19*
X98790000Y-36764000D03*
X98790000Y-34864000D03*
X96790000Y-35814000D03*
G04 #@! TA.AperFunction,SMDPad,CuDef*
D13*
G36*
X112799691Y-39492553D02*
G01*
X112820926Y-39495703D01*
X112841750Y-39500919D01*
X112861962Y-39508151D01*
X112881368Y-39517330D01*
X112899781Y-39528366D01*
X112917024Y-39541154D01*
X112932930Y-39555570D01*
X112947346Y-39571476D01*
X112960134Y-39588719D01*
X112971170Y-39607132D01*
X112980349Y-39626538D01*
X112987581Y-39646750D01*
X112992797Y-39667574D01*
X112995947Y-39688809D01*
X112997000Y-39710250D01*
X112997000Y-40147750D01*
X112995947Y-40169191D01*
X112992797Y-40190426D01*
X112987581Y-40211250D01*
X112980349Y-40231462D01*
X112971170Y-40250868D01*
X112960134Y-40269281D01*
X112947346Y-40286524D01*
X112932930Y-40302430D01*
X112917024Y-40316846D01*
X112899781Y-40329634D01*
X112881368Y-40340670D01*
X112861962Y-40349849D01*
X112841750Y-40357081D01*
X112820926Y-40362297D01*
X112799691Y-40365447D01*
X112778250Y-40366500D01*
X112265750Y-40366500D01*
X112244309Y-40365447D01*
X112223074Y-40362297D01*
X112202250Y-40357081D01*
X112182038Y-40349849D01*
X112162632Y-40340670D01*
X112144219Y-40329634D01*
X112126976Y-40316846D01*
X112111070Y-40302430D01*
X112096654Y-40286524D01*
X112083866Y-40269281D01*
X112072830Y-40250868D01*
X112063651Y-40231462D01*
X112056419Y-40211250D01*
X112051203Y-40190426D01*
X112048053Y-40169191D01*
X112047000Y-40147750D01*
X112047000Y-39710250D01*
X112048053Y-39688809D01*
X112051203Y-39667574D01*
X112056419Y-39646750D01*
X112063651Y-39626538D01*
X112072830Y-39607132D01*
X112083866Y-39588719D01*
X112096654Y-39571476D01*
X112111070Y-39555570D01*
X112126976Y-39541154D01*
X112144219Y-39528366D01*
X112162632Y-39517330D01*
X112182038Y-39508151D01*
X112202250Y-39500919D01*
X112223074Y-39495703D01*
X112244309Y-39492553D01*
X112265750Y-39491500D01*
X112778250Y-39491500D01*
X112799691Y-39492553D01*
G37*
G04 #@! TD.AperFunction*
G04 #@! TA.AperFunction,SMDPad,CuDef*
G36*
X112799691Y-37917553D02*
G01*
X112820926Y-37920703D01*
X112841750Y-37925919D01*
X112861962Y-37933151D01*
X112881368Y-37942330D01*
X112899781Y-37953366D01*
X112917024Y-37966154D01*
X112932930Y-37980570D01*
X112947346Y-37996476D01*
X112960134Y-38013719D01*
X112971170Y-38032132D01*
X112980349Y-38051538D01*
X112987581Y-38071750D01*
X112992797Y-38092574D01*
X112995947Y-38113809D01*
X112997000Y-38135250D01*
X112997000Y-38572750D01*
X112995947Y-38594191D01*
X112992797Y-38615426D01*
X112987581Y-38636250D01*
X112980349Y-38656462D01*
X112971170Y-38675868D01*
X112960134Y-38694281D01*
X112947346Y-38711524D01*
X112932930Y-38727430D01*
X112917024Y-38741846D01*
X112899781Y-38754634D01*
X112881368Y-38765670D01*
X112861962Y-38774849D01*
X112841750Y-38782081D01*
X112820926Y-38787297D01*
X112799691Y-38790447D01*
X112778250Y-38791500D01*
X112265750Y-38791500D01*
X112244309Y-38790447D01*
X112223074Y-38787297D01*
X112202250Y-38782081D01*
X112182038Y-38774849D01*
X112162632Y-38765670D01*
X112144219Y-38754634D01*
X112126976Y-38741846D01*
X112111070Y-38727430D01*
X112096654Y-38711524D01*
X112083866Y-38694281D01*
X112072830Y-38675868D01*
X112063651Y-38656462D01*
X112056419Y-38636250D01*
X112051203Y-38615426D01*
X112048053Y-38594191D01*
X112047000Y-38572750D01*
X112047000Y-38135250D01*
X112048053Y-38113809D01*
X112051203Y-38092574D01*
X112056419Y-38071750D01*
X112063651Y-38051538D01*
X112072830Y-38032132D01*
X112083866Y-38013719D01*
X112096654Y-37996476D01*
X112111070Y-37980570D01*
X112126976Y-37966154D01*
X112144219Y-37953366D01*
X112162632Y-37942330D01*
X112182038Y-37933151D01*
X112202250Y-37925919D01*
X112223074Y-37920703D01*
X112244309Y-37917553D01*
X112265750Y-37916500D01*
X112778250Y-37916500D01*
X112799691Y-37917553D01*
G37*
G04 #@! TD.AperFunction*
D19*
X118348000Y-39116000D03*
X116348000Y-40066000D03*
X116348000Y-38166000D03*
G04 #@! TA.AperFunction,SMDPad,CuDef*
D13*
G36*
X104887691Y-38388053D02*
G01*
X104908926Y-38391203D01*
X104929750Y-38396419D01*
X104949962Y-38403651D01*
X104969368Y-38412830D01*
X104987781Y-38423866D01*
X105005024Y-38436654D01*
X105020930Y-38451070D01*
X105035346Y-38466976D01*
X105048134Y-38484219D01*
X105059170Y-38502632D01*
X105068349Y-38522038D01*
X105075581Y-38542250D01*
X105080797Y-38563074D01*
X105083947Y-38584309D01*
X105085000Y-38605750D01*
X105085000Y-39118250D01*
X105083947Y-39139691D01*
X105080797Y-39160926D01*
X105075581Y-39181750D01*
X105068349Y-39201962D01*
X105059170Y-39221368D01*
X105048134Y-39239781D01*
X105035346Y-39257024D01*
X105020930Y-39272930D01*
X105005024Y-39287346D01*
X104987781Y-39300134D01*
X104969368Y-39311170D01*
X104949962Y-39320349D01*
X104929750Y-39327581D01*
X104908926Y-39332797D01*
X104887691Y-39335947D01*
X104866250Y-39337000D01*
X104428750Y-39337000D01*
X104407309Y-39335947D01*
X104386074Y-39332797D01*
X104365250Y-39327581D01*
X104345038Y-39320349D01*
X104325632Y-39311170D01*
X104307219Y-39300134D01*
X104289976Y-39287346D01*
X104274070Y-39272930D01*
X104259654Y-39257024D01*
X104246866Y-39239781D01*
X104235830Y-39221368D01*
X104226651Y-39201962D01*
X104219419Y-39181750D01*
X104214203Y-39160926D01*
X104211053Y-39139691D01*
X104210000Y-39118250D01*
X104210000Y-38605750D01*
X104211053Y-38584309D01*
X104214203Y-38563074D01*
X104219419Y-38542250D01*
X104226651Y-38522038D01*
X104235830Y-38502632D01*
X104246866Y-38484219D01*
X104259654Y-38466976D01*
X104274070Y-38451070D01*
X104289976Y-38436654D01*
X104307219Y-38423866D01*
X104325632Y-38412830D01*
X104345038Y-38403651D01*
X104365250Y-38396419D01*
X104386074Y-38391203D01*
X104407309Y-38388053D01*
X104428750Y-38387000D01*
X104866250Y-38387000D01*
X104887691Y-38388053D01*
G37*
G04 #@! TD.AperFunction*
G04 #@! TA.AperFunction,SMDPad,CuDef*
G36*
X103312691Y-38388053D02*
G01*
X103333926Y-38391203D01*
X103354750Y-38396419D01*
X103374962Y-38403651D01*
X103394368Y-38412830D01*
X103412781Y-38423866D01*
X103430024Y-38436654D01*
X103445930Y-38451070D01*
X103460346Y-38466976D01*
X103473134Y-38484219D01*
X103484170Y-38502632D01*
X103493349Y-38522038D01*
X103500581Y-38542250D01*
X103505797Y-38563074D01*
X103508947Y-38584309D01*
X103510000Y-38605750D01*
X103510000Y-39118250D01*
X103508947Y-39139691D01*
X103505797Y-39160926D01*
X103500581Y-39181750D01*
X103493349Y-39201962D01*
X103484170Y-39221368D01*
X103473134Y-39239781D01*
X103460346Y-39257024D01*
X103445930Y-39272930D01*
X103430024Y-39287346D01*
X103412781Y-39300134D01*
X103394368Y-39311170D01*
X103374962Y-39320349D01*
X103354750Y-39327581D01*
X103333926Y-39332797D01*
X103312691Y-39335947D01*
X103291250Y-39337000D01*
X102853750Y-39337000D01*
X102832309Y-39335947D01*
X102811074Y-39332797D01*
X102790250Y-39327581D01*
X102770038Y-39320349D01*
X102750632Y-39311170D01*
X102732219Y-39300134D01*
X102714976Y-39287346D01*
X102699070Y-39272930D01*
X102684654Y-39257024D01*
X102671866Y-39239781D01*
X102660830Y-39221368D01*
X102651651Y-39201962D01*
X102644419Y-39181750D01*
X102639203Y-39160926D01*
X102636053Y-39139691D01*
X102635000Y-39118250D01*
X102635000Y-38605750D01*
X102636053Y-38584309D01*
X102639203Y-38563074D01*
X102644419Y-38542250D01*
X102651651Y-38522038D01*
X102660830Y-38502632D01*
X102671866Y-38484219D01*
X102684654Y-38466976D01*
X102699070Y-38451070D01*
X102714976Y-38436654D01*
X102732219Y-38423866D01*
X102750632Y-38412830D01*
X102770038Y-38403651D01*
X102790250Y-38396419D01*
X102811074Y-38391203D01*
X102832309Y-38388053D01*
X102853750Y-38387000D01*
X103291250Y-38387000D01*
X103312691Y-38388053D01*
G37*
G04 #@! TD.AperFunction*
G04 #@! TA.AperFunction,SMDPad,CuDef*
G36*
X109243691Y-34564553D02*
G01*
X109264926Y-34567703D01*
X109285750Y-34572919D01*
X109305962Y-34580151D01*
X109325368Y-34589330D01*
X109343781Y-34600366D01*
X109361024Y-34613154D01*
X109376930Y-34627570D01*
X109391346Y-34643476D01*
X109404134Y-34660719D01*
X109415170Y-34679132D01*
X109424349Y-34698538D01*
X109431581Y-34718750D01*
X109436797Y-34739574D01*
X109439947Y-34760809D01*
X109441000Y-34782250D01*
X109441000Y-35219750D01*
X109439947Y-35241191D01*
X109436797Y-35262426D01*
X109431581Y-35283250D01*
X109424349Y-35303462D01*
X109415170Y-35322868D01*
X109404134Y-35341281D01*
X109391346Y-35358524D01*
X109376930Y-35374430D01*
X109361024Y-35388846D01*
X109343781Y-35401634D01*
X109325368Y-35412670D01*
X109305962Y-35421849D01*
X109285750Y-35429081D01*
X109264926Y-35434297D01*
X109243691Y-35437447D01*
X109222250Y-35438500D01*
X108709750Y-35438500D01*
X108688309Y-35437447D01*
X108667074Y-35434297D01*
X108646250Y-35429081D01*
X108626038Y-35421849D01*
X108606632Y-35412670D01*
X108588219Y-35401634D01*
X108570976Y-35388846D01*
X108555070Y-35374430D01*
X108540654Y-35358524D01*
X108527866Y-35341281D01*
X108516830Y-35322868D01*
X108507651Y-35303462D01*
X108500419Y-35283250D01*
X108495203Y-35262426D01*
X108492053Y-35241191D01*
X108491000Y-35219750D01*
X108491000Y-34782250D01*
X108492053Y-34760809D01*
X108495203Y-34739574D01*
X108500419Y-34718750D01*
X108507651Y-34698538D01*
X108516830Y-34679132D01*
X108527866Y-34660719D01*
X108540654Y-34643476D01*
X108555070Y-34627570D01*
X108570976Y-34613154D01*
X108588219Y-34600366D01*
X108606632Y-34589330D01*
X108626038Y-34580151D01*
X108646250Y-34572919D01*
X108667074Y-34567703D01*
X108688309Y-34564553D01*
X108709750Y-34563500D01*
X109222250Y-34563500D01*
X109243691Y-34564553D01*
G37*
G04 #@! TD.AperFunction*
G04 #@! TA.AperFunction,SMDPad,CuDef*
G36*
X109243691Y-36139553D02*
G01*
X109264926Y-36142703D01*
X109285750Y-36147919D01*
X109305962Y-36155151D01*
X109325368Y-36164330D01*
X109343781Y-36175366D01*
X109361024Y-36188154D01*
X109376930Y-36202570D01*
X109391346Y-36218476D01*
X109404134Y-36235719D01*
X109415170Y-36254132D01*
X109424349Y-36273538D01*
X109431581Y-36293750D01*
X109436797Y-36314574D01*
X109439947Y-36335809D01*
X109441000Y-36357250D01*
X109441000Y-36794750D01*
X109439947Y-36816191D01*
X109436797Y-36837426D01*
X109431581Y-36858250D01*
X109424349Y-36878462D01*
X109415170Y-36897868D01*
X109404134Y-36916281D01*
X109391346Y-36933524D01*
X109376930Y-36949430D01*
X109361024Y-36963846D01*
X109343781Y-36976634D01*
X109325368Y-36987670D01*
X109305962Y-36996849D01*
X109285750Y-37004081D01*
X109264926Y-37009297D01*
X109243691Y-37012447D01*
X109222250Y-37013500D01*
X108709750Y-37013500D01*
X108688309Y-37012447D01*
X108667074Y-37009297D01*
X108646250Y-37004081D01*
X108626038Y-36996849D01*
X108606632Y-36987670D01*
X108588219Y-36976634D01*
X108570976Y-36963846D01*
X108555070Y-36949430D01*
X108540654Y-36933524D01*
X108527866Y-36916281D01*
X108516830Y-36897868D01*
X108507651Y-36878462D01*
X108500419Y-36858250D01*
X108495203Y-36837426D01*
X108492053Y-36816191D01*
X108491000Y-36794750D01*
X108491000Y-36357250D01*
X108492053Y-36335809D01*
X108495203Y-36314574D01*
X108500419Y-36293750D01*
X108507651Y-36273538D01*
X108516830Y-36254132D01*
X108527866Y-36235719D01*
X108540654Y-36218476D01*
X108555070Y-36202570D01*
X108570976Y-36188154D01*
X108588219Y-36175366D01*
X108606632Y-36164330D01*
X108626038Y-36155151D01*
X108646250Y-36147919D01*
X108667074Y-36142703D01*
X108688309Y-36139553D01*
X108709750Y-36138500D01*
X109222250Y-36138500D01*
X109243691Y-36139553D01*
G37*
G04 #@! TD.AperFunction*
G04 #@! TA.AperFunction,SMDPad,CuDef*
G36*
X111021691Y-34564553D02*
G01*
X111042926Y-34567703D01*
X111063750Y-34572919D01*
X111083962Y-34580151D01*
X111103368Y-34589330D01*
X111121781Y-34600366D01*
X111139024Y-34613154D01*
X111154930Y-34627570D01*
X111169346Y-34643476D01*
X111182134Y-34660719D01*
X111193170Y-34679132D01*
X111202349Y-34698538D01*
X111209581Y-34718750D01*
X111214797Y-34739574D01*
X111217947Y-34760809D01*
X111219000Y-34782250D01*
X111219000Y-35219750D01*
X111217947Y-35241191D01*
X111214797Y-35262426D01*
X111209581Y-35283250D01*
X111202349Y-35303462D01*
X111193170Y-35322868D01*
X111182134Y-35341281D01*
X111169346Y-35358524D01*
X111154930Y-35374430D01*
X111139024Y-35388846D01*
X111121781Y-35401634D01*
X111103368Y-35412670D01*
X111083962Y-35421849D01*
X111063750Y-35429081D01*
X111042926Y-35434297D01*
X111021691Y-35437447D01*
X111000250Y-35438500D01*
X110487750Y-35438500D01*
X110466309Y-35437447D01*
X110445074Y-35434297D01*
X110424250Y-35429081D01*
X110404038Y-35421849D01*
X110384632Y-35412670D01*
X110366219Y-35401634D01*
X110348976Y-35388846D01*
X110333070Y-35374430D01*
X110318654Y-35358524D01*
X110305866Y-35341281D01*
X110294830Y-35322868D01*
X110285651Y-35303462D01*
X110278419Y-35283250D01*
X110273203Y-35262426D01*
X110270053Y-35241191D01*
X110269000Y-35219750D01*
X110269000Y-34782250D01*
X110270053Y-34760809D01*
X110273203Y-34739574D01*
X110278419Y-34718750D01*
X110285651Y-34698538D01*
X110294830Y-34679132D01*
X110305866Y-34660719D01*
X110318654Y-34643476D01*
X110333070Y-34627570D01*
X110348976Y-34613154D01*
X110366219Y-34600366D01*
X110384632Y-34589330D01*
X110404038Y-34580151D01*
X110424250Y-34572919D01*
X110445074Y-34567703D01*
X110466309Y-34564553D01*
X110487750Y-34563500D01*
X111000250Y-34563500D01*
X111021691Y-34564553D01*
G37*
G04 #@! TD.AperFunction*
G04 #@! TA.AperFunction,SMDPad,CuDef*
G36*
X111021691Y-36139553D02*
G01*
X111042926Y-36142703D01*
X111063750Y-36147919D01*
X111083962Y-36155151D01*
X111103368Y-36164330D01*
X111121781Y-36175366D01*
X111139024Y-36188154D01*
X111154930Y-36202570D01*
X111169346Y-36218476D01*
X111182134Y-36235719D01*
X111193170Y-36254132D01*
X111202349Y-36273538D01*
X111209581Y-36293750D01*
X111214797Y-36314574D01*
X111217947Y-36335809D01*
X111219000Y-36357250D01*
X111219000Y-36794750D01*
X111217947Y-36816191D01*
X111214797Y-36837426D01*
X111209581Y-36858250D01*
X111202349Y-36878462D01*
X111193170Y-36897868D01*
X111182134Y-36916281D01*
X111169346Y-36933524D01*
X111154930Y-36949430D01*
X111139024Y-36963846D01*
X111121781Y-36976634D01*
X111103368Y-36987670D01*
X111083962Y-36996849D01*
X111063750Y-37004081D01*
X111042926Y-37009297D01*
X111021691Y-37012447D01*
X111000250Y-37013500D01*
X110487750Y-37013500D01*
X110466309Y-37012447D01*
X110445074Y-37009297D01*
X110424250Y-37004081D01*
X110404038Y-36996849D01*
X110384632Y-36987670D01*
X110366219Y-36976634D01*
X110348976Y-36963846D01*
X110333070Y-36949430D01*
X110318654Y-36933524D01*
X110305866Y-36916281D01*
X110294830Y-36897868D01*
X110285651Y-36878462D01*
X110278419Y-36858250D01*
X110273203Y-36837426D01*
X110270053Y-36816191D01*
X110269000Y-36794750D01*
X110269000Y-36357250D01*
X110270053Y-36335809D01*
X110273203Y-36314574D01*
X110278419Y-36293750D01*
X110285651Y-36273538D01*
X110294830Y-36254132D01*
X110305866Y-36235719D01*
X110318654Y-36218476D01*
X110333070Y-36202570D01*
X110348976Y-36188154D01*
X110366219Y-36175366D01*
X110384632Y-36164330D01*
X110404038Y-36155151D01*
X110424250Y-36147919D01*
X110445074Y-36142703D01*
X110466309Y-36139553D01*
X110487750Y-36138500D01*
X111000250Y-36138500D01*
X111021691Y-36139553D01*
G37*
G04 #@! TD.AperFunction*
D20*
X99695000Y-29083000D03*
X137668000Y-46355000D03*
X143891000Y-48768000D03*
X131953000Y-41402000D03*
X111721800Y-35113600D03*
X108103100Y-37465500D03*
X112522000Y-40869700D03*
X118110000Y-37564800D03*
X136882400Y-31457100D03*
X103072500Y-37852000D03*
X121412000Y-36576000D03*
X119380000Y-36576000D03*
X102870000Y-48641000D03*
X135890000Y-46355000D03*
X101219000Y-30734000D03*
X116713000Y-29083000D03*
X131191000Y-28702000D03*
X113792000Y-32385000D03*
X120015000Y-44577000D03*
X129775700Y-31884700D03*
X133761000Y-33549100D03*
X133053600Y-34540800D03*
X135890000Y-34224800D03*
X109356300Y-44160500D03*
X111137100Y-44353800D03*
X134484700Y-45798700D03*
X131381500Y-46164500D03*
X129030700Y-31476000D03*
X142001300Y-30973700D03*
X114660500Y-42963600D03*
X135018500Y-39763500D03*
X121274500Y-45140900D03*
X117857300Y-32063600D03*
X124460000Y-31496000D03*
X139954000Y-36576000D03*
X105745700Y-44053600D03*
X102997000Y-43352900D03*
X124460000Y-46736000D03*
X107620500Y-33936000D03*
D21*
X111721800Y-35113600D02*
X110856600Y-35113600D01*
X110856600Y-35113600D02*
X110744000Y-35001000D01*
X108103100Y-37465500D02*
X107898300Y-37260700D01*
X107898300Y-37260700D02*
X107898300Y-35814000D01*
X108966000Y-38328500D02*
X108103100Y-37465600D01*
X108103100Y-37465600D02*
X108103100Y-37465500D01*
X107018000Y-35814000D02*
X107898300Y-35814000D01*
X112522000Y-39929000D02*
X112522000Y-40869700D01*
X118109500Y-37564800D02*
X118109500Y-36576000D01*
X136882400Y-31457100D02*
X136882400Y-31555100D01*
X136882400Y-31555100D02*
X136966000Y-31638700D01*
X136966000Y-32489000D02*
X136966000Y-31638700D01*
X103072500Y-37852000D02*
X102416100Y-37852000D01*
X102416100Y-37852000D02*
X101380300Y-36816200D01*
X101380300Y-36816200D02*
X101380300Y-35814000D01*
X100500000Y-35814000D02*
X101380300Y-35814000D01*
X103072500Y-38862000D02*
X103072500Y-37852000D01*
X128397000Y-40488000D02*
X129247300Y-40488000D01*
X130108000Y-42395000D02*
X129257700Y-42395000D01*
X129257700Y-42395000D02*
X129257700Y-40498400D01*
X129257700Y-40498400D02*
X129247300Y-40488000D01*
D22*
X121412000Y-36576000D02*
X119380000Y-36576000D01*
X106288000Y-35814000D02*
X107018000Y-35814000D01*
X105963001Y-36138999D02*
X106288000Y-35814000D01*
X103599381Y-36138999D02*
X105963001Y-36138999D01*
X103587690Y-36150690D02*
X103599381Y-36138999D01*
X103587690Y-37336810D02*
X103587690Y-36150690D01*
X103072500Y-37852000D02*
X103587690Y-37336810D01*
X131953000Y-41402000D02*
X130937000Y-42418000D01*
X130914000Y-42395000D02*
X130108000Y-42395000D01*
X130937000Y-42418000D02*
X130914000Y-42395000D01*
X117233063Y-38866001D02*
X118110000Y-37989064D01*
X114525699Y-38866001D02*
X117233063Y-38866001D01*
X118110000Y-37989064D02*
X118110000Y-37564800D01*
X112522000Y-40869700D02*
X114525699Y-38866001D01*
X102870000Y-48641000D02*
X103886000Y-49657000D01*
X143002000Y-49657000D02*
X143891000Y-48768000D01*
X103886000Y-49657000D02*
X143002000Y-49657000D01*
X137668000Y-46355000D02*
X135890000Y-46355000D01*
X99695000Y-29210000D02*
X99695000Y-29083000D01*
X101219000Y-30734000D02*
X99695000Y-29210000D01*
X113792000Y-32004000D02*
X113792000Y-32385000D01*
X116713000Y-29083000D02*
X113792000Y-32004000D01*
X130810000Y-29083000D02*
X116713000Y-29083000D01*
X131191000Y-28702000D02*
X130810000Y-29083000D01*
X130616000Y-44727000D02*
X130369100Y-44480100D01*
X130369100Y-44480100D02*
X121083400Y-44480100D01*
X120986500Y-44577000D02*
X120015000Y-44577000D01*
X121083400Y-44480100D02*
X120986500Y-44577000D01*
X134426000Y-31688700D02*
X129971700Y-31688700D01*
X129971700Y-31688700D02*
X129775700Y-31884700D01*
X134426000Y-32489000D02*
X134426000Y-31688700D01*
X133761000Y-33549100D02*
X133501200Y-33289300D01*
X133501200Y-33289300D02*
X133156000Y-33289300D01*
X133156000Y-32489000D02*
X133156000Y-33289300D01*
X130616000Y-32489000D02*
X130616000Y-33289300D01*
X130616000Y-33289300D02*
X131867500Y-34540800D01*
X131867500Y-34540800D02*
X133053600Y-34540800D01*
X135890000Y-34224800D02*
X133587500Y-34224800D01*
X133587500Y-34224800D02*
X133111900Y-33749200D01*
X133111900Y-33749200D02*
X132345900Y-33749200D01*
X132345900Y-33749200D02*
X131886000Y-33289300D01*
X131886000Y-32489000D02*
X131886000Y-33289300D01*
X142046000Y-45527300D02*
X139005000Y-48568300D01*
X139005000Y-48568300D02*
X113764100Y-48568300D01*
X113764100Y-48568300D02*
X109356300Y-44160500D01*
X142046000Y-44727000D02*
X142046000Y-45527300D01*
X111137100Y-44353800D02*
X114916000Y-48132700D01*
X114916000Y-48132700D02*
X138244200Y-48132700D01*
X138244200Y-48132700D02*
X140776000Y-45600900D01*
X140776000Y-45600900D02*
X140776000Y-44727000D01*
D21*
X98790000Y-36764000D02*
X98790000Y-36013700D01*
X98790000Y-36013700D02*
X98508600Y-36013700D01*
X98508600Y-36013700D02*
X97989600Y-35494700D01*
X97989600Y-35494700D02*
X97989600Y-34282400D01*
X97989600Y-34282400D02*
X98158400Y-34113600D01*
X98158400Y-34113600D02*
X103356100Y-34113600D01*
X103356100Y-34113600D02*
X103937700Y-34695200D01*
X103937700Y-34695200D02*
X103937700Y-34864000D01*
X98790000Y-36764000D02*
X98790000Y-37889700D01*
X98790000Y-37889700D02*
X98595000Y-38084700D01*
X104818000Y-34864000D02*
X103937700Y-34864000D01*
X98595000Y-38735000D02*
X98595000Y-38084700D01*
X111292000Y-40635200D02*
X111570200Y-40357000D01*
X111570200Y-40357000D02*
X111570200Y-39540700D01*
X111570200Y-39540700D02*
X112522000Y-38588900D01*
X112522000Y-38588900D02*
X112522000Y-38354000D01*
X99060000Y-40894000D02*
X99916900Y-41750900D01*
X99916900Y-41750900D02*
X110176300Y-41750900D01*
X110176300Y-41750900D02*
X111292000Y-40635200D01*
X121442700Y-42672000D02*
X121062600Y-42291900D01*
X121062600Y-42291900D02*
X112948600Y-42291900D01*
X112948600Y-42291900D02*
X111292000Y-40635200D01*
X122428000Y-42672000D02*
X121442700Y-42672000D01*
X122920700Y-42672000D02*
X122428000Y-42672000D01*
X98595000Y-38735000D02*
X98595000Y-40429000D01*
X98595000Y-40429000D02*
X99060000Y-40894000D01*
X122920700Y-42672000D02*
X123413300Y-42672000D01*
X131886000Y-44727000D02*
X131886000Y-43876700D01*
X123413300Y-42672000D02*
X123413300Y-43041500D01*
X123413300Y-43041500D02*
X124248500Y-43876700D01*
X124248500Y-43876700D02*
X131886000Y-43876700D01*
X96790000Y-35560000D02*
X96790000Y-35814000D01*
X108294100Y-34864000D02*
X108294100Y-33689400D01*
X108294100Y-33689400D02*
X107880600Y-33275900D01*
X107880600Y-33275900D02*
X98257400Y-33275900D01*
X98257400Y-33275900D02*
X96790000Y-34743300D01*
X96790000Y-34743300D02*
X96790000Y-35560000D01*
X96790000Y-35560000D02*
X94488000Y-35560000D01*
X108294100Y-34864000D02*
X107018000Y-34864000D01*
X108966000Y-35001000D02*
X108431100Y-35001000D01*
X108431100Y-35001000D02*
X108294100Y-34864000D01*
D22*
X134426000Y-44727000D02*
X134426000Y-45527300D01*
X134426000Y-45527300D02*
X134484700Y-45586000D01*
X134484700Y-45586000D02*
X134484700Y-45798700D01*
X133156000Y-44727000D02*
X133156000Y-45527300D01*
X133156000Y-45703264D02*
X133156000Y-44727000D01*
X132931263Y-45928001D02*
X133156000Y-45703264D01*
X131681499Y-45928001D02*
X132931263Y-45928001D01*
X131381500Y-46228000D02*
X131681499Y-45928001D01*
X135696000Y-31688700D02*
X135283200Y-31275900D01*
X135283200Y-31275900D02*
X129230800Y-31275900D01*
X129230800Y-31275900D02*
X129030700Y-31476000D01*
X135696000Y-32489000D02*
X135696000Y-31688700D01*
X142046000Y-32489000D02*
X142046000Y-31018400D01*
X142046000Y-31018400D02*
X142001300Y-30973700D01*
X135696000Y-44727000D02*
X135696000Y-45475402D01*
X135696000Y-45475402D02*
X134470401Y-46701001D01*
X117809410Y-45927410D02*
X117348000Y-45466000D01*
X117348000Y-45466000D02*
X114660500Y-42963600D01*
X135696000Y-44727000D02*
X135696000Y-45520280D01*
X135696000Y-45520280D02*
X134302500Y-46913780D01*
X125048410Y-45927410D02*
X117809410Y-45927410D01*
X134302500Y-46913780D02*
X126034780Y-46913780D01*
X126034780Y-46913780D02*
X125048410Y-45927410D01*
X135018500Y-39763500D02*
X132933300Y-41848700D01*
X132933300Y-41848700D02*
X132648000Y-41848700D01*
X132648000Y-42649000D02*
X132648000Y-41848700D01*
X133918000Y-43449300D02*
X133117800Y-43449300D01*
X133117800Y-43449300D02*
X132530600Y-44036500D01*
X132530600Y-44036500D02*
X132530600Y-45341000D01*
X132530600Y-45341000D02*
X132344200Y-45527400D01*
X132344200Y-45527400D02*
X121661000Y-45527400D01*
X121661000Y-45527400D02*
X121274500Y-45140900D01*
X133918000Y-42649000D02*
X133918000Y-43449300D01*
X136966000Y-44727000D02*
X136966000Y-43926700D01*
X136966000Y-43926700D02*
X137083400Y-43809300D01*
X137083400Y-43809300D02*
X137083400Y-40322900D01*
X137083400Y-40322900D02*
X129519000Y-32758500D01*
X129519000Y-32758500D02*
X118552200Y-32758500D01*
X118552200Y-32758500D02*
X117857300Y-32063600D01*
X140776000Y-32489000D02*
X140776000Y-31688700D01*
X140776000Y-31688700D02*
X139495400Y-30408100D01*
X139495400Y-30408100D02*
X118540700Y-30408100D01*
X118540700Y-30408100D02*
X110744000Y-38204800D01*
X110744000Y-38204800D02*
X110744000Y-38303000D01*
X139506000Y-32489000D02*
X139506000Y-31688700D01*
X139506000Y-31688700D02*
X138629800Y-30812500D01*
X138629800Y-30812500D02*
X127232500Y-30812500D01*
X126930000Y-31115000D02*
X127232500Y-30812500D01*
X125730000Y-31115000D02*
X126930000Y-31115000D01*
X125648999Y-31196001D02*
X125730000Y-31115000D01*
X124759999Y-31196001D02*
X125648999Y-31196001D01*
X124460000Y-31496000D02*
X124759999Y-31196001D01*
X138236000Y-32489000D02*
X138236000Y-34751100D01*
X138236000Y-34751100D02*
X139172700Y-35687800D01*
X139172700Y-35794700D02*
X139172700Y-35687800D01*
X139954000Y-36576000D02*
X139172700Y-35794700D01*
X126746000Y-33960000D02*
X127646300Y-33960000D01*
X128397000Y-34138000D02*
X127824300Y-34138000D01*
X127824300Y-34138000D02*
X127646300Y-33960000D01*
X126746000Y-35560000D02*
X127646300Y-35560000D01*
X128397000Y-35408000D02*
X127798300Y-35408000D01*
X127798300Y-35408000D02*
X127646300Y-35560000D01*
X141538000Y-42649000D02*
X141538000Y-43449300D01*
X141538000Y-43449300D02*
X142085100Y-43449300D01*
X142085100Y-43449300D02*
X142700000Y-44064200D01*
X142700000Y-44064200D02*
X142700000Y-45439600D01*
X142700000Y-45439600D02*
X139142200Y-48997400D01*
X139142200Y-48997400D02*
X110689500Y-48997400D01*
X110689500Y-48997400D02*
X105745700Y-44053600D01*
X102997000Y-43352900D02*
X112878200Y-43352900D01*
X112878200Y-43352900D02*
X117239100Y-47713800D01*
X117239100Y-47713800D02*
X138097000Y-47713800D01*
X138097000Y-47713800D02*
X140150600Y-45660200D01*
X140150600Y-45660200D02*
X140150600Y-43566700D01*
X140150600Y-43566700D02*
X140268000Y-43449300D01*
X140268000Y-42649000D02*
X140268000Y-43449300D01*
X139382500Y-45550500D02*
X139382500Y-45862602D01*
X139506000Y-45427000D02*
X139382500Y-45550500D01*
X139506000Y-44727000D02*
X139506000Y-45427000D01*
X139382500Y-45862602D02*
X137931312Y-47313790D01*
X125037790Y-47313790D02*
X124460000Y-46736000D01*
X137931312Y-47313790D02*
X125037790Y-47313790D01*
X125395300Y-40132000D02*
X125674300Y-39853000D01*
X125674300Y-39853000D02*
X129076200Y-39853000D01*
X129076200Y-39853000D02*
X129298000Y-39631200D01*
X129298000Y-39631200D02*
X129298000Y-39409200D01*
X129298000Y-39409200D02*
X129496800Y-39210400D01*
X129496800Y-39210400D02*
X133136600Y-39210400D01*
X133136600Y-39210400D02*
X133192600Y-39154400D01*
X133192600Y-39154400D02*
X135276500Y-39154400D01*
X135276500Y-39154400D02*
X135823000Y-39700900D01*
X135823000Y-39700900D02*
X135823000Y-43562900D01*
X135823000Y-43562900D02*
X136340600Y-44080500D01*
X136340600Y-44080500D02*
X136340600Y-45390500D01*
X136340600Y-45390500D02*
X136477400Y-45527300D01*
X136477400Y-45527300D02*
X138236000Y-45527300D01*
X124460000Y-40132000D02*
X125395300Y-40132000D01*
X138236000Y-44727000D02*
X138236000Y-45527300D01*
X128397000Y-37948000D02*
X127596700Y-37948000D01*
X116534500Y-36576000D02*
X119027500Y-34083000D01*
X119027500Y-34083000D02*
X124822800Y-34083000D01*
X124822800Y-34083000D02*
X125762100Y-35022300D01*
X125762100Y-35022300D02*
X125762100Y-36113400D01*
X125762100Y-36113400D02*
X127596700Y-37948000D01*
X116348000Y-37465700D02*
X116534500Y-37279200D01*
X116534500Y-37279200D02*
X116534500Y-36576000D01*
X116348000Y-38166000D02*
X116348000Y-37465700D01*
X110744000Y-39878000D02*
X110718500Y-39903500D01*
X110718500Y-39903500D02*
X108966000Y-39903500D01*
D21*
X125450100Y-38704500D02*
X127033200Y-38704500D01*
X127033200Y-38704500D02*
X127546700Y-39218000D01*
X123444000Y-41136800D02*
X123444000Y-39726000D01*
X123444000Y-39726000D02*
X124465500Y-38704500D01*
X124465500Y-38704500D02*
X125450100Y-38704500D01*
X125450100Y-38704500D02*
X125450100Y-36790000D01*
X125450100Y-36790000D02*
X124697400Y-36037300D01*
X124697400Y-36037300D02*
X124460000Y-36037300D01*
X123444000Y-41136800D02*
X116668500Y-41136800D01*
X116668500Y-41136800D02*
X116348000Y-40816300D01*
X127546700Y-41758000D02*
X126925500Y-41136800D01*
X126925500Y-41136800D02*
X123444000Y-41136800D01*
X124460000Y-35052000D02*
X124460000Y-36037300D01*
X116348000Y-40066000D02*
X116348000Y-40816300D01*
X128397000Y-39218000D02*
X127546700Y-39218000D01*
X128397000Y-41758000D02*
X127546700Y-41758000D01*
X107620500Y-33936000D02*
X106535500Y-33936000D01*
X106535500Y-33936000D02*
X106137600Y-34333900D01*
X106137600Y-34333900D02*
X106137600Y-34964400D01*
X106137600Y-34964400D02*
X105495700Y-35606300D01*
X105495700Y-35606300D02*
X103442300Y-35606300D01*
X103442300Y-35606300D02*
X102700000Y-34864000D01*
D22*
X104818000Y-36764000D02*
X103987700Y-36764000D01*
X104647500Y-38862000D02*
X103987700Y-38202200D01*
X103987700Y-38202200D02*
X103987700Y-36764000D01*
X109916500Y-36576000D02*
X109916500Y-38730300D01*
X109916500Y-38730300D02*
X110276700Y-39090500D01*
X110276700Y-39090500D02*
X111189800Y-39090500D01*
X111189800Y-39090500D02*
X111520200Y-38760100D01*
X111520200Y-38760100D02*
X111520200Y-38084500D01*
X111520200Y-38084500D02*
X116445800Y-33158900D01*
X116445800Y-33158900D02*
X128739500Y-33158900D01*
X128739500Y-33158900D02*
X129307700Y-33727100D01*
X129307700Y-33727100D02*
X129307700Y-38585000D01*
X109916500Y-36576000D02*
X110744000Y-36576000D01*
X108966000Y-36576000D02*
X109916500Y-36576000D01*
X130108000Y-38585000D02*
X129307700Y-38585000D01*
X102234500Y-40894000D02*
X100635000Y-40894000D01*
X107018000Y-36764000D02*
X106187700Y-36764000D01*
X103809500Y-40894000D02*
X103891100Y-40894000D01*
X103891100Y-40894000D02*
X106187700Y-38597400D01*
X106187700Y-38597400D02*
X106187700Y-36764000D01*
X99613100Y-34864000D02*
X100500000Y-34864000D01*
X98790000Y-34864000D02*
X99613100Y-34864000D01*
X99613100Y-34864000D02*
X99613100Y-36292200D01*
X99613100Y-36292200D02*
X100084900Y-36764000D01*
X100795000Y-38735000D02*
X100795000Y-38134700D01*
X100084900Y-36764000D02*
X100084900Y-37424600D01*
X100084900Y-37424600D02*
X100795000Y-38134700D01*
X100500000Y-36764000D02*
X100084900Y-36764000D01*
M02*
