G04 #@! TF.GenerationSoftware,KiCad,Pcbnew,(5.1.5-0-10_14)*
G04 #@! TF.CreationDate,2020-11-04T07:04:41-07:00*
G04 #@! TF.ProjectId,NumDisciplineBLE,4e756d44-6973-4636-9970-6c696e65424c,rev?*
G04 #@! TF.SameCoordinates,Original*
G04 #@! TF.FileFunction,Paste,Bot*
G04 #@! TF.FilePolarity,Positive*
%FSLAX46Y46*%
G04 Gerber Fmt 4.6, Leading zero omitted, Abs format (unit mm)*
G04 Created by KiCad (PCBNEW (5.1.5-0-10_14)) date 2020-11-04 07:04:41*
%MOMM*%
%LPD*%
G04 APERTURE LIST*
%ADD10R,1.000000X1.900000*%
G04 APERTURE END LIST*
D10*
X133350000Y-29465000D03*
X138430000Y-29465000D03*
X95250000Y-32765000D03*
X100330000Y-32765000D03*
X105410000Y-32765000D03*
X110490000Y-32765000D03*
X115570000Y-32765000D03*
X120650000Y-32765000D03*
X125730000Y-32765000D03*
X130810000Y-32765000D03*
X135890000Y-32765000D03*
X140970000Y-32765000D03*
X97790000Y-29465000D03*
X102870000Y-29465000D03*
X107950000Y-29465000D03*
X113030000Y-29465000D03*
X118110000Y-29465000D03*
X123190000Y-29465000D03*
X128270000Y-29465000D03*
X143510000Y-29465000D03*
X143637000Y-44832000D03*
X138557000Y-44832000D03*
X133477000Y-44832000D03*
X128397000Y-44832000D03*
X123317000Y-44832000D03*
X118237000Y-44832000D03*
X113157000Y-44832000D03*
X108077000Y-44832000D03*
X102997000Y-44832000D03*
X97917000Y-44832000D03*
X141097000Y-48132000D03*
X136017000Y-48132000D03*
X130937000Y-48132000D03*
X125857000Y-48132000D03*
X120777000Y-48132000D03*
X115697000Y-48132000D03*
X110617000Y-48132000D03*
X105537000Y-48132000D03*
X100457000Y-48132000D03*
X95377000Y-48132000D03*
M02*
