G04 #@! TF.GenerationSoftware,KiCad,Pcbnew,(5.1.5-0-10_14)*
G04 #@! TF.CreationDate,2020-11-04T07:04:41-07:00*
G04 #@! TF.ProjectId,NumDisciplineBLE,4e756d44-6973-4636-9970-6c696e65424c,rev?*
G04 #@! TF.SameCoordinates,Original*
G04 #@! TF.FileFunction,Copper,L2,Bot*
G04 #@! TF.FilePolarity,Positive*
%FSLAX46Y46*%
G04 Gerber Fmt 4.6, Leading zero omitted, Abs format (unit mm)*
G04 Created by KiCad (PCBNEW (5.1.5-0-10_14)) date 2020-11-04 07:04:41*
%MOMM*%
%LPD*%
G04 APERTURE LIST*
%ADD10R,1.000000X1.900000*%
%ADD11C,1.270000*%
%ADD12R,1.270000X1.270000*%
%ADD13O,1.270000X1.270000*%
%ADD14R,1.000000X0.650000*%
%ADD15R,0.650000X1.000000*%
%ADD16C,0.600000*%
%ADD17C,0.200000*%
%ADD18C,0.300000*%
%ADD19C,0.254000*%
G04 APERTURE END LIST*
D10*
X133350000Y-29465000D03*
X138430000Y-29465000D03*
X95250000Y-32765000D03*
X100330000Y-32765000D03*
X105410000Y-32765000D03*
X110490000Y-32765000D03*
X115570000Y-32765000D03*
X120650000Y-32765000D03*
X125730000Y-32765000D03*
X130810000Y-32765000D03*
X135890000Y-32765000D03*
X140970000Y-32765000D03*
X97790000Y-29465000D03*
X102870000Y-29465000D03*
X107950000Y-29465000D03*
X113030000Y-29465000D03*
X118110000Y-29465000D03*
X123190000Y-29465000D03*
X128270000Y-29465000D03*
X143510000Y-29465000D03*
X143637000Y-44832000D03*
X138557000Y-44832000D03*
X133477000Y-44832000D03*
X128397000Y-44832000D03*
X123317000Y-44832000D03*
X118237000Y-44832000D03*
X113157000Y-44832000D03*
X108077000Y-44832000D03*
X102997000Y-44832000D03*
X97917000Y-44832000D03*
X141097000Y-48132000D03*
X136017000Y-48132000D03*
X130937000Y-48132000D03*
X125857000Y-48132000D03*
X120777000Y-48132000D03*
X115697000Y-48132000D03*
X110617000Y-48132000D03*
X105537000Y-48132000D03*
X100457000Y-48132000D03*
X95377000Y-48132000D03*
D11*
X94488000Y-35560000D03*
D12*
X94488000Y-41910000D03*
D13*
X124460000Y-42672000D03*
X124460000Y-40132000D03*
D12*
X124460000Y-37592000D03*
D13*
X124460000Y-35052000D03*
D12*
X122428000Y-35052000D03*
D13*
X122428000Y-37592000D03*
X122428000Y-40132000D03*
X122428000Y-42672000D03*
D14*
X130108000Y-38585000D03*
X130108000Y-42395000D03*
X130108000Y-41125000D03*
X130108000Y-37315000D03*
X130108000Y-39855000D03*
X130108000Y-34775000D03*
X130108000Y-36045000D03*
D15*
X141538000Y-42649000D03*
X140268000Y-42649000D03*
X138998000Y-42649000D03*
X137728000Y-42649000D03*
X136458000Y-42649000D03*
X135188000Y-42649000D03*
X133918000Y-42649000D03*
X132648000Y-42649000D03*
D16*
X99695000Y-29083000D03*
X137668000Y-46355000D03*
X143891000Y-48768000D03*
X131953000Y-41402000D03*
X111721800Y-35113600D03*
X108103100Y-37465500D03*
X112522000Y-40869700D03*
X118110000Y-37564800D03*
X136882400Y-31457100D03*
X103072500Y-37852000D03*
X121412000Y-36576000D03*
X119380000Y-36576000D03*
X102870000Y-48641000D03*
X135890000Y-46355000D03*
X101219000Y-30734000D03*
X116713000Y-29083000D03*
X131191000Y-28702000D03*
X113792000Y-32385000D03*
X120015000Y-44577000D03*
X129775700Y-31884700D03*
X133761000Y-33549100D03*
X133053600Y-34540800D03*
X135890000Y-34224800D03*
X109356300Y-44160500D03*
X111137100Y-44353800D03*
X134484700Y-45798700D03*
X131381500Y-46164500D03*
X129030700Y-31476000D03*
X142001300Y-30973700D03*
X114660500Y-42963600D03*
X135018500Y-39763500D03*
X121274500Y-45140900D03*
X117857300Y-32063600D03*
X124460000Y-31496000D03*
X139954000Y-36576000D03*
X105745700Y-44053600D03*
X102997000Y-43352900D03*
X124460000Y-46736000D03*
X107620500Y-33936000D03*
D17*
X118110000Y-29465000D02*
X117095000Y-29465000D01*
X117095000Y-29465000D02*
X116713000Y-29083000D01*
X120015000Y-44577000D02*
X120015000Y-45656500D01*
X117539500Y-48132000D02*
X115697000Y-48132000D01*
X120015000Y-45656500D02*
X117539500Y-48132000D01*
X129775700Y-31884700D02*
X130145700Y-31514700D01*
X130145700Y-31514700D02*
X130810000Y-31514700D01*
X130810000Y-32765000D02*
X130810000Y-31514700D01*
X133350000Y-29465000D02*
X133350000Y-33138100D01*
X133350000Y-33138100D02*
X133761000Y-33549100D01*
X138430000Y-30715300D02*
X136052500Y-30715300D01*
X136052500Y-30715300D02*
X135089600Y-31678200D01*
X135089600Y-31678200D02*
X135089600Y-33101500D01*
X135089600Y-33101500D02*
X133650300Y-34540800D01*
X133650300Y-34540800D02*
X133053600Y-34540800D01*
X138430000Y-29465000D02*
X138430000Y-30715300D01*
X135890000Y-34224800D02*
X135890000Y-32765000D01*
X102870000Y-29465000D02*
X102870000Y-30715300D01*
X109356300Y-44160500D02*
X104609600Y-39413800D01*
X104609600Y-39413800D02*
X104609600Y-32454900D01*
X104609600Y-32454900D02*
X102870000Y-30715300D01*
X111137100Y-44353800D02*
X105410000Y-38626700D01*
X105410000Y-38626700D02*
X105410000Y-32765000D01*
D18*
X120650000Y-42672000D02*
X119096700Y-42672000D01*
X119096700Y-42672000D02*
X118237000Y-43531700D01*
X122428000Y-42672000D02*
X120650000Y-42672000D01*
X120650000Y-42672000D02*
X120650000Y-32765000D01*
X118237000Y-44832000D02*
X118237000Y-43531700D01*
D17*
X134484700Y-45798700D02*
X134443700Y-45798700D01*
X134443700Y-45798700D02*
X133477000Y-44832000D01*
X121100010Y-38919990D02*
X121100010Y-40857810D01*
X124198687Y-41336989D02*
X125074490Y-41336989D01*
X123363001Y-39683199D02*
X123363001Y-40501303D01*
X121492999Y-39683199D02*
X121979199Y-39196999D01*
X121979199Y-39196999D02*
X122876801Y-39196999D01*
X123363001Y-40501303D02*
X124198687Y-41336989D01*
X122876801Y-39196999D02*
X123363001Y-39683199D01*
X121492999Y-41250799D02*
X121492999Y-39683199D01*
X121100010Y-40857810D02*
X121492999Y-41250799D01*
X122428000Y-37592000D02*
X121100010Y-38919990D01*
X129116002Y-43561000D02*
X127508000Y-43561000D01*
X130387002Y-44832000D02*
X129116002Y-43561000D01*
X133477000Y-44832000D02*
X130387002Y-44832000D01*
X125074490Y-41336989D02*
X127508000Y-43561000D01*
X124908801Y-41736999D02*
X127127000Y-43942000D01*
X124032999Y-41736999D02*
X124908801Y-41736999D01*
X127127000Y-43942000D02*
X127127000Y-45552002D01*
X122428000Y-40132000D02*
X124032999Y-41736999D01*
X136017000Y-48132000D02*
X134365000Y-48132000D01*
X133709764Y-48132000D02*
X136017000Y-48132000D01*
X131805764Y-46228000D02*
X133709764Y-48132000D01*
X127762000Y-46228000D02*
X131805764Y-46228000D01*
X127762000Y-46228000D02*
X127381000Y-45847000D01*
X127381000Y-45847000D02*
X127508000Y-45974000D01*
X127127000Y-45552002D02*
X127381000Y-45847000D01*
X128270000Y-30715300D02*
X129030700Y-31476000D01*
X128270000Y-29465000D02*
X128270000Y-30715300D01*
X143510000Y-29465000D02*
X143510000Y-30715300D01*
X142001300Y-30973700D02*
X142259700Y-30715300D01*
X142259700Y-30715300D02*
X143510000Y-30715300D01*
X135188000Y-42649000D02*
X135188000Y-41848700D01*
X135188000Y-41848700D02*
X131298900Y-37959600D01*
X131298900Y-37959600D02*
X128969300Y-37959600D01*
X121774101Y-30715101D02*
X121793000Y-30734000D01*
X121793000Y-30734000D02*
X121725000Y-30715300D01*
X128969300Y-37959600D02*
X121793000Y-30734000D01*
X113950001Y-29244999D02*
X115731999Y-29244999D01*
X115731999Y-29244999D02*
X117221000Y-30734000D01*
X113730000Y-29465000D02*
X113950001Y-29244999D01*
X113030000Y-29465000D02*
X113730000Y-29465000D01*
X117221000Y-30734000D02*
X121774101Y-30715101D01*
X114660500Y-42963600D02*
X114660500Y-41976500D01*
X114660500Y-41976500D02*
X106973900Y-34289900D01*
X106973900Y-33731900D02*
X107940800Y-32765000D01*
X107940800Y-32765000D02*
X110490000Y-32765000D01*
X106973900Y-34289900D02*
X106973900Y-33731900D01*
X140970000Y-34015300D02*
X139982000Y-34015300D01*
X139982000Y-34015300D02*
X135018500Y-38978800D01*
X135018500Y-38978800D02*
X135018500Y-39763500D01*
X140970000Y-32765000D02*
X140970000Y-34015300D01*
X117033399Y-49382001D02*
X121274500Y-45140900D01*
X107487001Y-49382001D02*
X117033399Y-49382001D01*
X106237000Y-48132000D02*
X107487001Y-49382001D01*
X105537000Y-48132000D02*
X106237000Y-48132000D01*
X95377000Y-46881700D02*
X95459400Y-46799300D01*
X95459400Y-46799300D02*
X95459400Y-34880600D01*
X95459400Y-34880600D02*
X94396300Y-33817500D01*
X94396300Y-33817500D02*
X94396300Y-30920800D01*
X94396300Y-30920800D02*
X97924100Y-27393000D01*
X97924100Y-27393000D02*
X128124000Y-27393000D01*
X128124000Y-27393000D02*
X132108300Y-31377300D01*
X132108300Y-31377300D02*
X132108300Y-37702200D01*
X132108300Y-37702200D02*
X136254800Y-41848700D01*
X136254800Y-41848700D02*
X136458000Y-41848700D01*
X95377000Y-48132000D02*
X95377000Y-46881700D01*
X136458000Y-42649000D02*
X136458000Y-41848700D01*
X116909010Y-31115310D02*
X116586310Y-31115310D01*
X111487001Y-30715001D02*
X110237000Y-29465000D01*
X116186001Y-30715001D02*
X111487001Y-30715001D01*
X110237000Y-29465000D02*
X107950000Y-29465000D01*
X116586310Y-31115310D02*
X116186001Y-30715001D01*
X117857300Y-32063600D02*
X116909010Y-31115310D01*
X124461000Y-31496000D02*
X125730000Y-32765000D01*
X124460000Y-31496000D02*
X124461000Y-31496000D01*
X142408000Y-43603000D02*
X143637000Y-44832000D01*
X142408000Y-38605736D02*
X142408000Y-39030000D01*
X140378264Y-36576000D02*
X142408000Y-38605736D01*
X139954000Y-36576000D02*
X140378264Y-36576000D01*
X142408000Y-39030000D02*
X142408000Y-43603000D01*
X142408000Y-38923100D02*
X142408000Y-39030000D01*
X105745700Y-44053600D02*
X100330000Y-38637900D01*
X100330000Y-38637900D02*
X100330000Y-32765000D01*
X102997000Y-43352900D02*
X102997000Y-44832000D01*
X124460000Y-46736000D02*
X124460000Y-42672000D01*
X137728000Y-42649000D02*
X137728000Y-41848700D01*
X137728000Y-41848700D02*
X139486600Y-41848700D01*
X139486600Y-41848700D02*
X139642600Y-42004700D01*
X139642600Y-42004700D02*
X139642600Y-43321500D01*
X139642600Y-43321500D02*
X142347700Y-46026600D01*
X142347700Y-46026600D02*
X142347700Y-49323500D01*
X97917000Y-47470700D02*
X97917000Y-44832000D01*
X100653000Y-50206700D02*
X97917000Y-47470700D01*
X142347700Y-49323500D02*
X141464500Y-50206700D01*
X141464500Y-50305500D02*
X141345010Y-50424990D01*
X141464500Y-50206700D02*
X141464500Y-50305500D01*
X100843990Y-50424990D02*
X100584000Y-50165000D01*
X141345010Y-50424990D02*
X100843990Y-50424990D01*
X100584000Y-50165000D02*
X100653000Y-50206700D01*
X141897400Y-46245700D02*
X139101000Y-43449300D01*
X101205980Y-50024980D02*
X141078820Y-50024980D01*
X139101000Y-43449300D02*
X138998000Y-43449300D01*
X141078820Y-50024980D02*
X141897400Y-49206400D01*
X138998000Y-43449300D02*
X138998000Y-42649000D01*
X141897400Y-49206400D02*
X141897400Y-46245700D01*
X100563300Y-49382300D02*
X101205980Y-50024980D01*
X100457000Y-49382300D02*
X100563300Y-49382300D01*
X100457000Y-48132000D02*
X100457000Y-49382300D01*
X138557000Y-44832000D02*
X138557000Y-43581700D01*
X130108000Y-39855000D02*
X132394000Y-39855000D01*
X132394000Y-39855000D02*
X134543400Y-42004400D01*
X134543400Y-42004400D02*
X134543400Y-43260600D01*
X134543400Y-43260600D02*
X134864500Y-43581700D01*
X134864500Y-43581700D02*
X138557000Y-43581700D01*
X130108000Y-41125000D02*
X130908300Y-41125000D01*
X130908300Y-41125000D02*
X130908300Y-42177800D01*
X130908300Y-42177800D02*
X132291400Y-43560900D01*
X132291400Y-43560900D02*
X134277400Y-43560900D01*
X134277400Y-43852402D02*
X134277400Y-43560900D01*
X138556998Y-48132000D02*
X134277400Y-43852402D01*
X141097000Y-48132000D02*
X138556998Y-48132000D01*
D18*
X124460000Y-35052000D02*
X124460000Y-34623300D01*
X124460000Y-34623300D02*
X121275100Y-31438400D01*
X121275100Y-31438400D02*
X119896598Y-31438400D01*
X118698401Y-34463599D02*
X119507000Y-33655000D01*
X119507000Y-31827998D02*
X119896598Y-31438400D01*
X119507000Y-33655000D02*
X119507000Y-31827998D01*
X109474000Y-34417000D02*
X118698401Y-34463599D01*
X108993000Y-33936000D02*
X109474000Y-34417000D01*
X107620500Y-33936000D02*
X108993000Y-33936000D01*
D17*
X97790000Y-29465000D02*
X97790000Y-28214700D01*
X130108000Y-36045000D02*
X130908300Y-36045000D01*
X130908300Y-36045000D02*
X130908300Y-34315300D01*
X130908300Y-34315300D02*
X130742600Y-34149600D01*
X130742600Y-34149600D02*
X130317600Y-34149600D01*
X130317600Y-34149600D02*
X130000500Y-33832500D01*
X130000500Y-33832500D02*
X130000500Y-33336700D01*
X130000500Y-33336700D02*
X124467100Y-27803300D01*
X124467100Y-27803300D02*
X98201400Y-27803300D01*
X98201400Y-27803300D02*
X97790000Y-28214700D01*
X129307700Y-37315000D02*
X130108000Y-37315000D01*
X129307700Y-33210200D02*
X129307700Y-37315000D01*
X124312200Y-28214700D02*
X129307700Y-33210200D01*
X102030300Y-28214700D02*
X124312200Y-28214700D01*
X95951000Y-32766000D02*
X97479000Y-32766000D01*
X95250000Y-32765000D02*
X95950000Y-32765000D01*
X95950000Y-32765000D02*
X95951000Y-32766000D01*
X97479000Y-32766000D02*
X102030300Y-28214700D01*
D19*
G36*
X140909430Y-43274743D02*
G01*
X140939794Y-43331550D01*
X140980657Y-43381343D01*
X141030450Y-43422206D01*
X141087257Y-43452570D01*
X141148897Y-43471268D01*
X141213000Y-43477582D01*
X141863000Y-43477582D01*
X141927103Y-43471268D01*
X141981001Y-43454918D01*
X141981001Y-43582023D01*
X141978935Y-43603000D01*
X141981001Y-43623977D01*
X141981001Y-43623978D01*
X141987179Y-43686707D01*
X142006551Y-43750566D01*
X142011596Y-43767196D01*
X142051245Y-43841376D01*
X142091232Y-43890100D01*
X142091237Y-43890105D01*
X142104606Y-43906395D01*
X142120895Y-43919763D01*
X142808418Y-44607287D01*
X142808418Y-45782000D01*
X142814732Y-45846103D01*
X142833430Y-45907743D01*
X142863794Y-45964550D01*
X142904657Y-46014343D01*
X142954450Y-46055206D01*
X143011257Y-46085570D01*
X143072897Y-46104268D01*
X143137000Y-46110582D01*
X144137000Y-46110582D01*
X144201103Y-46104268D01*
X144262743Y-46085570D01*
X144319550Y-46055206D01*
X144369343Y-46014343D01*
X144410206Y-45964550D01*
X144440570Y-45907743D01*
X144459268Y-45846103D01*
X144465582Y-45782000D01*
X144465582Y-43882000D01*
X144459268Y-43817897D01*
X144440570Y-43756257D01*
X144410206Y-43699450D01*
X144369343Y-43649657D01*
X144319550Y-43608794D01*
X144262743Y-43578430D01*
X144205283Y-43561000D01*
X145648001Y-43561000D01*
X145648001Y-50145326D01*
X145641671Y-50209887D01*
X145628639Y-50253052D01*
X145607464Y-50292875D01*
X145578961Y-50327822D01*
X145544214Y-50356567D01*
X145504544Y-50378017D01*
X145461465Y-50391352D01*
X145398217Y-50398000D01*
X141882654Y-50398000D01*
X141885087Y-50389981D01*
X142634805Y-49640264D01*
X142651095Y-49626895D01*
X142664464Y-49610605D01*
X142664467Y-49610602D01*
X142704455Y-49561877D01*
X142744104Y-49487697D01*
X142744105Y-49487696D01*
X142768522Y-49407207D01*
X142774700Y-49344478D01*
X142774700Y-49344466D01*
X142776765Y-49323501D01*
X142774700Y-49302536D01*
X142774700Y-46047566D01*
X142776765Y-46026599D01*
X142774700Y-46005632D01*
X142774700Y-46005622D01*
X142768522Y-45942893D01*
X142744105Y-45862404D01*
X142721812Y-45820696D01*
X142704455Y-45788223D01*
X142664468Y-45739499D01*
X142664464Y-45739495D01*
X142651095Y-45723205D01*
X142634806Y-45709837D01*
X140402550Y-43477582D01*
X140593000Y-43477582D01*
X140657103Y-43471268D01*
X140718743Y-43452570D01*
X140775550Y-43422206D01*
X140825343Y-43381343D01*
X140866206Y-43331550D01*
X140896570Y-43274743D01*
X140903000Y-43253546D01*
X140909430Y-43274743D01*
G37*
X140909430Y-43274743D02*
X140939794Y-43331550D01*
X140980657Y-43381343D01*
X141030450Y-43422206D01*
X141087257Y-43452570D01*
X141148897Y-43471268D01*
X141213000Y-43477582D01*
X141863000Y-43477582D01*
X141927103Y-43471268D01*
X141981001Y-43454918D01*
X141981001Y-43582023D01*
X141978935Y-43603000D01*
X141981001Y-43623977D01*
X141981001Y-43623978D01*
X141987179Y-43686707D01*
X142006551Y-43750566D01*
X142011596Y-43767196D01*
X142051245Y-43841376D01*
X142091232Y-43890100D01*
X142091237Y-43890105D01*
X142104606Y-43906395D01*
X142120895Y-43919763D01*
X142808418Y-44607287D01*
X142808418Y-45782000D01*
X142814732Y-45846103D01*
X142833430Y-45907743D01*
X142863794Y-45964550D01*
X142904657Y-46014343D01*
X142954450Y-46055206D01*
X143011257Y-46085570D01*
X143072897Y-46104268D01*
X143137000Y-46110582D01*
X144137000Y-46110582D01*
X144201103Y-46104268D01*
X144262743Y-46085570D01*
X144319550Y-46055206D01*
X144369343Y-46014343D01*
X144410206Y-45964550D01*
X144440570Y-45907743D01*
X144459268Y-45846103D01*
X144465582Y-45782000D01*
X144465582Y-43882000D01*
X144459268Y-43817897D01*
X144440570Y-43756257D01*
X144410206Y-43699450D01*
X144369343Y-43649657D01*
X144319550Y-43608794D01*
X144262743Y-43578430D01*
X144205283Y-43561000D01*
X145648001Y-43561000D01*
X145648001Y-50145326D01*
X145641671Y-50209887D01*
X145628639Y-50253052D01*
X145607464Y-50292875D01*
X145578961Y-50327822D01*
X145544214Y-50356567D01*
X145504544Y-50378017D01*
X145461465Y-50391352D01*
X145398217Y-50398000D01*
X141882654Y-50398000D01*
X141885087Y-50389981D01*
X142634805Y-49640264D01*
X142651095Y-49626895D01*
X142664464Y-49610605D01*
X142664467Y-49610602D01*
X142704455Y-49561877D01*
X142744104Y-49487697D01*
X142744105Y-49487696D01*
X142768522Y-49407207D01*
X142774700Y-49344478D01*
X142774700Y-49344466D01*
X142776765Y-49323501D01*
X142774700Y-49302536D01*
X142774700Y-46047566D01*
X142776765Y-46026599D01*
X142774700Y-46005632D01*
X142774700Y-46005622D01*
X142768522Y-45942893D01*
X142744105Y-45862404D01*
X142721812Y-45820696D01*
X142704455Y-45788223D01*
X142664468Y-45739499D01*
X142664464Y-45739495D01*
X142651095Y-45723205D01*
X142634806Y-45709837D01*
X140402550Y-43477582D01*
X140593000Y-43477582D01*
X140657103Y-43471268D01*
X140718743Y-43452570D01*
X140775550Y-43422206D01*
X140825343Y-43381343D01*
X140866206Y-43331550D01*
X140896570Y-43274743D01*
X140903000Y-43253546D01*
X140909430Y-43274743D01*
G36*
X97636999Y-27076232D02*
G01*
X97636995Y-27076236D01*
X97620705Y-27089605D01*
X97607336Y-27105895D01*
X94109196Y-30604036D01*
X94092906Y-30617405D01*
X94079537Y-30633695D01*
X94079532Y-30633700D01*
X94039545Y-30682424D01*
X94010760Y-30736278D01*
X93999896Y-30756604D01*
X93975479Y-30837093D01*
X93971303Y-30879496D01*
X93967235Y-30920800D01*
X93969301Y-30941777D01*
X93969300Y-33796533D01*
X93967235Y-33817500D01*
X93969300Y-33838467D01*
X93969300Y-33838477D01*
X93975478Y-33901206D01*
X93999895Y-33981695D01*
X94006430Y-33993921D01*
X94039545Y-34055876D01*
X94074942Y-34099007D01*
X94092905Y-34120895D01*
X94109200Y-34134268D01*
X94572932Y-34598000D01*
X94393251Y-34598000D01*
X94207395Y-34634969D01*
X94032322Y-34707486D01*
X93874761Y-34812766D01*
X93740766Y-34946761D01*
X93635486Y-35104322D01*
X93562969Y-35279395D01*
X93526000Y-35465251D01*
X93526000Y-35654749D01*
X93562969Y-35840605D01*
X93635486Y-36015678D01*
X93740766Y-36173239D01*
X93874761Y-36307234D01*
X94032322Y-36412514D01*
X94207395Y-36485031D01*
X94393251Y-36522000D01*
X94582749Y-36522000D01*
X94768605Y-36485031D01*
X94943678Y-36412514D01*
X95032401Y-36353231D01*
X95032401Y-40637725D01*
X94773750Y-40640000D01*
X94615000Y-40798750D01*
X94615000Y-41783000D01*
X94635000Y-41783000D01*
X94635000Y-42037000D01*
X94615000Y-42037000D01*
X94615000Y-43021250D01*
X94773750Y-43180000D01*
X95032400Y-43182275D01*
X95032400Y-46628513D01*
X95020245Y-46643324D01*
X94981617Y-46715594D01*
X94980596Y-46717504D01*
X94956179Y-46797993D01*
X94953984Y-46820277D01*
X94950720Y-46853418D01*
X94877000Y-46853418D01*
X94812897Y-46859732D01*
X94751257Y-46878430D01*
X94694450Y-46908794D01*
X94644657Y-46949657D01*
X94603794Y-46999450D01*
X94573430Y-47056257D01*
X94554732Y-47117897D01*
X94548418Y-47182000D01*
X94548418Y-49082000D01*
X94554732Y-49146103D01*
X94573430Y-49207743D01*
X94603794Y-49264550D01*
X94644657Y-49314343D01*
X94694450Y-49355206D01*
X94751257Y-49385570D01*
X94812897Y-49404268D01*
X94877000Y-49410582D01*
X95877000Y-49410582D01*
X95941103Y-49404268D01*
X96002743Y-49385570D01*
X96059550Y-49355206D01*
X96109343Y-49314343D01*
X96150206Y-49264550D01*
X96180570Y-49207743D01*
X96199268Y-49146103D01*
X96205582Y-49082000D01*
X96205582Y-47182000D01*
X96199268Y-47117897D01*
X96180570Y-47056257D01*
X96150206Y-46999450D01*
X96109343Y-46949657D01*
X96059550Y-46908794D01*
X96002743Y-46878430D01*
X95941103Y-46859732D01*
X95883077Y-46854017D01*
X95886400Y-46820278D01*
X95886400Y-46820268D01*
X95888465Y-46799301D01*
X95886400Y-46778334D01*
X95886400Y-34901564D01*
X95888465Y-34880599D01*
X95886400Y-34859634D01*
X95886400Y-34859622D01*
X95880222Y-34796893D01*
X95855805Y-34716404D01*
X95819914Y-34649256D01*
X95816155Y-34642223D01*
X95776167Y-34593498D01*
X95776164Y-34593495D01*
X95762795Y-34577205D01*
X95746505Y-34563836D01*
X95226250Y-34043582D01*
X95750000Y-34043582D01*
X95814103Y-34037268D01*
X95875743Y-34018570D01*
X95932550Y-33988206D01*
X95982343Y-33947343D01*
X96023206Y-33897550D01*
X96053570Y-33840743D01*
X96072268Y-33779103D01*
X96078582Y-33715000D01*
X96078582Y-33193000D01*
X97458033Y-33193000D01*
X97479000Y-33195065D01*
X97499967Y-33193000D01*
X97499978Y-33193000D01*
X97562707Y-33186822D01*
X97643196Y-33162405D01*
X97717376Y-33122755D01*
X97782395Y-33069395D01*
X97795768Y-33053100D01*
X99033868Y-31815000D01*
X99501418Y-31815000D01*
X99501418Y-33715000D01*
X99507732Y-33779103D01*
X99526430Y-33840743D01*
X99556794Y-33897550D01*
X99597657Y-33947343D01*
X99647450Y-33988206D01*
X99704257Y-34018570D01*
X99765897Y-34037268D01*
X99830000Y-34043582D01*
X99903001Y-34043582D01*
X99903000Y-38616933D01*
X99900935Y-38637900D01*
X99903000Y-38658867D01*
X99903000Y-38658877D01*
X99909178Y-38721606D01*
X99933595Y-38802095D01*
X99933596Y-38802096D01*
X99973245Y-38876276D01*
X100011184Y-38922504D01*
X100026605Y-38941295D01*
X100042900Y-38954668D01*
X105118700Y-44030470D01*
X105118700Y-44115354D01*
X105142795Y-44236489D01*
X105190060Y-44350596D01*
X105258677Y-44453289D01*
X105346011Y-44540623D01*
X105448704Y-44609240D01*
X105562811Y-44656505D01*
X105683946Y-44680600D01*
X105807454Y-44680600D01*
X105928589Y-44656505D01*
X106042696Y-44609240D01*
X106145389Y-44540623D01*
X106232723Y-44453289D01*
X106301340Y-44350596D01*
X106348605Y-44236489D01*
X106372700Y-44115354D01*
X106372700Y-43991846D01*
X106348605Y-43870711D01*
X106301340Y-43756604D01*
X106232723Y-43653911D01*
X106145389Y-43566577D01*
X106042696Y-43497960D01*
X105928589Y-43450695D01*
X105807454Y-43426600D01*
X105722570Y-43426600D01*
X100757000Y-38461032D01*
X100757000Y-34043582D01*
X100830000Y-34043582D01*
X100894103Y-34037268D01*
X100955743Y-34018570D01*
X101012550Y-33988206D01*
X101062343Y-33947343D01*
X101103206Y-33897550D01*
X101133570Y-33840743D01*
X101152268Y-33779103D01*
X101158582Y-33715000D01*
X101158582Y-31815000D01*
X101152268Y-31750897D01*
X101133570Y-31689257D01*
X101103206Y-31632450D01*
X101062343Y-31582657D01*
X101012550Y-31541794D01*
X100955743Y-31511430D01*
X100894103Y-31492732D01*
X100830000Y-31486418D01*
X99830000Y-31486418D01*
X99765897Y-31492732D01*
X99704257Y-31511430D01*
X99647450Y-31541794D01*
X99597657Y-31582657D01*
X99556794Y-31632450D01*
X99526430Y-31689257D01*
X99507732Y-31750897D01*
X99501418Y-31815000D01*
X99033868Y-31815000D01*
X102041418Y-28807452D01*
X102041418Y-30415000D01*
X102047732Y-30479103D01*
X102066430Y-30540743D01*
X102096794Y-30597550D01*
X102137657Y-30647343D01*
X102187450Y-30688206D01*
X102244257Y-30718570D01*
X102305897Y-30737268D01*
X102370000Y-30743582D01*
X102443720Y-30743582D01*
X102449179Y-30799007D01*
X102472819Y-30876934D01*
X102473596Y-30879496D01*
X102513245Y-30953676D01*
X102553232Y-31002400D01*
X102553237Y-31002405D01*
X102566606Y-31018695D01*
X102582896Y-31032064D01*
X104182601Y-32631770D01*
X104182600Y-39392833D01*
X104180535Y-39413800D01*
X104182600Y-39434767D01*
X104182600Y-39434777D01*
X104188778Y-39497506D01*
X104213195Y-39577995D01*
X104224686Y-39599493D01*
X104252845Y-39652176D01*
X104292832Y-39700900D01*
X104306205Y-39717195D01*
X104322500Y-39730568D01*
X108145349Y-43553418D01*
X107577000Y-43553418D01*
X107512897Y-43559732D01*
X107451257Y-43578430D01*
X107394450Y-43608794D01*
X107344657Y-43649657D01*
X107303794Y-43699450D01*
X107273430Y-43756257D01*
X107254732Y-43817897D01*
X107248418Y-43882000D01*
X107248418Y-45782000D01*
X107254732Y-45846103D01*
X107273430Y-45907743D01*
X107303794Y-45964550D01*
X107344657Y-46014343D01*
X107394450Y-46055206D01*
X107451257Y-46085570D01*
X107512897Y-46104268D01*
X107577000Y-46110582D01*
X108577000Y-46110582D01*
X108641103Y-46104268D01*
X108702743Y-46085570D01*
X108759550Y-46055206D01*
X108809343Y-46014343D01*
X108850206Y-45964550D01*
X108880570Y-45907743D01*
X108899268Y-45846103D01*
X108905582Y-45782000D01*
X108905582Y-44596494D01*
X108956611Y-44647523D01*
X109059304Y-44716140D01*
X109173411Y-44763405D01*
X109294546Y-44787500D01*
X109418054Y-44787500D01*
X109539189Y-44763405D01*
X109653296Y-44716140D01*
X109755989Y-44647523D01*
X109843323Y-44560189D01*
X109911940Y-44457496D01*
X109959205Y-44343389D01*
X109983300Y-44222254D01*
X109983300Y-44098746D01*
X109959205Y-43977611D01*
X109911940Y-43863504D01*
X109843323Y-43760811D01*
X109755989Y-43673477D01*
X109653296Y-43604860D01*
X109539189Y-43557595D01*
X109418054Y-43533500D01*
X109333169Y-43533500D01*
X105036600Y-39236932D01*
X105036600Y-38833935D01*
X105053245Y-38865076D01*
X105093232Y-38913800D01*
X105106605Y-38930095D01*
X105122900Y-38943468D01*
X110510100Y-44330669D01*
X110510100Y-44415554D01*
X110534195Y-44536689D01*
X110581460Y-44650796D01*
X110650077Y-44753489D01*
X110737411Y-44840823D01*
X110840104Y-44909440D01*
X110954211Y-44956705D01*
X111075346Y-44980800D01*
X111198854Y-44980800D01*
X111319989Y-44956705D01*
X111434096Y-44909440D01*
X111536789Y-44840823D01*
X111624123Y-44753489D01*
X111692740Y-44650796D01*
X111740005Y-44536689D01*
X111764100Y-44415554D01*
X111764100Y-44292046D01*
X111740005Y-44170911D01*
X111692740Y-44056804D01*
X111624123Y-43954111D01*
X111552012Y-43882000D01*
X112328418Y-43882000D01*
X112328418Y-45782000D01*
X112334732Y-45846103D01*
X112353430Y-45907743D01*
X112383794Y-45964550D01*
X112424657Y-46014343D01*
X112474450Y-46055206D01*
X112531257Y-46085570D01*
X112592897Y-46104268D01*
X112657000Y-46110582D01*
X113657000Y-46110582D01*
X113721103Y-46104268D01*
X113782743Y-46085570D01*
X113839550Y-46055206D01*
X113889343Y-46014343D01*
X113930206Y-45964550D01*
X113960570Y-45907743D01*
X113979268Y-45846103D01*
X113985582Y-45782000D01*
X113985582Y-43882000D01*
X113979268Y-43817897D01*
X113960570Y-43756257D01*
X113930206Y-43699450D01*
X113889343Y-43649657D01*
X113839550Y-43608794D01*
X113782743Y-43578430D01*
X113721103Y-43559732D01*
X113657000Y-43553418D01*
X112657000Y-43553418D01*
X112592897Y-43559732D01*
X112531257Y-43578430D01*
X112474450Y-43608794D01*
X112424657Y-43649657D01*
X112383794Y-43699450D01*
X112353430Y-43756257D01*
X112334732Y-43817897D01*
X112328418Y-43882000D01*
X111552012Y-43882000D01*
X111536789Y-43866777D01*
X111434096Y-43798160D01*
X111319989Y-43750895D01*
X111198854Y-43726800D01*
X111113969Y-43726800D01*
X105837000Y-38449832D01*
X105837000Y-34043582D01*
X105910000Y-34043582D01*
X105974103Y-34037268D01*
X106035743Y-34018570D01*
X106092550Y-33988206D01*
X106142343Y-33947343D01*
X106183206Y-33897550D01*
X106213570Y-33840743D01*
X106232268Y-33779103D01*
X106238582Y-33715000D01*
X106238582Y-31815000D01*
X106232268Y-31750897D01*
X106213570Y-31689257D01*
X106183206Y-31632450D01*
X106142343Y-31582657D01*
X106092550Y-31541794D01*
X106035743Y-31511430D01*
X105974103Y-31492732D01*
X105910000Y-31486418D01*
X104910000Y-31486418D01*
X104845897Y-31492732D01*
X104784257Y-31511430D01*
X104727450Y-31541794D01*
X104677657Y-31582657D01*
X104636794Y-31632450D01*
X104606430Y-31689257D01*
X104587732Y-31750897D01*
X104581418Y-31815000D01*
X104581418Y-31822849D01*
X103481468Y-30722900D01*
X103495743Y-30718570D01*
X103552550Y-30688206D01*
X103602343Y-30647343D01*
X103643206Y-30597550D01*
X103673570Y-30540743D01*
X103692268Y-30479103D01*
X103698582Y-30415000D01*
X103698582Y-28641700D01*
X107121418Y-28641700D01*
X107121418Y-30415000D01*
X107127732Y-30479103D01*
X107146430Y-30540743D01*
X107176794Y-30597550D01*
X107217657Y-30647343D01*
X107267450Y-30688206D01*
X107324257Y-30718570D01*
X107385897Y-30737268D01*
X107450000Y-30743582D01*
X108450000Y-30743582D01*
X108514103Y-30737268D01*
X108575743Y-30718570D01*
X108632550Y-30688206D01*
X108682343Y-30647343D01*
X108723206Y-30597550D01*
X108753570Y-30540743D01*
X108772268Y-30479103D01*
X108778582Y-30415000D01*
X108778582Y-29892000D01*
X110060132Y-29892000D01*
X111170242Y-31002112D01*
X111183606Y-31018396D01*
X111199890Y-31031760D01*
X111199899Y-31031769D01*
X111248624Y-31071756D01*
X111278454Y-31087700D01*
X111322805Y-31111406D01*
X111403294Y-31135823D01*
X111466023Y-31142001D01*
X111466035Y-31142001D01*
X111487000Y-31144066D01*
X111507965Y-31142001D01*
X116009133Y-31142001D01*
X116269546Y-31402415D01*
X116282915Y-31418705D01*
X116299205Y-31432074D01*
X116299208Y-31432077D01*
X116347933Y-31472065D01*
X116379761Y-31489077D01*
X116422114Y-31511715D01*
X116502603Y-31536132D01*
X116565332Y-31542310D01*
X116565344Y-31542310D01*
X116586309Y-31544375D01*
X116607274Y-31542310D01*
X116732142Y-31542310D01*
X117230300Y-32040469D01*
X117230300Y-32125354D01*
X117254395Y-32246489D01*
X117301660Y-32360596D01*
X117370277Y-32463289D01*
X117457611Y-32550623D01*
X117560304Y-32619240D01*
X117674411Y-32666505D01*
X117795546Y-32690600D01*
X117919054Y-32690600D01*
X118040189Y-32666505D01*
X118154296Y-32619240D01*
X118256989Y-32550623D01*
X118344323Y-32463289D01*
X118412940Y-32360596D01*
X118460205Y-32246489D01*
X118484300Y-32125354D01*
X118484300Y-32001846D01*
X118460205Y-31880711D01*
X118412940Y-31766604D01*
X118344323Y-31663911D01*
X118256989Y-31576577D01*
X118154296Y-31507960D01*
X118040189Y-31460695D01*
X117919054Y-31436600D01*
X117834169Y-31436600D01*
X117557176Y-31159608D01*
X119508911Y-31151507D01*
X119186271Y-31474148D01*
X119168080Y-31489077D01*
X119153151Y-31507268D01*
X119153148Y-31507271D01*
X119137206Y-31526697D01*
X119108472Y-31561709D01*
X119087631Y-31600700D01*
X119064178Y-31644576D01*
X119036903Y-31734491D01*
X119027694Y-31827998D01*
X119030001Y-31851423D01*
X119030000Y-33457420D01*
X118501820Y-33985600D01*
X116269467Y-33974323D01*
X116302343Y-33947343D01*
X116343206Y-33897550D01*
X116373570Y-33840743D01*
X116392268Y-33779103D01*
X116398582Y-33715000D01*
X116398582Y-31815000D01*
X116392268Y-31750897D01*
X116373570Y-31689257D01*
X116343206Y-31632450D01*
X116302343Y-31582657D01*
X116252550Y-31541794D01*
X116195743Y-31511430D01*
X116134103Y-31492732D01*
X116070000Y-31486418D01*
X115070000Y-31486418D01*
X115005897Y-31492732D01*
X114944257Y-31511430D01*
X114887450Y-31541794D01*
X114837657Y-31582657D01*
X114796794Y-31632450D01*
X114766430Y-31689257D01*
X114747732Y-31750897D01*
X114741418Y-31815000D01*
X114741418Y-33715000D01*
X114747732Y-33779103D01*
X114766430Y-33840743D01*
X114796794Y-33897550D01*
X114837657Y-33947343D01*
X114861868Y-33967212D01*
X111220547Y-33948817D01*
X111222343Y-33947343D01*
X111263206Y-33897550D01*
X111293570Y-33840743D01*
X111312268Y-33779103D01*
X111318582Y-33715000D01*
X111318582Y-31815000D01*
X111312268Y-31750897D01*
X111293570Y-31689257D01*
X111263206Y-31632450D01*
X111222343Y-31582657D01*
X111172550Y-31541794D01*
X111115743Y-31511430D01*
X111054103Y-31492732D01*
X110990000Y-31486418D01*
X109990000Y-31486418D01*
X109925897Y-31492732D01*
X109864257Y-31511430D01*
X109807450Y-31541794D01*
X109757657Y-31582657D01*
X109716794Y-31632450D01*
X109686430Y-31689257D01*
X109667732Y-31750897D01*
X109661418Y-31815000D01*
X109661418Y-32338000D01*
X107961766Y-32338000D01*
X107940799Y-32335935D01*
X107919832Y-32338000D01*
X107919822Y-32338000D01*
X107857093Y-32344178D01*
X107776604Y-32368595D01*
X107742073Y-32387052D01*
X107702423Y-32408245D01*
X107653699Y-32448232D01*
X107653695Y-32448236D01*
X107637405Y-32461605D01*
X107624036Y-32477895D01*
X106686795Y-33415137D01*
X106670506Y-33428505D01*
X106657137Y-33444795D01*
X106657132Y-33444800D01*
X106617145Y-33493524D01*
X106593655Y-33537472D01*
X106577496Y-33567704D01*
X106553079Y-33648193D01*
X106551098Y-33668304D01*
X106544835Y-33731900D01*
X106546901Y-33752877D01*
X106546900Y-34268932D01*
X106544835Y-34289900D01*
X106546900Y-34310867D01*
X106546900Y-34310877D01*
X106553078Y-34373606D01*
X106577495Y-34454095D01*
X106582349Y-34463176D01*
X106617145Y-34528276D01*
X106651733Y-34570421D01*
X106670505Y-34593295D01*
X106686800Y-34606668D01*
X114233501Y-42153370D01*
X114233500Y-42503888D01*
X114173477Y-42563911D01*
X114104860Y-42666604D01*
X114057595Y-42780711D01*
X114033500Y-42901846D01*
X114033500Y-43025354D01*
X114057595Y-43146489D01*
X114104860Y-43260596D01*
X114173477Y-43363289D01*
X114260811Y-43450623D01*
X114363504Y-43519240D01*
X114477611Y-43566505D01*
X114598746Y-43590600D01*
X114722254Y-43590600D01*
X114843389Y-43566505D01*
X114957496Y-43519240D01*
X115060189Y-43450623D01*
X115147523Y-43363289D01*
X115216140Y-43260596D01*
X115263405Y-43146489D01*
X115287500Y-43025354D01*
X115287500Y-42901846D01*
X115263405Y-42780711D01*
X115216140Y-42666604D01*
X115147523Y-42563911D01*
X115087500Y-42503888D01*
X115087500Y-41997467D01*
X115089565Y-41976500D01*
X115087500Y-41955533D01*
X115087500Y-41955522D01*
X115081322Y-41892793D01*
X115056905Y-41812304D01*
X115032328Y-41766324D01*
X115017255Y-41738123D01*
X114977268Y-41689399D01*
X114977264Y-41689395D01*
X114963895Y-41673105D01*
X114947605Y-41659736D01*
X107819924Y-34532056D01*
X107917496Y-34491640D01*
X108020189Y-34423023D01*
X108030212Y-34413000D01*
X108795421Y-34413000D01*
X109119300Y-34736880D01*
X109133372Y-34754204D01*
X109152409Y-34769989D01*
X109153272Y-34770852D01*
X109170639Y-34785105D01*
X109205702Y-34814178D01*
X109206767Y-34814754D01*
X109207711Y-34815529D01*
X109248255Y-34837200D01*
X109288343Y-34858889D01*
X109289500Y-34859246D01*
X109290577Y-34859822D01*
X109334543Y-34873159D01*
X109378119Y-34886618D01*
X109379325Y-34886743D01*
X109380492Y-34887097D01*
X109426072Y-34891586D01*
X109448168Y-34893875D01*
X109449378Y-34893881D01*
X109474000Y-34896306D01*
X109496219Y-34894118D01*
X118673783Y-34940480D01*
X118698401Y-34942905D01*
X118743900Y-34938424D01*
X118789533Y-34934162D01*
X118790697Y-34933815D01*
X118791908Y-34933696D01*
X118835797Y-34920383D01*
X118879584Y-34907341D01*
X118880656Y-34906775D01*
X118881823Y-34906421D01*
X118922160Y-34884860D01*
X118962673Y-34863468D01*
X118963621Y-34862698D01*
X118964689Y-34862127D01*
X119000058Y-34833101D01*
X119035605Y-34804227D01*
X119051396Y-34785183D01*
X119827729Y-34008851D01*
X119845921Y-33993921D01*
X119865618Y-33969921D01*
X119900902Y-33926927D01*
X119917657Y-33947343D01*
X119967450Y-33988206D01*
X120024257Y-34018570D01*
X120085897Y-34037268D01*
X120150000Y-34043582D01*
X120173001Y-34043582D01*
X120173000Y-42195000D01*
X119120114Y-42195000D01*
X119096699Y-42192694D01*
X119073284Y-42195000D01*
X119073277Y-42195000D01*
X119012038Y-42201032D01*
X119003191Y-42201903D01*
X118991482Y-42205455D01*
X118913277Y-42229178D01*
X118830411Y-42273471D01*
X118788587Y-42307795D01*
X118779510Y-42315245D01*
X118757779Y-42333079D01*
X118742849Y-42351271D01*
X117916271Y-43177850D01*
X117898080Y-43192779D01*
X117838472Y-43265411D01*
X117822871Y-43294599D01*
X117794178Y-43348278D01*
X117766903Y-43438193D01*
X117757694Y-43531700D01*
X117759833Y-43553418D01*
X117737000Y-43553418D01*
X117672897Y-43559732D01*
X117611257Y-43578430D01*
X117554450Y-43608794D01*
X117504657Y-43649657D01*
X117463794Y-43699450D01*
X117433430Y-43756257D01*
X117414732Y-43817897D01*
X117408418Y-43882000D01*
X117408418Y-45782000D01*
X117414732Y-45846103D01*
X117433430Y-45907743D01*
X117463794Y-45964550D01*
X117504657Y-46014343D01*
X117554450Y-46055206D01*
X117611257Y-46085570D01*
X117672897Y-46104268D01*
X117737000Y-46110582D01*
X118737000Y-46110582D01*
X118801103Y-46104268D01*
X118862743Y-46085570D01*
X118919550Y-46055206D01*
X118969343Y-46014343D01*
X119010206Y-45964550D01*
X119040570Y-45907743D01*
X119059268Y-45846103D01*
X119065582Y-45782000D01*
X119065582Y-43882000D01*
X119059268Y-43817897D01*
X119040570Y-43756257D01*
X119010206Y-43699450D01*
X118969343Y-43649657D01*
X118919550Y-43608794D01*
X118864116Y-43579164D01*
X119294280Y-43149000D01*
X120626577Y-43149000D01*
X120650000Y-43151307D01*
X120673422Y-43149000D01*
X121589733Y-43149000D01*
X121680766Y-43285239D01*
X121814761Y-43419234D01*
X121972322Y-43524514D01*
X122147395Y-43597031D01*
X122333251Y-43634000D01*
X122522749Y-43634000D01*
X122629645Y-43612737D01*
X122584657Y-43649657D01*
X122543794Y-43699450D01*
X122513430Y-43756257D01*
X122494732Y-43817897D01*
X122488418Y-43882000D01*
X122488418Y-45782000D01*
X122494732Y-45846103D01*
X122513430Y-45907743D01*
X122543794Y-45964550D01*
X122584657Y-46014343D01*
X122634450Y-46055206D01*
X122691257Y-46085570D01*
X122752897Y-46104268D01*
X122817000Y-46110582D01*
X123817000Y-46110582D01*
X123881103Y-46104268D01*
X123942743Y-46085570D01*
X123999550Y-46055206D01*
X124033000Y-46027755D01*
X124033000Y-46276288D01*
X123972977Y-46336311D01*
X123904360Y-46439004D01*
X123857095Y-46553111D01*
X123833000Y-46674246D01*
X123833000Y-46797754D01*
X123857095Y-46918889D01*
X123904360Y-47032996D01*
X123972977Y-47135689D01*
X124060311Y-47223023D01*
X124163004Y-47291640D01*
X124277111Y-47338905D01*
X124398246Y-47363000D01*
X124521754Y-47363000D01*
X124642889Y-47338905D01*
X124756996Y-47291640D01*
X124859689Y-47223023D01*
X124900712Y-47182000D01*
X125028418Y-47182000D01*
X125028418Y-49082000D01*
X125034732Y-49146103D01*
X125053430Y-49207743D01*
X125083794Y-49264550D01*
X125124657Y-49314343D01*
X125174450Y-49355206D01*
X125231257Y-49385570D01*
X125292897Y-49404268D01*
X125357000Y-49410582D01*
X126357000Y-49410582D01*
X126421103Y-49404268D01*
X126482743Y-49385570D01*
X126539550Y-49355206D01*
X126589343Y-49314343D01*
X126630206Y-49264550D01*
X126660570Y-49207743D01*
X126679268Y-49146103D01*
X126685582Y-49082000D01*
X126685582Y-47182000D01*
X130108418Y-47182000D01*
X130108418Y-49082000D01*
X130114732Y-49146103D01*
X130133430Y-49207743D01*
X130163794Y-49264550D01*
X130204657Y-49314343D01*
X130254450Y-49355206D01*
X130311257Y-49385570D01*
X130372897Y-49404268D01*
X130437000Y-49410582D01*
X131437000Y-49410582D01*
X131501103Y-49404268D01*
X131562743Y-49385570D01*
X131619550Y-49355206D01*
X131669343Y-49314343D01*
X131710206Y-49264550D01*
X131740570Y-49207743D01*
X131759268Y-49146103D01*
X131765582Y-49082000D01*
X131765582Y-47182000D01*
X131759268Y-47117897D01*
X131740570Y-47056257D01*
X131710206Y-46999450D01*
X131669343Y-46949657D01*
X131619550Y-46908794D01*
X131562743Y-46878430D01*
X131501103Y-46859732D01*
X131437000Y-46853418D01*
X130437000Y-46853418D01*
X130372897Y-46859732D01*
X130311257Y-46878430D01*
X130254450Y-46908794D01*
X130204657Y-46949657D01*
X130163794Y-46999450D01*
X130133430Y-47056257D01*
X130114732Y-47117897D01*
X130108418Y-47182000D01*
X126685582Y-47182000D01*
X126679268Y-47117897D01*
X126660570Y-47056257D01*
X126630206Y-46999450D01*
X126589343Y-46949657D01*
X126539550Y-46908794D01*
X126482743Y-46878430D01*
X126421103Y-46859732D01*
X126357000Y-46853418D01*
X125357000Y-46853418D01*
X125292897Y-46859732D01*
X125231257Y-46878430D01*
X125174450Y-46908794D01*
X125124657Y-46949657D01*
X125083794Y-46999450D01*
X125053430Y-47056257D01*
X125034732Y-47117897D01*
X125028418Y-47182000D01*
X124900712Y-47182000D01*
X124947023Y-47135689D01*
X125015640Y-47032996D01*
X125062905Y-46918889D01*
X125087000Y-46797754D01*
X125087000Y-46674246D01*
X125062905Y-46553111D01*
X125015640Y-46439004D01*
X124947023Y-46336311D01*
X124887000Y-46276288D01*
X124887000Y-43536393D01*
X124915678Y-43524514D01*
X125073239Y-43419234D01*
X125207234Y-43285239D01*
X125312514Y-43127678D01*
X125385031Y-42952605D01*
X125408304Y-42835605D01*
X126700000Y-44119616D01*
X126700001Y-45515040D01*
X126699127Y-45520050D01*
X126700001Y-45557036D01*
X126700001Y-45572980D01*
X126700497Y-45578013D01*
X126701114Y-45604137D01*
X126704609Y-45619766D01*
X126706179Y-45635709D01*
X126713767Y-45660723D01*
X126719469Y-45686222D01*
X126725947Y-45700872D01*
X126730596Y-45716198D01*
X126742909Y-45739235D01*
X126753483Y-45763148D01*
X126762700Y-45776260D01*
X126770246Y-45790378D01*
X126786818Y-45810571D01*
X126789731Y-45814715D01*
X126800146Y-45826812D01*
X126823606Y-45855397D01*
X126827536Y-45858623D01*
X127054130Y-46121790D01*
X127064232Y-46134100D01*
X127067805Y-46137673D01*
X127071107Y-46141508D01*
X127082649Y-46152517D01*
X127445240Y-46515110D01*
X127458605Y-46531395D01*
X127474889Y-46544759D01*
X127474898Y-46544768D01*
X127523623Y-46584755D01*
X127556740Y-46602456D01*
X127597804Y-46624405D01*
X127678293Y-46648822D01*
X127741022Y-46655000D01*
X127741034Y-46655000D01*
X127761999Y-46657065D01*
X127782964Y-46655000D01*
X130987015Y-46655000D01*
X131084504Y-46720140D01*
X131198611Y-46767405D01*
X131319746Y-46791500D01*
X131443254Y-46791500D01*
X131564389Y-46767405D01*
X131678496Y-46720140D01*
X131687812Y-46713916D01*
X133393000Y-48419105D01*
X133406369Y-48435395D01*
X133422659Y-48448764D01*
X133422663Y-48448768D01*
X133471387Y-48488756D01*
X133545567Y-48528405D01*
X133564301Y-48534088D01*
X133626057Y-48552822D01*
X133688786Y-48559000D01*
X133688797Y-48559000D01*
X133709764Y-48561065D01*
X133730731Y-48559000D01*
X135188418Y-48559000D01*
X135188418Y-49082000D01*
X135194732Y-49146103D01*
X135213430Y-49207743D01*
X135243794Y-49264550D01*
X135284657Y-49314343D01*
X135334450Y-49355206D01*
X135391257Y-49385570D01*
X135452897Y-49404268D01*
X135517000Y-49410582D01*
X136517000Y-49410582D01*
X136581103Y-49404268D01*
X136642743Y-49385570D01*
X136699550Y-49355206D01*
X136749343Y-49314343D01*
X136790206Y-49264550D01*
X136820570Y-49207743D01*
X136839268Y-49146103D01*
X136845582Y-49082000D01*
X136845582Y-47182000D01*
X136839268Y-47117897D01*
X136820570Y-47056257D01*
X136790206Y-46999450D01*
X136749343Y-46949657D01*
X136699550Y-46908794D01*
X136642743Y-46878430D01*
X136581103Y-46859732D01*
X136517000Y-46853418D01*
X135517000Y-46853418D01*
X135452897Y-46859732D01*
X135391257Y-46878430D01*
X135334450Y-46908794D01*
X135284657Y-46949657D01*
X135243794Y-46999450D01*
X135213430Y-47056257D01*
X135194732Y-47117897D01*
X135188418Y-47182000D01*
X135188418Y-47705000D01*
X133886633Y-47705000D01*
X132122530Y-45940898D01*
X132109159Y-45924605D01*
X132044140Y-45871245D01*
X131969960Y-45831595D01*
X131898703Y-45809979D01*
X131868523Y-45764811D01*
X131781189Y-45677477D01*
X131678496Y-45608860D01*
X131564389Y-45561595D01*
X131443254Y-45537500D01*
X131319746Y-45537500D01*
X131198611Y-45561595D01*
X131084504Y-45608860D01*
X130981811Y-45677477D01*
X130894477Y-45764811D01*
X130870296Y-45801000D01*
X129223711Y-45801000D01*
X129225582Y-45782000D01*
X129225582Y-44274448D01*
X130070238Y-45119105D01*
X130083607Y-45135395D01*
X130099897Y-45148764D01*
X130099900Y-45148767D01*
X130148625Y-45188755D01*
X130174629Y-45202654D01*
X130222806Y-45228405D01*
X130303295Y-45252822D01*
X130366024Y-45259000D01*
X130366036Y-45259000D01*
X130387001Y-45261065D01*
X130407966Y-45259000D01*
X132648418Y-45259000D01*
X132648418Y-45782000D01*
X132654732Y-45846103D01*
X132673430Y-45907743D01*
X132703794Y-45964550D01*
X132744657Y-46014343D01*
X132794450Y-46055206D01*
X132851257Y-46085570D01*
X132912897Y-46104268D01*
X132977000Y-46110582D01*
X133939006Y-46110582D01*
X133997677Y-46198389D01*
X134085011Y-46285723D01*
X134187704Y-46354340D01*
X134301811Y-46401605D01*
X134422946Y-46425700D01*
X134546454Y-46425700D01*
X134667589Y-46401605D01*
X134781696Y-46354340D01*
X134884389Y-46285723D01*
X134971723Y-46198389D01*
X135040340Y-46095696D01*
X135087605Y-45981589D01*
X135111700Y-45860454D01*
X135111700Y-45736946D01*
X135087605Y-45615811D01*
X135040340Y-45501704D01*
X134971723Y-45399011D01*
X134884389Y-45311677D01*
X134781696Y-45243060D01*
X134667589Y-45195795D01*
X134546454Y-45171700D01*
X134422946Y-45171700D01*
X134420964Y-45172094D01*
X134305582Y-45056713D01*
X134305582Y-44484452D01*
X138240234Y-48419105D01*
X138253603Y-48435395D01*
X138269893Y-48448764D01*
X138269897Y-48448768D01*
X138318622Y-48488756D01*
X138392801Y-48528405D01*
X138411535Y-48534088D01*
X138473291Y-48552822D01*
X138536020Y-48559000D01*
X138536031Y-48559000D01*
X138556998Y-48561065D01*
X138577965Y-48559000D01*
X140268418Y-48559000D01*
X140268418Y-49082000D01*
X140274732Y-49146103D01*
X140293430Y-49207743D01*
X140323794Y-49264550D01*
X140364657Y-49314343D01*
X140414450Y-49355206D01*
X140471257Y-49385570D01*
X140532897Y-49404268D01*
X140597000Y-49410582D01*
X141089350Y-49410582D01*
X140901952Y-49597980D01*
X121649232Y-49597980D01*
X121728185Y-49533185D01*
X121807537Y-49436494D01*
X121866502Y-49326180D01*
X121902812Y-49206482D01*
X121915072Y-49082000D01*
X121912000Y-48417750D01*
X121753250Y-48259000D01*
X120904000Y-48259000D01*
X120904000Y-48279000D01*
X120650000Y-48279000D01*
X120650000Y-48259000D01*
X119800750Y-48259000D01*
X119642000Y-48417750D01*
X119638928Y-49082000D01*
X119651188Y-49206482D01*
X119687498Y-49326180D01*
X119746463Y-49436494D01*
X119825815Y-49533185D01*
X119904768Y-49597980D01*
X117421288Y-49597980D01*
X119639841Y-47379427D01*
X119642000Y-47846250D01*
X119800750Y-48005000D01*
X120650000Y-48005000D01*
X120650000Y-46705750D01*
X120904000Y-46705750D01*
X120904000Y-48005000D01*
X121753250Y-48005000D01*
X121912000Y-47846250D01*
X121915072Y-47182000D01*
X121902812Y-47057518D01*
X121866502Y-46937820D01*
X121807537Y-46827506D01*
X121728185Y-46730815D01*
X121631494Y-46651463D01*
X121521180Y-46592498D01*
X121401482Y-46556188D01*
X121277000Y-46543928D01*
X121062750Y-46547000D01*
X120904000Y-46705750D01*
X120650000Y-46705750D01*
X120491250Y-46547000D01*
X120472537Y-46546732D01*
X121251369Y-45767900D01*
X121336254Y-45767900D01*
X121457389Y-45743805D01*
X121571496Y-45696540D01*
X121674189Y-45627923D01*
X121761523Y-45540589D01*
X121830140Y-45437896D01*
X121877405Y-45323789D01*
X121901500Y-45202654D01*
X121901500Y-45079146D01*
X121877405Y-44958011D01*
X121830140Y-44843904D01*
X121761523Y-44741211D01*
X121674189Y-44653877D01*
X121571496Y-44585260D01*
X121457389Y-44537995D01*
X121336254Y-44513900D01*
X121212746Y-44513900D01*
X121091611Y-44537995D01*
X120977504Y-44585260D01*
X120874811Y-44653877D01*
X120787477Y-44741211D01*
X120718860Y-44843904D01*
X120671595Y-44958011D01*
X120647500Y-45079146D01*
X120647500Y-45164031D01*
X120442000Y-45369531D01*
X120442000Y-45036712D01*
X120502023Y-44976689D01*
X120570640Y-44873996D01*
X120617905Y-44759889D01*
X120642000Y-44638754D01*
X120642000Y-44515246D01*
X120617905Y-44394111D01*
X120570640Y-44280004D01*
X120502023Y-44177311D01*
X120414689Y-44089977D01*
X120311996Y-44021360D01*
X120197889Y-43974095D01*
X120076754Y-43950000D01*
X119953246Y-43950000D01*
X119832111Y-43974095D01*
X119718004Y-44021360D01*
X119615311Y-44089977D01*
X119527977Y-44177311D01*
X119459360Y-44280004D01*
X119412095Y-44394111D01*
X119388000Y-44515246D01*
X119388000Y-44638754D01*
X119412095Y-44759889D01*
X119459360Y-44873996D01*
X119527977Y-44976689D01*
X119588000Y-45036712D01*
X119588001Y-45479630D01*
X117362632Y-47705000D01*
X116525582Y-47705000D01*
X116525582Y-47182000D01*
X116519268Y-47117897D01*
X116500570Y-47056257D01*
X116470206Y-46999450D01*
X116429343Y-46949657D01*
X116379550Y-46908794D01*
X116322743Y-46878430D01*
X116261103Y-46859732D01*
X116197000Y-46853418D01*
X115197000Y-46853418D01*
X115132897Y-46859732D01*
X115071257Y-46878430D01*
X115014450Y-46908794D01*
X114964657Y-46949657D01*
X114923794Y-46999450D01*
X114893430Y-47056257D01*
X114874732Y-47117897D01*
X114868418Y-47182000D01*
X114868418Y-48955001D01*
X111445582Y-48955001D01*
X111445582Y-47182000D01*
X111439268Y-47117897D01*
X111420570Y-47056257D01*
X111390206Y-46999450D01*
X111349343Y-46949657D01*
X111299550Y-46908794D01*
X111242743Y-46878430D01*
X111181103Y-46859732D01*
X111117000Y-46853418D01*
X110117000Y-46853418D01*
X110052897Y-46859732D01*
X109991257Y-46878430D01*
X109934450Y-46908794D01*
X109884657Y-46949657D01*
X109843794Y-46999450D01*
X109813430Y-47056257D01*
X109794732Y-47117897D01*
X109788418Y-47182000D01*
X109788418Y-48955001D01*
X107663871Y-48955001D01*
X106553767Y-47844899D01*
X106540395Y-47828605D01*
X106475376Y-47775245D01*
X106401196Y-47735595D01*
X106365582Y-47724791D01*
X106365582Y-47182000D01*
X106359268Y-47117897D01*
X106340570Y-47056257D01*
X106310206Y-46999450D01*
X106269343Y-46949657D01*
X106219550Y-46908794D01*
X106162743Y-46878430D01*
X106101103Y-46859732D01*
X106037000Y-46853418D01*
X105037000Y-46853418D01*
X104972897Y-46859732D01*
X104911257Y-46878430D01*
X104854450Y-46908794D01*
X104804657Y-46949657D01*
X104763794Y-46999450D01*
X104733430Y-47056257D01*
X104714732Y-47117897D01*
X104708418Y-47182000D01*
X104708418Y-49082000D01*
X104714732Y-49146103D01*
X104733430Y-49207743D01*
X104763794Y-49264550D01*
X104804657Y-49314343D01*
X104854450Y-49355206D01*
X104911257Y-49385570D01*
X104972897Y-49404268D01*
X105037000Y-49410582D01*
X106037000Y-49410582D01*
X106101103Y-49404268D01*
X106162743Y-49385570D01*
X106219550Y-49355206D01*
X106269343Y-49314343D01*
X106310206Y-49264550D01*
X106340570Y-49207743D01*
X106359268Y-49146103D01*
X106365582Y-49082000D01*
X106365582Y-48864451D01*
X107099110Y-49597980D01*
X101382849Y-49597980D01*
X101139838Y-49354970D01*
X101189343Y-49314343D01*
X101230206Y-49264550D01*
X101260570Y-49207743D01*
X101279268Y-49146103D01*
X101285582Y-49082000D01*
X101285582Y-47182000D01*
X101279268Y-47117897D01*
X101260570Y-47056257D01*
X101230206Y-46999450D01*
X101189343Y-46949657D01*
X101139550Y-46908794D01*
X101082743Y-46878430D01*
X101021103Y-46859732D01*
X100957000Y-46853418D01*
X99957000Y-46853418D01*
X99892897Y-46859732D01*
X99831257Y-46878430D01*
X99774450Y-46908794D01*
X99724657Y-46949657D01*
X99683794Y-46999450D01*
X99653430Y-47056257D01*
X99634732Y-47117897D01*
X99628418Y-47182000D01*
X99628418Y-48578249D01*
X98344000Y-47293832D01*
X98344000Y-46110582D01*
X98417000Y-46110582D01*
X98481103Y-46104268D01*
X98542743Y-46085570D01*
X98599550Y-46055206D01*
X98649343Y-46014343D01*
X98690206Y-45964550D01*
X98720570Y-45907743D01*
X98739268Y-45846103D01*
X98745582Y-45782000D01*
X98745582Y-43882000D01*
X102168418Y-43882000D01*
X102168418Y-45782000D01*
X102174732Y-45846103D01*
X102193430Y-45907743D01*
X102223794Y-45964550D01*
X102264657Y-46014343D01*
X102314450Y-46055206D01*
X102371257Y-46085570D01*
X102432897Y-46104268D01*
X102497000Y-46110582D01*
X103497000Y-46110582D01*
X103561103Y-46104268D01*
X103622743Y-46085570D01*
X103679550Y-46055206D01*
X103729343Y-46014343D01*
X103770206Y-45964550D01*
X103800570Y-45907743D01*
X103819268Y-45846103D01*
X103825582Y-45782000D01*
X103825582Y-43882000D01*
X103819268Y-43817897D01*
X103800570Y-43756257D01*
X103770206Y-43699450D01*
X103729343Y-43649657D01*
X103679550Y-43608794D01*
X103622743Y-43578430D01*
X103586763Y-43567516D01*
X103599905Y-43535789D01*
X103624000Y-43414654D01*
X103624000Y-43291146D01*
X103599905Y-43170011D01*
X103552640Y-43055904D01*
X103484023Y-42953211D01*
X103396689Y-42865877D01*
X103293996Y-42797260D01*
X103179889Y-42749995D01*
X103058754Y-42725900D01*
X102935246Y-42725900D01*
X102814111Y-42749995D01*
X102700004Y-42797260D01*
X102597311Y-42865877D01*
X102509977Y-42953211D01*
X102441360Y-43055904D01*
X102394095Y-43170011D01*
X102370000Y-43291146D01*
X102370000Y-43414654D01*
X102394095Y-43535789D01*
X102407237Y-43567516D01*
X102371257Y-43578430D01*
X102314450Y-43608794D01*
X102264657Y-43649657D01*
X102223794Y-43699450D01*
X102193430Y-43756257D01*
X102174732Y-43817897D01*
X102168418Y-43882000D01*
X98745582Y-43882000D01*
X98739268Y-43817897D01*
X98720570Y-43756257D01*
X98690206Y-43699450D01*
X98649343Y-43649657D01*
X98599550Y-43608794D01*
X98542743Y-43578430D01*
X98481103Y-43559732D01*
X98417000Y-43553418D01*
X97417000Y-43553418D01*
X97352897Y-43559732D01*
X97291257Y-43578430D01*
X97234450Y-43608794D01*
X97184657Y-43649657D01*
X97143794Y-43699450D01*
X97113430Y-43756257D01*
X97094732Y-43817897D01*
X97088418Y-43882000D01*
X97088418Y-45782000D01*
X97094732Y-45846103D01*
X97113430Y-45907743D01*
X97143794Y-45964550D01*
X97184657Y-46014343D01*
X97234450Y-46055206D01*
X97291257Y-46085570D01*
X97352897Y-46104268D01*
X97417000Y-46110582D01*
X97490001Y-46110582D01*
X97490000Y-47449733D01*
X97487935Y-47470700D01*
X97490000Y-47491667D01*
X97490000Y-47491677D01*
X97496178Y-47554406D01*
X97520595Y-47634895D01*
X97520596Y-47634896D01*
X97560245Y-47709076D01*
X97582009Y-47735595D01*
X97613605Y-47774095D01*
X97629900Y-47787468D01*
X100204258Y-50361828D01*
X100211990Y-50374835D01*
X100224372Y-50398000D01*
X93364664Y-50398000D01*
X93300113Y-50391671D01*
X93256948Y-50378639D01*
X93217125Y-50357464D01*
X93182178Y-50328961D01*
X93153433Y-50294214D01*
X93131983Y-50254544D01*
X93118648Y-50211465D01*
X93112000Y-50148217D01*
X93112000Y-42545000D01*
X93214928Y-42545000D01*
X93227188Y-42669482D01*
X93263498Y-42789180D01*
X93322463Y-42899494D01*
X93401815Y-42996185D01*
X93498506Y-43075537D01*
X93608820Y-43134502D01*
X93728518Y-43170812D01*
X93853000Y-43183072D01*
X94202250Y-43180000D01*
X94361000Y-43021250D01*
X94361000Y-42037000D01*
X93376750Y-42037000D01*
X93218000Y-42195750D01*
X93214928Y-42545000D01*
X93112000Y-42545000D01*
X93112000Y-41275000D01*
X93214928Y-41275000D01*
X93218000Y-41624250D01*
X93376750Y-41783000D01*
X94361000Y-41783000D01*
X94361000Y-40798750D01*
X94202250Y-40640000D01*
X93853000Y-40636928D01*
X93728518Y-40649188D01*
X93608820Y-40685498D01*
X93498506Y-40744463D01*
X93401815Y-40823815D01*
X93322463Y-40920506D01*
X93263498Y-41030820D01*
X93227188Y-41150518D01*
X93214928Y-41275000D01*
X93112000Y-41275000D01*
X93112000Y-27324665D01*
X93118329Y-27260114D01*
X93131362Y-27216947D01*
X93152534Y-27177128D01*
X93181038Y-27142179D01*
X93215788Y-27113431D01*
X93255455Y-27091983D01*
X93298535Y-27078648D01*
X93361783Y-27072000D01*
X97642156Y-27072000D01*
X97636999Y-27076232D01*
G37*
X97636999Y-27076232D02*
X97636995Y-27076236D01*
X97620705Y-27089605D01*
X97607336Y-27105895D01*
X94109196Y-30604036D01*
X94092906Y-30617405D01*
X94079537Y-30633695D01*
X94079532Y-30633700D01*
X94039545Y-30682424D01*
X94010760Y-30736278D01*
X93999896Y-30756604D01*
X93975479Y-30837093D01*
X93971303Y-30879496D01*
X93967235Y-30920800D01*
X93969301Y-30941777D01*
X93969300Y-33796533D01*
X93967235Y-33817500D01*
X93969300Y-33838467D01*
X93969300Y-33838477D01*
X93975478Y-33901206D01*
X93999895Y-33981695D01*
X94006430Y-33993921D01*
X94039545Y-34055876D01*
X94074942Y-34099007D01*
X94092905Y-34120895D01*
X94109200Y-34134268D01*
X94572932Y-34598000D01*
X94393251Y-34598000D01*
X94207395Y-34634969D01*
X94032322Y-34707486D01*
X93874761Y-34812766D01*
X93740766Y-34946761D01*
X93635486Y-35104322D01*
X93562969Y-35279395D01*
X93526000Y-35465251D01*
X93526000Y-35654749D01*
X93562969Y-35840605D01*
X93635486Y-36015678D01*
X93740766Y-36173239D01*
X93874761Y-36307234D01*
X94032322Y-36412514D01*
X94207395Y-36485031D01*
X94393251Y-36522000D01*
X94582749Y-36522000D01*
X94768605Y-36485031D01*
X94943678Y-36412514D01*
X95032401Y-36353231D01*
X95032401Y-40637725D01*
X94773750Y-40640000D01*
X94615000Y-40798750D01*
X94615000Y-41783000D01*
X94635000Y-41783000D01*
X94635000Y-42037000D01*
X94615000Y-42037000D01*
X94615000Y-43021250D01*
X94773750Y-43180000D01*
X95032400Y-43182275D01*
X95032400Y-46628513D01*
X95020245Y-46643324D01*
X94981617Y-46715594D01*
X94980596Y-46717504D01*
X94956179Y-46797993D01*
X94953984Y-46820277D01*
X94950720Y-46853418D01*
X94877000Y-46853418D01*
X94812897Y-46859732D01*
X94751257Y-46878430D01*
X94694450Y-46908794D01*
X94644657Y-46949657D01*
X94603794Y-46999450D01*
X94573430Y-47056257D01*
X94554732Y-47117897D01*
X94548418Y-47182000D01*
X94548418Y-49082000D01*
X94554732Y-49146103D01*
X94573430Y-49207743D01*
X94603794Y-49264550D01*
X94644657Y-49314343D01*
X94694450Y-49355206D01*
X94751257Y-49385570D01*
X94812897Y-49404268D01*
X94877000Y-49410582D01*
X95877000Y-49410582D01*
X95941103Y-49404268D01*
X96002743Y-49385570D01*
X96059550Y-49355206D01*
X96109343Y-49314343D01*
X96150206Y-49264550D01*
X96180570Y-49207743D01*
X96199268Y-49146103D01*
X96205582Y-49082000D01*
X96205582Y-47182000D01*
X96199268Y-47117897D01*
X96180570Y-47056257D01*
X96150206Y-46999450D01*
X96109343Y-46949657D01*
X96059550Y-46908794D01*
X96002743Y-46878430D01*
X95941103Y-46859732D01*
X95883077Y-46854017D01*
X95886400Y-46820278D01*
X95886400Y-46820268D01*
X95888465Y-46799301D01*
X95886400Y-46778334D01*
X95886400Y-34901564D01*
X95888465Y-34880599D01*
X95886400Y-34859634D01*
X95886400Y-34859622D01*
X95880222Y-34796893D01*
X95855805Y-34716404D01*
X95819914Y-34649256D01*
X95816155Y-34642223D01*
X95776167Y-34593498D01*
X95776164Y-34593495D01*
X95762795Y-34577205D01*
X95746505Y-34563836D01*
X95226250Y-34043582D01*
X95750000Y-34043582D01*
X95814103Y-34037268D01*
X95875743Y-34018570D01*
X95932550Y-33988206D01*
X95982343Y-33947343D01*
X96023206Y-33897550D01*
X96053570Y-33840743D01*
X96072268Y-33779103D01*
X96078582Y-33715000D01*
X96078582Y-33193000D01*
X97458033Y-33193000D01*
X97479000Y-33195065D01*
X97499967Y-33193000D01*
X97499978Y-33193000D01*
X97562707Y-33186822D01*
X97643196Y-33162405D01*
X97717376Y-33122755D01*
X97782395Y-33069395D01*
X97795768Y-33053100D01*
X99033868Y-31815000D01*
X99501418Y-31815000D01*
X99501418Y-33715000D01*
X99507732Y-33779103D01*
X99526430Y-33840743D01*
X99556794Y-33897550D01*
X99597657Y-33947343D01*
X99647450Y-33988206D01*
X99704257Y-34018570D01*
X99765897Y-34037268D01*
X99830000Y-34043582D01*
X99903001Y-34043582D01*
X99903000Y-38616933D01*
X99900935Y-38637900D01*
X99903000Y-38658867D01*
X99903000Y-38658877D01*
X99909178Y-38721606D01*
X99933595Y-38802095D01*
X99933596Y-38802096D01*
X99973245Y-38876276D01*
X100011184Y-38922504D01*
X100026605Y-38941295D01*
X100042900Y-38954668D01*
X105118700Y-44030470D01*
X105118700Y-44115354D01*
X105142795Y-44236489D01*
X105190060Y-44350596D01*
X105258677Y-44453289D01*
X105346011Y-44540623D01*
X105448704Y-44609240D01*
X105562811Y-44656505D01*
X105683946Y-44680600D01*
X105807454Y-44680600D01*
X105928589Y-44656505D01*
X106042696Y-44609240D01*
X106145389Y-44540623D01*
X106232723Y-44453289D01*
X106301340Y-44350596D01*
X106348605Y-44236489D01*
X106372700Y-44115354D01*
X106372700Y-43991846D01*
X106348605Y-43870711D01*
X106301340Y-43756604D01*
X106232723Y-43653911D01*
X106145389Y-43566577D01*
X106042696Y-43497960D01*
X105928589Y-43450695D01*
X105807454Y-43426600D01*
X105722570Y-43426600D01*
X100757000Y-38461032D01*
X100757000Y-34043582D01*
X100830000Y-34043582D01*
X100894103Y-34037268D01*
X100955743Y-34018570D01*
X101012550Y-33988206D01*
X101062343Y-33947343D01*
X101103206Y-33897550D01*
X101133570Y-33840743D01*
X101152268Y-33779103D01*
X101158582Y-33715000D01*
X101158582Y-31815000D01*
X101152268Y-31750897D01*
X101133570Y-31689257D01*
X101103206Y-31632450D01*
X101062343Y-31582657D01*
X101012550Y-31541794D01*
X100955743Y-31511430D01*
X100894103Y-31492732D01*
X100830000Y-31486418D01*
X99830000Y-31486418D01*
X99765897Y-31492732D01*
X99704257Y-31511430D01*
X99647450Y-31541794D01*
X99597657Y-31582657D01*
X99556794Y-31632450D01*
X99526430Y-31689257D01*
X99507732Y-31750897D01*
X99501418Y-31815000D01*
X99033868Y-31815000D01*
X102041418Y-28807452D01*
X102041418Y-30415000D01*
X102047732Y-30479103D01*
X102066430Y-30540743D01*
X102096794Y-30597550D01*
X102137657Y-30647343D01*
X102187450Y-30688206D01*
X102244257Y-30718570D01*
X102305897Y-30737268D01*
X102370000Y-30743582D01*
X102443720Y-30743582D01*
X102449179Y-30799007D01*
X102472819Y-30876934D01*
X102473596Y-30879496D01*
X102513245Y-30953676D01*
X102553232Y-31002400D01*
X102553237Y-31002405D01*
X102566606Y-31018695D01*
X102582896Y-31032064D01*
X104182601Y-32631770D01*
X104182600Y-39392833D01*
X104180535Y-39413800D01*
X104182600Y-39434767D01*
X104182600Y-39434777D01*
X104188778Y-39497506D01*
X104213195Y-39577995D01*
X104224686Y-39599493D01*
X104252845Y-39652176D01*
X104292832Y-39700900D01*
X104306205Y-39717195D01*
X104322500Y-39730568D01*
X108145349Y-43553418D01*
X107577000Y-43553418D01*
X107512897Y-43559732D01*
X107451257Y-43578430D01*
X107394450Y-43608794D01*
X107344657Y-43649657D01*
X107303794Y-43699450D01*
X107273430Y-43756257D01*
X107254732Y-43817897D01*
X107248418Y-43882000D01*
X107248418Y-45782000D01*
X107254732Y-45846103D01*
X107273430Y-45907743D01*
X107303794Y-45964550D01*
X107344657Y-46014343D01*
X107394450Y-46055206D01*
X107451257Y-46085570D01*
X107512897Y-46104268D01*
X107577000Y-46110582D01*
X108577000Y-46110582D01*
X108641103Y-46104268D01*
X108702743Y-46085570D01*
X108759550Y-46055206D01*
X108809343Y-46014343D01*
X108850206Y-45964550D01*
X108880570Y-45907743D01*
X108899268Y-45846103D01*
X108905582Y-45782000D01*
X108905582Y-44596494D01*
X108956611Y-44647523D01*
X109059304Y-44716140D01*
X109173411Y-44763405D01*
X109294546Y-44787500D01*
X109418054Y-44787500D01*
X109539189Y-44763405D01*
X109653296Y-44716140D01*
X109755989Y-44647523D01*
X109843323Y-44560189D01*
X109911940Y-44457496D01*
X109959205Y-44343389D01*
X109983300Y-44222254D01*
X109983300Y-44098746D01*
X109959205Y-43977611D01*
X109911940Y-43863504D01*
X109843323Y-43760811D01*
X109755989Y-43673477D01*
X109653296Y-43604860D01*
X109539189Y-43557595D01*
X109418054Y-43533500D01*
X109333169Y-43533500D01*
X105036600Y-39236932D01*
X105036600Y-38833935D01*
X105053245Y-38865076D01*
X105093232Y-38913800D01*
X105106605Y-38930095D01*
X105122900Y-38943468D01*
X110510100Y-44330669D01*
X110510100Y-44415554D01*
X110534195Y-44536689D01*
X110581460Y-44650796D01*
X110650077Y-44753489D01*
X110737411Y-44840823D01*
X110840104Y-44909440D01*
X110954211Y-44956705D01*
X111075346Y-44980800D01*
X111198854Y-44980800D01*
X111319989Y-44956705D01*
X111434096Y-44909440D01*
X111536789Y-44840823D01*
X111624123Y-44753489D01*
X111692740Y-44650796D01*
X111740005Y-44536689D01*
X111764100Y-44415554D01*
X111764100Y-44292046D01*
X111740005Y-44170911D01*
X111692740Y-44056804D01*
X111624123Y-43954111D01*
X111552012Y-43882000D01*
X112328418Y-43882000D01*
X112328418Y-45782000D01*
X112334732Y-45846103D01*
X112353430Y-45907743D01*
X112383794Y-45964550D01*
X112424657Y-46014343D01*
X112474450Y-46055206D01*
X112531257Y-46085570D01*
X112592897Y-46104268D01*
X112657000Y-46110582D01*
X113657000Y-46110582D01*
X113721103Y-46104268D01*
X113782743Y-46085570D01*
X113839550Y-46055206D01*
X113889343Y-46014343D01*
X113930206Y-45964550D01*
X113960570Y-45907743D01*
X113979268Y-45846103D01*
X113985582Y-45782000D01*
X113985582Y-43882000D01*
X113979268Y-43817897D01*
X113960570Y-43756257D01*
X113930206Y-43699450D01*
X113889343Y-43649657D01*
X113839550Y-43608794D01*
X113782743Y-43578430D01*
X113721103Y-43559732D01*
X113657000Y-43553418D01*
X112657000Y-43553418D01*
X112592897Y-43559732D01*
X112531257Y-43578430D01*
X112474450Y-43608794D01*
X112424657Y-43649657D01*
X112383794Y-43699450D01*
X112353430Y-43756257D01*
X112334732Y-43817897D01*
X112328418Y-43882000D01*
X111552012Y-43882000D01*
X111536789Y-43866777D01*
X111434096Y-43798160D01*
X111319989Y-43750895D01*
X111198854Y-43726800D01*
X111113969Y-43726800D01*
X105837000Y-38449832D01*
X105837000Y-34043582D01*
X105910000Y-34043582D01*
X105974103Y-34037268D01*
X106035743Y-34018570D01*
X106092550Y-33988206D01*
X106142343Y-33947343D01*
X106183206Y-33897550D01*
X106213570Y-33840743D01*
X106232268Y-33779103D01*
X106238582Y-33715000D01*
X106238582Y-31815000D01*
X106232268Y-31750897D01*
X106213570Y-31689257D01*
X106183206Y-31632450D01*
X106142343Y-31582657D01*
X106092550Y-31541794D01*
X106035743Y-31511430D01*
X105974103Y-31492732D01*
X105910000Y-31486418D01*
X104910000Y-31486418D01*
X104845897Y-31492732D01*
X104784257Y-31511430D01*
X104727450Y-31541794D01*
X104677657Y-31582657D01*
X104636794Y-31632450D01*
X104606430Y-31689257D01*
X104587732Y-31750897D01*
X104581418Y-31815000D01*
X104581418Y-31822849D01*
X103481468Y-30722900D01*
X103495743Y-30718570D01*
X103552550Y-30688206D01*
X103602343Y-30647343D01*
X103643206Y-30597550D01*
X103673570Y-30540743D01*
X103692268Y-30479103D01*
X103698582Y-30415000D01*
X103698582Y-28641700D01*
X107121418Y-28641700D01*
X107121418Y-30415000D01*
X107127732Y-30479103D01*
X107146430Y-30540743D01*
X107176794Y-30597550D01*
X107217657Y-30647343D01*
X107267450Y-30688206D01*
X107324257Y-30718570D01*
X107385897Y-30737268D01*
X107450000Y-30743582D01*
X108450000Y-30743582D01*
X108514103Y-30737268D01*
X108575743Y-30718570D01*
X108632550Y-30688206D01*
X108682343Y-30647343D01*
X108723206Y-30597550D01*
X108753570Y-30540743D01*
X108772268Y-30479103D01*
X108778582Y-30415000D01*
X108778582Y-29892000D01*
X110060132Y-29892000D01*
X111170242Y-31002112D01*
X111183606Y-31018396D01*
X111199890Y-31031760D01*
X111199899Y-31031769D01*
X111248624Y-31071756D01*
X111278454Y-31087700D01*
X111322805Y-31111406D01*
X111403294Y-31135823D01*
X111466023Y-31142001D01*
X111466035Y-31142001D01*
X111487000Y-31144066D01*
X111507965Y-31142001D01*
X116009133Y-31142001D01*
X116269546Y-31402415D01*
X116282915Y-31418705D01*
X116299205Y-31432074D01*
X116299208Y-31432077D01*
X116347933Y-31472065D01*
X116379761Y-31489077D01*
X116422114Y-31511715D01*
X116502603Y-31536132D01*
X116565332Y-31542310D01*
X116565344Y-31542310D01*
X116586309Y-31544375D01*
X116607274Y-31542310D01*
X116732142Y-31542310D01*
X117230300Y-32040469D01*
X117230300Y-32125354D01*
X117254395Y-32246489D01*
X117301660Y-32360596D01*
X117370277Y-32463289D01*
X117457611Y-32550623D01*
X117560304Y-32619240D01*
X117674411Y-32666505D01*
X117795546Y-32690600D01*
X117919054Y-32690600D01*
X118040189Y-32666505D01*
X118154296Y-32619240D01*
X118256989Y-32550623D01*
X118344323Y-32463289D01*
X118412940Y-32360596D01*
X118460205Y-32246489D01*
X118484300Y-32125354D01*
X118484300Y-32001846D01*
X118460205Y-31880711D01*
X118412940Y-31766604D01*
X118344323Y-31663911D01*
X118256989Y-31576577D01*
X118154296Y-31507960D01*
X118040189Y-31460695D01*
X117919054Y-31436600D01*
X117834169Y-31436600D01*
X117557176Y-31159608D01*
X119508911Y-31151507D01*
X119186271Y-31474148D01*
X119168080Y-31489077D01*
X119153151Y-31507268D01*
X119153148Y-31507271D01*
X119137206Y-31526697D01*
X119108472Y-31561709D01*
X119087631Y-31600700D01*
X119064178Y-31644576D01*
X119036903Y-31734491D01*
X119027694Y-31827998D01*
X119030001Y-31851423D01*
X119030000Y-33457420D01*
X118501820Y-33985600D01*
X116269467Y-33974323D01*
X116302343Y-33947343D01*
X116343206Y-33897550D01*
X116373570Y-33840743D01*
X116392268Y-33779103D01*
X116398582Y-33715000D01*
X116398582Y-31815000D01*
X116392268Y-31750897D01*
X116373570Y-31689257D01*
X116343206Y-31632450D01*
X116302343Y-31582657D01*
X116252550Y-31541794D01*
X116195743Y-31511430D01*
X116134103Y-31492732D01*
X116070000Y-31486418D01*
X115070000Y-31486418D01*
X115005897Y-31492732D01*
X114944257Y-31511430D01*
X114887450Y-31541794D01*
X114837657Y-31582657D01*
X114796794Y-31632450D01*
X114766430Y-31689257D01*
X114747732Y-31750897D01*
X114741418Y-31815000D01*
X114741418Y-33715000D01*
X114747732Y-33779103D01*
X114766430Y-33840743D01*
X114796794Y-33897550D01*
X114837657Y-33947343D01*
X114861868Y-33967212D01*
X111220547Y-33948817D01*
X111222343Y-33947343D01*
X111263206Y-33897550D01*
X111293570Y-33840743D01*
X111312268Y-33779103D01*
X111318582Y-33715000D01*
X111318582Y-31815000D01*
X111312268Y-31750897D01*
X111293570Y-31689257D01*
X111263206Y-31632450D01*
X111222343Y-31582657D01*
X111172550Y-31541794D01*
X111115743Y-31511430D01*
X111054103Y-31492732D01*
X110990000Y-31486418D01*
X109990000Y-31486418D01*
X109925897Y-31492732D01*
X109864257Y-31511430D01*
X109807450Y-31541794D01*
X109757657Y-31582657D01*
X109716794Y-31632450D01*
X109686430Y-31689257D01*
X109667732Y-31750897D01*
X109661418Y-31815000D01*
X109661418Y-32338000D01*
X107961766Y-32338000D01*
X107940799Y-32335935D01*
X107919832Y-32338000D01*
X107919822Y-32338000D01*
X107857093Y-32344178D01*
X107776604Y-32368595D01*
X107742073Y-32387052D01*
X107702423Y-32408245D01*
X107653699Y-32448232D01*
X107653695Y-32448236D01*
X107637405Y-32461605D01*
X107624036Y-32477895D01*
X106686795Y-33415137D01*
X106670506Y-33428505D01*
X106657137Y-33444795D01*
X106657132Y-33444800D01*
X106617145Y-33493524D01*
X106593655Y-33537472D01*
X106577496Y-33567704D01*
X106553079Y-33648193D01*
X106551098Y-33668304D01*
X106544835Y-33731900D01*
X106546901Y-33752877D01*
X106546900Y-34268932D01*
X106544835Y-34289900D01*
X106546900Y-34310867D01*
X106546900Y-34310877D01*
X106553078Y-34373606D01*
X106577495Y-34454095D01*
X106582349Y-34463176D01*
X106617145Y-34528276D01*
X106651733Y-34570421D01*
X106670505Y-34593295D01*
X106686800Y-34606668D01*
X114233501Y-42153370D01*
X114233500Y-42503888D01*
X114173477Y-42563911D01*
X114104860Y-42666604D01*
X114057595Y-42780711D01*
X114033500Y-42901846D01*
X114033500Y-43025354D01*
X114057595Y-43146489D01*
X114104860Y-43260596D01*
X114173477Y-43363289D01*
X114260811Y-43450623D01*
X114363504Y-43519240D01*
X114477611Y-43566505D01*
X114598746Y-43590600D01*
X114722254Y-43590600D01*
X114843389Y-43566505D01*
X114957496Y-43519240D01*
X115060189Y-43450623D01*
X115147523Y-43363289D01*
X115216140Y-43260596D01*
X115263405Y-43146489D01*
X115287500Y-43025354D01*
X115287500Y-42901846D01*
X115263405Y-42780711D01*
X115216140Y-42666604D01*
X115147523Y-42563911D01*
X115087500Y-42503888D01*
X115087500Y-41997467D01*
X115089565Y-41976500D01*
X115087500Y-41955533D01*
X115087500Y-41955522D01*
X115081322Y-41892793D01*
X115056905Y-41812304D01*
X115032328Y-41766324D01*
X115017255Y-41738123D01*
X114977268Y-41689399D01*
X114977264Y-41689395D01*
X114963895Y-41673105D01*
X114947605Y-41659736D01*
X107819924Y-34532056D01*
X107917496Y-34491640D01*
X108020189Y-34423023D01*
X108030212Y-34413000D01*
X108795421Y-34413000D01*
X109119300Y-34736880D01*
X109133372Y-34754204D01*
X109152409Y-34769989D01*
X109153272Y-34770852D01*
X109170639Y-34785105D01*
X109205702Y-34814178D01*
X109206767Y-34814754D01*
X109207711Y-34815529D01*
X109248255Y-34837200D01*
X109288343Y-34858889D01*
X109289500Y-34859246D01*
X109290577Y-34859822D01*
X109334543Y-34873159D01*
X109378119Y-34886618D01*
X109379325Y-34886743D01*
X109380492Y-34887097D01*
X109426072Y-34891586D01*
X109448168Y-34893875D01*
X109449378Y-34893881D01*
X109474000Y-34896306D01*
X109496219Y-34894118D01*
X118673783Y-34940480D01*
X118698401Y-34942905D01*
X118743900Y-34938424D01*
X118789533Y-34934162D01*
X118790697Y-34933815D01*
X118791908Y-34933696D01*
X118835797Y-34920383D01*
X118879584Y-34907341D01*
X118880656Y-34906775D01*
X118881823Y-34906421D01*
X118922160Y-34884860D01*
X118962673Y-34863468D01*
X118963621Y-34862698D01*
X118964689Y-34862127D01*
X119000058Y-34833101D01*
X119035605Y-34804227D01*
X119051396Y-34785183D01*
X119827729Y-34008851D01*
X119845921Y-33993921D01*
X119865618Y-33969921D01*
X119900902Y-33926927D01*
X119917657Y-33947343D01*
X119967450Y-33988206D01*
X120024257Y-34018570D01*
X120085897Y-34037268D01*
X120150000Y-34043582D01*
X120173001Y-34043582D01*
X120173000Y-42195000D01*
X119120114Y-42195000D01*
X119096699Y-42192694D01*
X119073284Y-42195000D01*
X119073277Y-42195000D01*
X119012038Y-42201032D01*
X119003191Y-42201903D01*
X118991482Y-42205455D01*
X118913277Y-42229178D01*
X118830411Y-42273471D01*
X118788587Y-42307795D01*
X118779510Y-42315245D01*
X118757779Y-42333079D01*
X118742849Y-42351271D01*
X117916271Y-43177850D01*
X117898080Y-43192779D01*
X117838472Y-43265411D01*
X117822871Y-43294599D01*
X117794178Y-43348278D01*
X117766903Y-43438193D01*
X117757694Y-43531700D01*
X117759833Y-43553418D01*
X117737000Y-43553418D01*
X117672897Y-43559732D01*
X117611257Y-43578430D01*
X117554450Y-43608794D01*
X117504657Y-43649657D01*
X117463794Y-43699450D01*
X117433430Y-43756257D01*
X117414732Y-43817897D01*
X117408418Y-43882000D01*
X117408418Y-45782000D01*
X117414732Y-45846103D01*
X117433430Y-45907743D01*
X117463794Y-45964550D01*
X117504657Y-46014343D01*
X117554450Y-46055206D01*
X117611257Y-46085570D01*
X117672897Y-46104268D01*
X117737000Y-46110582D01*
X118737000Y-46110582D01*
X118801103Y-46104268D01*
X118862743Y-46085570D01*
X118919550Y-46055206D01*
X118969343Y-46014343D01*
X119010206Y-45964550D01*
X119040570Y-45907743D01*
X119059268Y-45846103D01*
X119065582Y-45782000D01*
X119065582Y-43882000D01*
X119059268Y-43817897D01*
X119040570Y-43756257D01*
X119010206Y-43699450D01*
X118969343Y-43649657D01*
X118919550Y-43608794D01*
X118864116Y-43579164D01*
X119294280Y-43149000D01*
X120626577Y-43149000D01*
X120650000Y-43151307D01*
X120673422Y-43149000D01*
X121589733Y-43149000D01*
X121680766Y-43285239D01*
X121814761Y-43419234D01*
X121972322Y-43524514D01*
X122147395Y-43597031D01*
X122333251Y-43634000D01*
X122522749Y-43634000D01*
X122629645Y-43612737D01*
X122584657Y-43649657D01*
X122543794Y-43699450D01*
X122513430Y-43756257D01*
X122494732Y-43817897D01*
X122488418Y-43882000D01*
X122488418Y-45782000D01*
X122494732Y-45846103D01*
X122513430Y-45907743D01*
X122543794Y-45964550D01*
X122584657Y-46014343D01*
X122634450Y-46055206D01*
X122691257Y-46085570D01*
X122752897Y-46104268D01*
X122817000Y-46110582D01*
X123817000Y-46110582D01*
X123881103Y-46104268D01*
X123942743Y-46085570D01*
X123999550Y-46055206D01*
X124033000Y-46027755D01*
X124033000Y-46276288D01*
X123972977Y-46336311D01*
X123904360Y-46439004D01*
X123857095Y-46553111D01*
X123833000Y-46674246D01*
X123833000Y-46797754D01*
X123857095Y-46918889D01*
X123904360Y-47032996D01*
X123972977Y-47135689D01*
X124060311Y-47223023D01*
X124163004Y-47291640D01*
X124277111Y-47338905D01*
X124398246Y-47363000D01*
X124521754Y-47363000D01*
X124642889Y-47338905D01*
X124756996Y-47291640D01*
X124859689Y-47223023D01*
X124900712Y-47182000D01*
X125028418Y-47182000D01*
X125028418Y-49082000D01*
X125034732Y-49146103D01*
X125053430Y-49207743D01*
X125083794Y-49264550D01*
X125124657Y-49314343D01*
X125174450Y-49355206D01*
X125231257Y-49385570D01*
X125292897Y-49404268D01*
X125357000Y-49410582D01*
X126357000Y-49410582D01*
X126421103Y-49404268D01*
X126482743Y-49385570D01*
X126539550Y-49355206D01*
X126589343Y-49314343D01*
X126630206Y-49264550D01*
X126660570Y-49207743D01*
X126679268Y-49146103D01*
X126685582Y-49082000D01*
X126685582Y-47182000D01*
X130108418Y-47182000D01*
X130108418Y-49082000D01*
X130114732Y-49146103D01*
X130133430Y-49207743D01*
X130163794Y-49264550D01*
X130204657Y-49314343D01*
X130254450Y-49355206D01*
X130311257Y-49385570D01*
X130372897Y-49404268D01*
X130437000Y-49410582D01*
X131437000Y-49410582D01*
X131501103Y-49404268D01*
X131562743Y-49385570D01*
X131619550Y-49355206D01*
X131669343Y-49314343D01*
X131710206Y-49264550D01*
X131740570Y-49207743D01*
X131759268Y-49146103D01*
X131765582Y-49082000D01*
X131765582Y-47182000D01*
X131759268Y-47117897D01*
X131740570Y-47056257D01*
X131710206Y-46999450D01*
X131669343Y-46949657D01*
X131619550Y-46908794D01*
X131562743Y-46878430D01*
X131501103Y-46859732D01*
X131437000Y-46853418D01*
X130437000Y-46853418D01*
X130372897Y-46859732D01*
X130311257Y-46878430D01*
X130254450Y-46908794D01*
X130204657Y-46949657D01*
X130163794Y-46999450D01*
X130133430Y-47056257D01*
X130114732Y-47117897D01*
X130108418Y-47182000D01*
X126685582Y-47182000D01*
X126679268Y-47117897D01*
X126660570Y-47056257D01*
X126630206Y-46999450D01*
X126589343Y-46949657D01*
X126539550Y-46908794D01*
X126482743Y-46878430D01*
X126421103Y-46859732D01*
X126357000Y-46853418D01*
X125357000Y-46853418D01*
X125292897Y-46859732D01*
X125231257Y-46878430D01*
X125174450Y-46908794D01*
X125124657Y-46949657D01*
X125083794Y-46999450D01*
X125053430Y-47056257D01*
X125034732Y-47117897D01*
X125028418Y-47182000D01*
X124900712Y-47182000D01*
X124947023Y-47135689D01*
X125015640Y-47032996D01*
X125062905Y-46918889D01*
X125087000Y-46797754D01*
X125087000Y-46674246D01*
X125062905Y-46553111D01*
X125015640Y-46439004D01*
X124947023Y-46336311D01*
X124887000Y-46276288D01*
X124887000Y-43536393D01*
X124915678Y-43524514D01*
X125073239Y-43419234D01*
X125207234Y-43285239D01*
X125312514Y-43127678D01*
X125385031Y-42952605D01*
X125408304Y-42835605D01*
X126700000Y-44119616D01*
X126700001Y-45515040D01*
X126699127Y-45520050D01*
X126700001Y-45557036D01*
X126700001Y-45572980D01*
X126700497Y-45578013D01*
X126701114Y-45604137D01*
X126704609Y-45619766D01*
X126706179Y-45635709D01*
X126713767Y-45660723D01*
X126719469Y-45686222D01*
X126725947Y-45700872D01*
X126730596Y-45716198D01*
X126742909Y-45739235D01*
X126753483Y-45763148D01*
X126762700Y-45776260D01*
X126770246Y-45790378D01*
X126786818Y-45810571D01*
X126789731Y-45814715D01*
X126800146Y-45826812D01*
X126823606Y-45855397D01*
X126827536Y-45858623D01*
X127054130Y-46121790D01*
X127064232Y-46134100D01*
X127067805Y-46137673D01*
X127071107Y-46141508D01*
X127082649Y-46152517D01*
X127445240Y-46515110D01*
X127458605Y-46531395D01*
X127474889Y-46544759D01*
X127474898Y-46544768D01*
X127523623Y-46584755D01*
X127556740Y-46602456D01*
X127597804Y-46624405D01*
X127678293Y-46648822D01*
X127741022Y-46655000D01*
X127741034Y-46655000D01*
X127761999Y-46657065D01*
X127782964Y-46655000D01*
X130987015Y-46655000D01*
X131084504Y-46720140D01*
X131198611Y-46767405D01*
X131319746Y-46791500D01*
X131443254Y-46791500D01*
X131564389Y-46767405D01*
X131678496Y-46720140D01*
X131687812Y-46713916D01*
X133393000Y-48419105D01*
X133406369Y-48435395D01*
X133422659Y-48448764D01*
X133422663Y-48448768D01*
X133471387Y-48488756D01*
X133545567Y-48528405D01*
X133564301Y-48534088D01*
X133626057Y-48552822D01*
X133688786Y-48559000D01*
X133688797Y-48559000D01*
X133709764Y-48561065D01*
X133730731Y-48559000D01*
X135188418Y-48559000D01*
X135188418Y-49082000D01*
X135194732Y-49146103D01*
X135213430Y-49207743D01*
X135243794Y-49264550D01*
X135284657Y-49314343D01*
X135334450Y-49355206D01*
X135391257Y-49385570D01*
X135452897Y-49404268D01*
X135517000Y-49410582D01*
X136517000Y-49410582D01*
X136581103Y-49404268D01*
X136642743Y-49385570D01*
X136699550Y-49355206D01*
X136749343Y-49314343D01*
X136790206Y-49264550D01*
X136820570Y-49207743D01*
X136839268Y-49146103D01*
X136845582Y-49082000D01*
X136845582Y-47182000D01*
X136839268Y-47117897D01*
X136820570Y-47056257D01*
X136790206Y-46999450D01*
X136749343Y-46949657D01*
X136699550Y-46908794D01*
X136642743Y-46878430D01*
X136581103Y-46859732D01*
X136517000Y-46853418D01*
X135517000Y-46853418D01*
X135452897Y-46859732D01*
X135391257Y-46878430D01*
X135334450Y-46908794D01*
X135284657Y-46949657D01*
X135243794Y-46999450D01*
X135213430Y-47056257D01*
X135194732Y-47117897D01*
X135188418Y-47182000D01*
X135188418Y-47705000D01*
X133886633Y-47705000D01*
X132122530Y-45940898D01*
X132109159Y-45924605D01*
X132044140Y-45871245D01*
X131969960Y-45831595D01*
X131898703Y-45809979D01*
X131868523Y-45764811D01*
X131781189Y-45677477D01*
X131678496Y-45608860D01*
X131564389Y-45561595D01*
X131443254Y-45537500D01*
X131319746Y-45537500D01*
X131198611Y-45561595D01*
X131084504Y-45608860D01*
X130981811Y-45677477D01*
X130894477Y-45764811D01*
X130870296Y-45801000D01*
X129223711Y-45801000D01*
X129225582Y-45782000D01*
X129225582Y-44274448D01*
X130070238Y-45119105D01*
X130083607Y-45135395D01*
X130099897Y-45148764D01*
X130099900Y-45148767D01*
X130148625Y-45188755D01*
X130174629Y-45202654D01*
X130222806Y-45228405D01*
X130303295Y-45252822D01*
X130366024Y-45259000D01*
X130366036Y-45259000D01*
X130387001Y-45261065D01*
X130407966Y-45259000D01*
X132648418Y-45259000D01*
X132648418Y-45782000D01*
X132654732Y-45846103D01*
X132673430Y-45907743D01*
X132703794Y-45964550D01*
X132744657Y-46014343D01*
X132794450Y-46055206D01*
X132851257Y-46085570D01*
X132912897Y-46104268D01*
X132977000Y-46110582D01*
X133939006Y-46110582D01*
X133997677Y-46198389D01*
X134085011Y-46285723D01*
X134187704Y-46354340D01*
X134301811Y-46401605D01*
X134422946Y-46425700D01*
X134546454Y-46425700D01*
X134667589Y-46401605D01*
X134781696Y-46354340D01*
X134884389Y-46285723D01*
X134971723Y-46198389D01*
X135040340Y-46095696D01*
X135087605Y-45981589D01*
X135111700Y-45860454D01*
X135111700Y-45736946D01*
X135087605Y-45615811D01*
X135040340Y-45501704D01*
X134971723Y-45399011D01*
X134884389Y-45311677D01*
X134781696Y-45243060D01*
X134667589Y-45195795D01*
X134546454Y-45171700D01*
X134422946Y-45171700D01*
X134420964Y-45172094D01*
X134305582Y-45056713D01*
X134305582Y-44484452D01*
X138240234Y-48419105D01*
X138253603Y-48435395D01*
X138269893Y-48448764D01*
X138269897Y-48448768D01*
X138318622Y-48488756D01*
X138392801Y-48528405D01*
X138411535Y-48534088D01*
X138473291Y-48552822D01*
X138536020Y-48559000D01*
X138536031Y-48559000D01*
X138556998Y-48561065D01*
X138577965Y-48559000D01*
X140268418Y-48559000D01*
X140268418Y-49082000D01*
X140274732Y-49146103D01*
X140293430Y-49207743D01*
X140323794Y-49264550D01*
X140364657Y-49314343D01*
X140414450Y-49355206D01*
X140471257Y-49385570D01*
X140532897Y-49404268D01*
X140597000Y-49410582D01*
X141089350Y-49410582D01*
X140901952Y-49597980D01*
X121649232Y-49597980D01*
X121728185Y-49533185D01*
X121807537Y-49436494D01*
X121866502Y-49326180D01*
X121902812Y-49206482D01*
X121915072Y-49082000D01*
X121912000Y-48417750D01*
X121753250Y-48259000D01*
X120904000Y-48259000D01*
X120904000Y-48279000D01*
X120650000Y-48279000D01*
X120650000Y-48259000D01*
X119800750Y-48259000D01*
X119642000Y-48417750D01*
X119638928Y-49082000D01*
X119651188Y-49206482D01*
X119687498Y-49326180D01*
X119746463Y-49436494D01*
X119825815Y-49533185D01*
X119904768Y-49597980D01*
X117421288Y-49597980D01*
X119639841Y-47379427D01*
X119642000Y-47846250D01*
X119800750Y-48005000D01*
X120650000Y-48005000D01*
X120650000Y-46705750D01*
X120904000Y-46705750D01*
X120904000Y-48005000D01*
X121753250Y-48005000D01*
X121912000Y-47846250D01*
X121915072Y-47182000D01*
X121902812Y-47057518D01*
X121866502Y-46937820D01*
X121807537Y-46827506D01*
X121728185Y-46730815D01*
X121631494Y-46651463D01*
X121521180Y-46592498D01*
X121401482Y-46556188D01*
X121277000Y-46543928D01*
X121062750Y-46547000D01*
X120904000Y-46705750D01*
X120650000Y-46705750D01*
X120491250Y-46547000D01*
X120472537Y-46546732D01*
X121251369Y-45767900D01*
X121336254Y-45767900D01*
X121457389Y-45743805D01*
X121571496Y-45696540D01*
X121674189Y-45627923D01*
X121761523Y-45540589D01*
X121830140Y-45437896D01*
X121877405Y-45323789D01*
X121901500Y-45202654D01*
X121901500Y-45079146D01*
X121877405Y-44958011D01*
X121830140Y-44843904D01*
X121761523Y-44741211D01*
X121674189Y-44653877D01*
X121571496Y-44585260D01*
X121457389Y-44537995D01*
X121336254Y-44513900D01*
X121212746Y-44513900D01*
X121091611Y-44537995D01*
X120977504Y-44585260D01*
X120874811Y-44653877D01*
X120787477Y-44741211D01*
X120718860Y-44843904D01*
X120671595Y-44958011D01*
X120647500Y-45079146D01*
X120647500Y-45164031D01*
X120442000Y-45369531D01*
X120442000Y-45036712D01*
X120502023Y-44976689D01*
X120570640Y-44873996D01*
X120617905Y-44759889D01*
X120642000Y-44638754D01*
X120642000Y-44515246D01*
X120617905Y-44394111D01*
X120570640Y-44280004D01*
X120502023Y-44177311D01*
X120414689Y-44089977D01*
X120311996Y-44021360D01*
X120197889Y-43974095D01*
X120076754Y-43950000D01*
X119953246Y-43950000D01*
X119832111Y-43974095D01*
X119718004Y-44021360D01*
X119615311Y-44089977D01*
X119527977Y-44177311D01*
X119459360Y-44280004D01*
X119412095Y-44394111D01*
X119388000Y-44515246D01*
X119388000Y-44638754D01*
X119412095Y-44759889D01*
X119459360Y-44873996D01*
X119527977Y-44976689D01*
X119588000Y-45036712D01*
X119588001Y-45479630D01*
X117362632Y-47705000D01*
X116525582Y-47705000D01*
X116525582Y-47182000D01*
X116519268Y-47117897D01*
X116500570Y-47056257D01*
X116470206Y-46999450D01*
X116429343Y-46949657D01*
X116379550Y-46908794D01*
X116322743Y-46878430D01*
X116261103Y-46859732D01*
X116197000Y-46853418D01*
X115197000Y-46853418D01*
X115132897Y-46859732D01*
X115071257Y-46878430D01*
X115014450Y-46908794D01*
X114964657Y-46949657D01*
X114923794Y-46999450D01*
X114893430Y-47056257D01*
X114874732Y-47117897D01*
X114868418Y-47182000D01*
X114868418Y-48955001D01*
X111445582Y-48955001D01*
X111445582Y-47182000D01*
X111439268Y-47117897D01*
X111420570Y-47056257D01*
X111390206Y-46999450D01*
X111349343Y-46949657D01*
X111299550Y-46908794D01*
X111242743Y-46878430D01*
X111181103Y-46859732D01*
X111117000Y-46853418D01*
X110117000Y-46853418D01*
X110052897Y-46859732D01*
X109991257Y-46878430D01*
X109934450Y-46908794D01*
X109884657Y-46949657D01*
X109843794Y-46999450D01*
X109813430Y-47056257D01*
X109794732Y-47117897D01*
X109788418Y-47182000D01*
X109788418Y-48955001D01*
X107663871Y-48955001D01*
X106553767Y-47844899D01*
X106540395Y-47828605D01*
X106475376Y-47775245D01*
X106401196Y-47735595D01*
X106365582Y-47724791D01*
X106365582Y-47182000D01*
X106359268Y-47117897D01*
X106340570Y-47056257D01*
X106310206Y-46999450D01*
X106269343Y-46949657D01*
X106219550Y-46908794D01*
X106162743Y-46878430D01*
X106101103Y-46859732D01*
X106037000Y-46853418D01*
X105037000Y-46853418D01*
X104972897Y-46859732D01*
X104911257Y-46878430D01*
X104854450Y-46908794D01*
X104804657Y-46949657D01*
X104763794Y-46999450D01*
X104733430Y-47056257D01*
X104714732Y-47117897D01*
X104708418Y-47182000D01*
X104708418Y-49082000D01*
X104714732Y-49146103D01*
X104733430Y-49207743D01*
X104763794Y-49264550D01*
X104804657Y-49314343D01*
X104854450Y-49355206D01*
X104911257Y-49385570D01*
X104972897Y-49404268D01*
X105037000Y-49410582D01*
X106037000Y-49410582D01*
X106101103Y-49404268D01*
X106162743Y-49385570D01*
X106219550Y-49355206D01*
X106269343Y-49314343D01*
X106310206Y-49264550D01*
X106340570Y-49207743D01*
X106359268Y-49146103D01*
X106365582Y-49082000D01*
X106365582Y-48864451D01*
X107099110Y-49597980D01*
X101382849Y-49597980D01*
X101139838Y-49354970D01*
X101189343Y-49314343D01*
X101230206Y-49264550D01*
X101260570Y-49207743D01*
X101279268Y-49146103D01*
X101285582Y-49082000D01*
X101285582Y-47182000D01*
X101279268Y-47117897D01*
X101260570Y-47056257D01*
X101230206Y-46999450D01*
X101189343Y-46949657D01*
X101139550Y-46908794D01*
X101082743Y-46878430D01*
X101021103Y-46859732D01*
X100957000Y-46853418D01*
X99957000Y-46853418D01*
X99892897Y-46859732D01*
X99831257Y-46878430D01*
X99774450Y-46908794D01*
X99724657Y-46949657D01*
X99683794Y-46999450D01*
X99653430Y-47056257D01*
X99634732Y-47117897D01*
X99628418Y-47182000D01*
X99628418Y-48578249D01*
X98344000Y-47293832D01*
X98344000Y-46110582D01*
X98417000Y-46110582D01*
X98481103Y-46104268D01*
X98542743Y-46085570D01*
X98599550Y-46055206D01*
X98649343Y-46014343D01*
X98690206Y-45964550D01*
X98720570Y-45907743D01*
X98739268Y-45846103D01*
X98745582Y-45782000D01*
X98745582Y-43882000D01*
X102168418Y-43882000D01*
X102168418Y-45782000D01*
X102174732Y-45846103D01*
X102193430Y-45907743D01*
X102223794Y-45964550D01*
X102264657Y-46014343D01*
X102314450Y-46055206D01*
X102371257Y-46085570D01*
X102432897Y-46104268D01*
X102497000Y-46110582D01*
X103497000Y-46110582D01*
X103561103Y-46104268D01*
X103622743Y-46085570D01*
X103679550Y-46055206D01*
X103729343Y-46014343D01*
X103770206Y-45964550D01*
X103800570Y-45907743D01*
X103819268Y-45846103D01*
X103825582Y-45782000D01*
X103825582Y-43882000D01*
X103819268Y-43817897D01*
X103800570Y-43756257D01*
X103770206Y-43699450D01*
X103729343Y-43649657D01*
X103679550Y-43608794D01*
X103622743Y-43578430D01*
X103586763Y-43567516D01*
X103599905Y-43535789D01*
X103624000Y-43414654D01*
X103624000Y-43291146D01*
X103599905Y-43170011D01*
X103552640Y-43055904D01*
X103484023Y-42953211D01*
X103396689Y-42865877D01*
X103293996Y-42797260D01*
X103179889Y-42749995D01*
X103058754Y-42725900D01*
X102935246Y-42725900D01*
X102814111Y-42749995D01*
X102700004Y-42797260D01*
X102597311Y-42865877D01*
X102509977Y-42953211D01*
X102441360Y-43055904D01*
X102394095Y-43170011D01*
X102370000Y-43291146D01*
X102370000Y-43414654D01*
X102394095Y-43535789D01*
X102407237Y-43567516D01*
X102371257Y-43578430D01*
X102314450Y-43608794D01*
X102264657Y-43649657D01*
X102223794Y-43699450D01*
X102193430Y-43756257D01*
X102174732Y-43817897D01*
X102168418Y-43882000D01*
X98745582Y-43882000D01*
X98739268Y-43817897D01*
X98720570Y-43756257D01*
X98690206Y-43699450D01*
X98649343Y-43649657D01*
X98599550Y-43608794D01*
X98542743Y-43578430D01*
X98481103Y-43559732D01*
X98417000Y-43553418D01*
X97417000Y-43553418D01*
X97352897Y-43559732D01*
X97291257Y-43578430D01*
X97234450Y-43608794D01*
X97184657Y-43649657D01*
X97143794Y-43699450D01*
X97113430Y-43756257D01*
X97094732Y-43817897D01*
X97088418Y-43882000D01*
X97088418Y-45782000D01*
X97094732Y-45846103D01*
X97113430Y-45907743D01*
X97143794Y-45964550D01*
X97184657Y-46014343D01*
X97234450Y-46055206D01*
X97291257Y-46085570D01*
X97352897Y-46104268D01*
X97417000Y-46110582D01*
X97490001Y-46110582D01*
X97490000Y-47449733D01*
X97487935Y-47470700D01*
X97490000Y-47491667D01*
X97490000Y-47491677D01*
X97496178Y-47554406D01*
X97520595Y-47634895D01*
X97520596Y-47634896D01*
X97560245Y-47709076D01*
X97582009Y-47735595D01*
X97613605Y-47774095D01*
X97629900Y-47787468D01*
X100204258Y-50361828D01*
X100211990Y-50374835D01*
X100224372Y-50398000D01*
X93364664Y-50398000D01*
X93300113Y-50391671D01*
X93256948Y-50378639D01*
X93217125Y-50357464D01*
X93182178Y-50328961D01*
X93153433Y-50294214D01*
X93131983Y-50254544D01*
X93118648Y-50211465D01*
X93112000Y-50148217D01*
X93112000Y-42545000D01*
X93214928Y-42545000D01*
X93227188Y-42669482D01*
X93263498Y-42789180D01*
X93322463Y-42899494D01*
X93401815Y-42996185D01*
X93498506Y-43075537D01*
X93608820Y-43134502D01*
X93728518Y-43170812D01*
X93853000Y-43183072D01*
X94202250Y-43180000D01*
X94361000Y-43021250D01*
X94361000Y-42037000D01*
X93376750Y-42037000D01*
X93218000Y-42195750D01*
X93214928Y-42545000D01*
X93112000Y-42545000D01*
X93112000Y-41275000D01*
X93214928Y-41275000D01*
X93218000Y-41624250D01*
X93376750Y-41783000D01*
X94361000Y-41783000D01*
X94361000Y-40798750D01*
X94202250Y-40640000D01*
X93853000Y-40636928D01*
X93728518Y-40649188D01*
X93608820Y-40685498D01*
X93498506Y-40744463D01*
X93401815Y-40823815D01*
X93322463Y-40920506D01*
X93263498Y-41030820D01*
X93227188Y-41150518D01*
X93214928Y-41275000D01*
X93112000Y-41275000D01*
X93112000Y-27324665D01*
X93118329Y-27260114D01*
X93131362Y-27216947D01*
X93152534Y-27177128D01*
X93181038Y-27142179D01*
X93215788Y-27113431D01*
X93255455Y-27091983D01*
X93298535Y-27078648D01*
X93361783Y-27072000D01*
X97642156Y-27072000D01*
X97636999Y-27076232D01*
G36*
X137728418Y-45782000D02*
G01*
X137734732Y-45846103D01*
X137753430Y-45907743D01*
X137783794Y-45964550D01*
X137824657Y-46014343D01*
X137874450Y-46055206D01*
X137931257Y-46085570D01*
X137992897Y-46104268D01*
X138057000Y-46110582D01*
X139057000Y-46110582D01*
X139121103Y-46104268D01*
X139182743Y-46085570D01*
X139239550Y-46055206D01*
X139289343Y-46014343D01*
X139330206Y-45964550D01*
X139360570Y-45907743D01*
X139379268Y-45846103D01*
X139385582Y-45782000D01*
X139385582Y-44337750D01*
X141470401Y-46422570D01*
X141470401Y-46853418D01*
X140597000Y-46853418D01*
X140532897Y-46859732D01*
X140471257Y-46878430D01*
X140414450Y-46908794D01*
X140364657Y-46949657D01*
X140323794Y-46999450D01*
X140293430Y-47056257D01*
X140274732Y-47117897D01*
X140268418Y-47182000D01*
X140268418Y-47705000D01*
X138733867Y-47705000D01*
X135037566Y-44008700D01*
X137728418Y-44008700D01*
X137728418Y-45782000D01*
G37*
X137728418Y-45782000D02*
X137734732Y-45846103D01*
X137753430Y-45907743D01*
X137783794Y-45964550D01*
X137824657Y-46014343D01*
X137874450Y-46055206D01*
X137931257Y-46085570D01*
X137992897Y-46104268D01*
X138057000Y-46110582D01*
X139057000Y-46110582D01*
X139121103Y-46104268D01*
X139182743Y-46085570D01*
X139239550Y-46055206D01*
X139289343Y-46014343D01*
X139330206Y-45964550D01*
X139360570Y-45907743D01*
X139379268Y-45846103D01*
X139385582Y-45782000D01*
X139385582Y-44337750D01*
X141470401Y-46422570D01*
X141470401Y-46853418D01*
X140597000Y-46853418D01*
X140532897Y-46859732D01*
X140471257Y-46878430D01*
X140414450Y-46908794D01*
X140364657Y-46949657D01*
X140323794Y-46999450D01*
X140293430Y-47056257D01*
X140274732Y-47117897D01*
X140268418Y-47182000D01*
X140268418Y-47705000D01*
X138733867Y-47705000D01*
X135037566Y-44008700D01*
X137728418Y-44008700D01*
X137728418Y-45782000D01*
G36*
X122942112Y-33779991D02*
G01*
X122713750Y-33782000D01*
X122555000Y-33940750D01*
X122555000Y-34925000D01*
X122575000Y-34925000D01*
X122575000Y-35179000D01*
X122555000Y-35179000D01*
X122555000Y-36163250D01*
X122713750Y-36322000D01*
X123063000Y-36325072D01*
X123187482Y-36312812D01*
X123307180Y-36276502D01*
X123417494Y-36217537D01*
X123514185Y-36138185D01*
X123593537Y-36041494D01*
X123652502Y-35931180D01*
X123688812Y-35811482D01*
X123701072Y-35687000D01*
X123700722Y-35647214D01*
X123712766Y-35665239D01*
X123846761Y-35799234D01*
X124004322Y-35904514D01*
X124179395Y-35977031D01*
X124365251Y-36014000D01*
X124554749Y-36014000D01*
X124740605Y-35977031D01*
X124915678Y-35904514D01*
X125073239Y-35799234D01*
X125207234Y-35665239D01*
X125312514Y-35507678D01*
X125385031Y-35332605D01*
X125422000Y-35146749D01*
X125422000Y-34993877D01*
X128652072Y-38246139D01*
X128665905Y-38262995D01*
X128697704Y-38289092D01*
X128729703Y-38315537D01*
X128730356Y-38315889D01*
X128730924Y-38316355D01*
X128767297Y-38335797D01*
X128803747Y-38355440D01*
X128804452Y-38355657D01*
X128805104Y-38356005D01*
X128844821Y-38368054D01*
X128884153Y-38380132D01*
X128884882Y-38380206D01*
X128885593Y-38380422D01*
X128927088Y-38384509D01*
X128967831Y-38388662D01*
X128989530Y-38386600D01*
X129279418Y-38386600D01*
X129279418Y-38910000D01*
X129285732Y-38974103D01*
X129304430Y-39035743D01*
X129334794Y-39092550D01*
X129375657Y-39142343D01*
X129425450Y-39183206D01*
X129482257Y-39213570D01*
X129503454Y-39220000D01*
X129482257Y-39226430D01*
X129425450Y-39256794D01*
X129375657Y-39297657D01*
X129334794Y-39347450D01*
X129304430Y-39404257D01*
X129285732Y-39465897D01*
X129279418Y-39530000D01*
X129279418Y-40180000D01*
X129285732Y-40244103D01*
X129304430Y-40305743D01*
X129334794Y-40362550D01*
X129375657Y-40412343D01*
X129425450Y-40453206D01*
X129482257Y-40483570D01*
X129503454Y-40490000D01*
X129482257Y-40496430D01*
X129425450Y-40526794D01*
X129375657Y-40567657D01*
X129334794Y-40617450D01*
X129304430Y-40674257D01*
X129285732Y-40735897D01*
X129279418Y-40800000D01*
X129279418Y-41450000D01*
X129285732Y-41514103D01*
X129287855Y-41521103D01*
X129253506Y-41539463D01*
X129156815Y-41618815D01*
X129077463Y-41715506D01*
X129018498Y-41825820D01*
X128982188Y-41945518D01*
X128969928Y-42070000D01*
X128973000Y-42109250D01*
X129131750Y-42268000D01*
X129981000Y-42268000D01*
X129981000Y-42248000D01*
X130235000Y-42248000D01*
X130235000Y-42268000D01*
X130255000Y-42268000D01*
X130255000Y-42522000D01*
X130235000Y-42522000D01*
X130235000Y-43196250D01*
X130393750Y-43355000D01*
X130608000Y-43358072D01*
X130732482Y-43345812D01*
X130852180Y-43309502D01*
X130962494Y-43250537D01*
X131059185Y-43171185D01*
X131138537Y-43074494D01*
X131160339Y-43033707D01*
X131974636Y-43848005D01*
X131988005Y-43864295D01*
X132004295Y-43877664D01*
X132004299Y-43877668D01*
X132053023Y-43917656D01*
X132109938Y-43948076D01*
X132127204Y-43957305D01*
X132207693Y-43981722D01*
X132270422Y-43987900D01*
X132270433Y-43987900D01*
X132291400Y-43989965D01*
X132312367Y-43987900D01*
X132648418Y-43987900D01*
X132648418Y-44405000D01*
X130563871Y-44405000D01*
X129506994Y-43348124D01*
X129608000Y-43358072D01*
X129822250Y-43355000D01*
X129981000Y-43196250D01*
X129981000Y-42522000D01*
X129131750Y-42522000D01*
X128973000Y-42680750D01*
X128969928Y-42720000D01*
X128982188Y-42844482D01*
X129018498Y-42964180D01*
X129077463Y-43074494D01*
X129125360Y-43132857D01*
X129116002Y-43131935D01*
X129095035Y-43134000D01*
X127673727Y-43134000D01*
X125385147Y-41042442D01*
X125377885Y-41033594D01*
X125354160Y-41014123D01*
X125347066Y-41007640D01*
X125337954Y-41000824D01*
X125312866Y-40980234D01*
X125304340Y-40975677D01*
X125296594Y-40969882D01*
X125267307Y-40955882D01*
X125238686Y-40940584D01*
X125229429Y-40937776D01*
X125220708Y-40933607D01*
X125189281Y-40925597D01*
X125158197Y-40916167D01*
X125148564Y-40915218D01*
X125139202Y-40912832D01*
X125106822Y-40911107D01*
X125095468Y-40909989D01*
X125085829Y-40909989D01*
X125055210Y-40908358D01*
X125043892Y-40909989D01*
X125027211Y-40909989D01*
X125073239Y-40879234D01*
X125207234Y-40745239D01*
X125312514Y-40587678D01*
X125385031Y-40412605D01*
X125422000Y-40226749D01*
X125422000Y-40037251D01*
X125385031Y-39851395D01*
X125312514Y-39676322D01*
X125207234Y-39518761D01*
X125073239Y-39384766D01*
X124915678Y-39279486D01*
X124740605Y-39206969D01*
X124554749Y-39170000D01*
X124365251Y-39170000D01*
X124179395Y-39206969D01*
X124004322Y-39279486D01*
X123846761Y-39384766D01*
X123743076Y-39488451D01*
X123719757Y-39444822D01*
X123679769Y-39396098D01*
X123679765Y-39396094D01*
X123666396Y-39379804D01*
X123650107Y-39366436D01*
X123193569Y-38909899D01*
X123180196Y-38893604D01*
X123115177Y-38840244D01*
X123040997Y-38800594D01*
X122960508Y-38776177D01*
X122897779Y-38769999D01*
X122897768Y-38769999D01*
X122876801Y-38767934D01*
X122855834Y-38769999D01*
X122000166Y-38769999D01*
X121979199Y-38767934D01*
X121958232Y-38769999D01*
X121958221Y-38769999D01*
X121895492Y-38776177D01*
X121844569Y-38791625D01*
X121826876Y-38796992D01*
X122118716Y-38505152D01*
X122147395Y-38517031D01*
X122333251Y-38554000D01*
X122522749Y-38554000D01*
X122708605Y-38517031D01*
X122883678Y-38444514D01*
X123041239Y-38339234D01*
X123175234Y-38205239D01*
X123187278Y-38187214D01*
X123186928Y-38227000D01*
X123199188Y-38351482D01*
X123235498Y-38471180D01*
X123294463Y-38581494D01*
X123373815Y-38678185D01*
X123470506Y-38757537D01*
X123580820Y-38816502D01*
X123700518Y-38852812D01*
X123825000Y-38865072D01*
X124174250Y-38862000D01*
X124333000Y-38703250D01*
X124333000Y-37719000D01*
X124587000Y-37719000D01*
X124587000Y-38703250D01*
X124745750Y-38862000D01*
X125095000Y-38865072D01*
X125219482Y-38852812D01*
X125339180Y-38816502D01*
X125449494Y-38757537D01*
X125546185Y-38678185D01*
X125625537Y-38581494D01*
X125684502Y-38471180D01*
X125720812Y-38351482D01*
X125733072Y-38227000D01*
X125730000Y-37877750D01*
X125571250Y-37719000D01*
X124587000Y-37719000D01*
X124333000Y-37719000D01*
X124313000Y-37719000D01*
X124313000Y-37465000D01*
X124333000Y-37465000D01*
X124333000Y-36480750D01*
X124587000Y-36480750D01*
X124587000Y-37465000D01*
X125571250Y-37465000D01*
X125730000Y-37306250D01*
X125733072Y-36957000D01*
X125720812Y-36832518D01*
X125684502Y-36712820D01*
X125625537Y-36602506D01*
X125546185Y-36505815D01*
X125449494Y-36426463D01*
X125339180Y-36367498D01*
X125219482Y-36331188D01*
X125095000Y-36318928D01*
X124745750Y-36322000D01*
X124587000Y-36480750D01*
X124333000Y-36480750D01*
X124174250Y-36322000D01*
X123825000Y-36318928D01*
X123700518Y-36331188D01*
X123580820Y-36367498D01*
X123470506Y-36426463D01*
X123373815Y-36505815D01*
X123294463Y-36602506D01*
X123235498Y-36712820D01*
X123199188Y-36832518D01*
X123186928Y-36957000D01*
X123187278Y-36996786D01*
X123175234Y-36978761D01*
X123041239Y-36844766D01*
X122883678Y-36739486D01*
X122708605Y-36666969D01*
X122522749Y-36630000D01*
X122333251Y-36630000D01*
X122147395Y-36666969D01*
X121972322Y-36739486D01*
X121814761Y-36844766D01*
X121680766Y-36978761D01*
X121575486Y-37136322D01*
X121502969Y-37311395D01*
X121466000Y-37497251D01*
X121466000Y-37686749D01*
X121502969Y-37872605D01*
X121514848Y-37901284D01*
X121127000Y-38289132D01*
X121127000Y-35687000D01*
X121154928Y-35687000D01*
X121167188Y-35811482D01*
X121203498Y-35931180D01*
X121262463Y-36041494D01*
X121341815Y-36138185D01*
X121438506Y-36217537D01*
X121548820Y-36276502D01*
X121668518Y-36312812D01*
X121793000Y-36325072D01*
X122142250Y-36322000D01*
X122301000Y-36163250D01*
X122301000Y-35179000D01*
X121316750Y-35179000D01*
X121158000Y-35337750D01*
X121154928Y-35687000D01*
X121127000Y-35687000D01*
X121127000Y-34043582D01*
X121150000Y-34043582D01*
X121214103Y-34037268D01*
X121275743Y-34018570D01*
X121316320Y-33996881D01*
X121262463Y-34062506D01*
X121203498Y-34172820D01*
X121167188Y-34292518D01*
X121154928Y-34417000D01*
X121158000Y-34766250D01*
X121316750Y-34925000D01*
X122301000Y-34925000D01*
X122301000Y-33940750D01*
X122142250Y-33782000D01*
X121793000Y-33778928D01*
X121668518Y-33791188D01*
X121548820Y-33827498D01*
X121438506Y-33886463D01*
X121419513Y-33902050D01*
X121423206Y-33897550D01*
X121453570Y-33840743D01*
X121472268Y-33779103D01*
X121478582Y-33715000D01*
X121478582Y-32316461D01*
X122942112Y-33779991D01*
G37*
X122942112Y-33779991D02*
X122713750Y-33782000D01*
X122555000Y-33940750D01*
X122555000Y-34925000D01*
X122575000Y-34925000D01*
X122575000Y-35179000D01*
X122555000Y-35179000D01*
X122555000Y-36163250D01*
X122713750Y-36322000D01*
X123063000Y-36325072D01*
X123187482Y-36312812D01*
X123307180Y-36276502D01*
X123417494Y-36217537D01*
X123514185Y-36138185D01*
X123593537Y-36041494D01*
X123652502Y-35931180D01*
X123688812Y-35811482D01*
X123701072Y-35687000D01*
X123700722Y-35647214D01*
X123712766Y-35665239D01*
X123846761Y-35799234D01*
X124004322Y-35904514D01*
X124179395Y-35977031D01*
X124365251Y-36014000D01*
X124554749Y-36014000D01*
X124740605Y-35977031D01*
X124915678Y-35904514D01*
X125073239Y-35799234D01*
X125207234Y-35665239D01*
X125312514Y-35507678D01*
X125385031Y-35332605D01*
X125422000Y-35146749D01*
X125422000Y-34993877D01*
X128652072Y-38246139D01*
X128665905Y-38262995D01*
X128697704Y-38289092D01*
X128729703Y-38315537D01*
X128730356Y-38315889D01*
X128730924Y-38316355D01*
X128767297Y-38335797D01*
X128803747Y-38355440D01*
X128804452Y-38355657D01*
X128805104Y-38356005D01*
X128844821Y-38368054D01*
X128884153Y-38380132D01*
X128884882Y-38380206D01*
X128885593Y-38380422D01*
X128927088Y-38384509D01*
X128967831Y-38388662D01*
X128989530Y-38386600D01*
X129279418Y-38386600D01*
X129279418Y-38910000D01*
X129285732Y-38974103D01*
X129304430Y-39035743D01*
X129334794Y-39092550D01*
X129375657Y-39142343D01*
X129425450Y-39183206D01*
X129482257Y-39213570D01*
X129503454Y-39220000D01*
X129482257Y-39226430D01*
X129425450Y-39256794D01*
X129375657Y-39297657D01*
X129334794Y-39347450D01*
X129304430Y-39404257D01*
X129285732Y-39465897D01*
X129279418Y-39530000D01*
X129279418Y-40180000D01*
X129285732Y-40244103D01*
X129304430Y-40305743D01*
X129334794Y-40362550D01*
X129375657Y-40412343D01*
X129425450Y-40453206D01*
X129482257Y-40483570D01*
X129503454Y-40490000D01*
X129482257Y-40496430D01*
X129425450Y-40526794D01*
X129375657Y-40567657D01*
X129334794Y-40617450D01*
X129304430Y-40674257D01*
X129285732Y-40735897D01*
X129279418Y-40800000D01*
X129279418Y-41450000D01*
X129285732Y-41514103D01*
X129287855Y-41521103D01*
X129253506Y-41539463D01*
X129156815Y-41618815D01*
X129077463Y-41715506D01*
X129018498Y-41825820D01*
X128982188Y-41945518D01*
X128969928Y-42070000D01*
X128973000Y-42109250D01*
X129131750Y-42268000D01*
X129981000Y-42268000D01*
X129981000Y-42248000D01*
X130235000Y-42248000D01*
X130235000Y-42268000D01*
X130255000Y-42268000D01*
X130255000Y-42522000D01*
X130235000Y-42522000D01*
X130235000Y-43196250D01*
X130393750Y-43355000D01*
X130608000Y-43358072D01*
X130732482Y-43345812D01*
X130852180Y-43309502D01*
X130962494Y-43250537D01*
X131059185Y-43171185D01*
X131138537Y-43074494D01*
X131160339Y-43033707D01*
X131974636Y-43848005D01*
X131988005Y-43864295D01*
X132004295Y-43877664D01*
X132004299Y-43877668D01*
X132053023Y-43917656D01*
X132109938Y-43948076D01*
X132127204Y-43957305D01*
X132207693Y-43981722D01*
X132270422Y-43987900D01*
X132270433Y-43987900D01*
X132291400Y-43989965D01*
X132312367Y-43987900D01*
X132648418Y-43987900D01*
X132648418Y-44405000D01*
X130563871Y-44405000D01*
X129506994Y-43348124D01*
X129608000Y-43358072D01*
X129822250Y-43355000D01*
X129981000Y-43196250D01*
X129981000Y-42522000D01*
X129131750Y-42522000D01*
X128973000Y-42680750D01*
X128969928Y-42720000D01*
X128982188Y-42844482D01*
X129018498Y-42964180D01*
X129077463Y-43074494D01*
X129125360Y-43132857D01*
X129116002Y-43131935D01*
X129095035Y-43134000D01*
X127673727Y-43134000D01*
X125385147Y-41042442D01*
X125377885Y-41033594D01*
X125354160Y-41014123D01*
X125347066Y-41007640D01*
X125337954Y-41000824D01*
X125312866Y-40980234D01*
X125304340Y-40975677D01*
X125296594Y-40969882D01*
X125267307Y-40955882D01*
X125238686Y-40940584D01*
X125229429Y-40937776D01*
X125220708Y-40933607D01*
X125189281Y-40925597D01*
X125158197Y-40916167D01*
X125148564Y-40915218D01*
X125139202Y-40912832D01*
X125106822Y-40911107D01*
X125095468Y-40909989D01*
X125085829Y-40909989D01*
X125055210Y-40908358D01*
X125043892Y-40909989D01*
X125027211Y-40909989D01*
X125073239Y-40879234D01*
X125207234Y-40745239D01*
X125312514Y-40587678D01*
X125385031Y-40412605D01*
X125422000Y-40226749D01*
X125422000Y-40037251D01*
X125385031Y-39851395D01*
X125312514Y-39676322D01*
X125207234Y-39518761D01*
X125073239Y-39384766D01*
X124915678Y-39279486D01*
X124740605Y-39206969D01*
X124554749Y-39170000D01*
X124365251Y-39170000D01*
X124179395Y-39206969D01*
X124004322Y-39279486D01*
X123846761Y-39384766D01*
X123743076Y-39488451D01*
X123719757Y-39444822D01*
X123679769Y-39396098D01*
X123679765Y-39396094D01*
X123666396Y-39379804D01*
X123650107Y-39366436D01*
X123193569Y-38909899D01*
X123180196Y-38893604D01*
X123115177Y-38840244D01*
X123040997Y-38800594D01*
X122960508Y-38776177D01*
X122897779Y-38769999D01*
X122897768Y-38769999D01*
X122876801Y-38767934D01*
X122855834Y-38769999D01*
X122000166Y-38769999D01*
X121979199Y-38767934D01*
X121958232Y-38769999D01*
X121958221Y-38769999D01*
X121895492Y-38776177D01*
X121844569Y-38791625D01*
X121826876Y-38796992D01*
X122118716Y-38505152D01*
X122147395Y-38517031D01*
X122333251Y-38554000D01*
X122522749Y-38554000D01*
X122708605Y-38517031D01*
X122883678Y-38444514D01*
X123041239Y-38339234D01*
X123175234Y-38205239D01*
X123187278Y-38187214D01*
X123186928Y-38227000D01*
X123199188Y-38351482D01*
X123235498Y-38471180D01*
X123294463Y-38581494D01*
X123373815Y-38678185D01*
X123470506Y-38757537D01*
X123580820Y-38816502D01*
X123700518Y-38852812D01*
X123825000Y-38865072D01*
X124174250Y-38862000D01*
X124333000Y-38703250D01*
X124333000Y-37719000D01*
X124587000Y-37719000D01*
X124587000Y-38703250D01*
X124745750Y-38862000D01*
X125095000Y-38865072D01*
X125219482Y-38852812D01*
X125339180Y-38816502D01*
X125449494Y-38757537D01*
X125546185Y-38678185D01*
X125625537Y-38581494D01*
X125684502Y-38471180D01*
X125720812Y-38351482D01*
X125733072Y-38227000D01*
X125730000Y-37877750D01*
X125571250Y-37719000D01*
X124587000Y-37719000D01*
X124333000Y-37719000D01*
X124313000Y-37719000D01*
X124313000Y-37465000D01*
X124333000Y-37465000D01*
X124333000Y-36480750D01*
X124587000Y-36480750D01*
X124587000Y-37465000D01*
X125571250Y-37465000D01*
X125730000Y-37306250D01*
X125733072Y-36957000D01*
X125720812Y-36832518D01*
X125684502Y-36712820D01*
X125625537Y-36602506D01*
X125546185Y-36505815D01*
X125449494Y-36426463D01*
X125339180Y-36367498D01*
X125219482Y-36331188D01*
X125095000Y-36318928D01*
X124745750Y-36322000D01*
X124587000Y-36480750D01*
X124333000Y-36480750D01*
X124174250Y-36322000D01*
X123825000Y-36318928D01*
X123700518Y-36331188D01*
X123580820Y-36367498D01*
X123470506Y-36426463D01*
X123373815Y-36505815D01*
X123294463Y-36602506D01*
X123235498Y-36712820D01*
X123199188Y-36832518D01*
X123186928Y-36957000D01*
X123187278Y-36996786D01*
X123175234Y-36978761D01*
X123041239Y-36844766D01*
X122883678Y-36739486D01*
X122708605Y-36666969D01*
X122522749Y-36630000D01*
X122333251Y-36630000D01*
X122147395Y-36666969D01*
X121972322Y-36739486D01*
X121814761Y-36844766D01*
X121680766Y-36978761D01*
X121575486Y-37136322D01*
X121502969Y-37311395D01*
X121466000Y-37497251D01*
X121466000Y-37686749D01*
X121502969Y-37872605D01*
X121514848Y-37901284D01*
X121127000Y-38289132D01*
X121127000Y-35687000D01*
X121154928Y-35687000D01*
X121167188Y-35811482D01*
X121203498Y-35931180D01*
X121262463Y-36041494D01*
X121341815Y-36138185D01*
X121438506Y-36217537D01*
X121548820Y-36276502D01*
X121668518Y-36312812D01*
X121793000Y-36325072D01*
X122142250Y-36322000D01*
X122301000Y-36163250D01*
X122301000Y-35179000D01*
X121316750Y-35179000D01*
X121158000Y-35337750D01*
X121154928Y-35687000D01*
X121127000Y-35687000D01*
X121127000Y-34043582D01*
X121150000Y-34043582D01*
X121214103Y-34037268D01*
X121275743Y-34018570D01*
X121316320Y-33996881D01*
X121262463Y-34062506D01*
X121203498Y-34172820D01*
X121167188Y-34292518D01*
X121154928Y-34417000D01*
X121158000Y-34766250D01*
X121316750Y-34925000D01*
X122301000Y-34925000D01*
X122301000Y-33940750D01*
X122142250Y-33782000D01*
X121793000Y-33778928D01*
X121668518Y-33791188D01*
X121548820Y-33827498D01*
X121438506Y-33886463D01*
X121419513Y-33902050D01*
X121423206Y-33897550D01*
X121453570Y-33840743D01*
X121472268Y-33779103D01*
X121478582Y-33715000D01*
X121478582Y-32316461D01*
X122942112Y-33779991D01*
G36*
X133755549Y-41820418D02*
G01*
X133593000Y-41820418D01*
X133528897Y-41826732D01*
X133467257Y-41845430D01*
X133410450Y-41875794D01*
X133360657Y-41916657D01*
X133319794Y-41966450D01*
X133289430Y-42023257D01*
X133283000Y-42044454D01*
X133276570Y-42023257D01*
X133246206Y-41966450D01*
X133205343Y-41916657D01*
X133155550Y-41875794D01*
X133098743Y-41845430D01*
X133037103Y-41826732D01*
X132973000Y-41820418D01*
X132323000Y-41820418D01*
X132258897Y-41826732D01*
X132197257Y-41845430D01*
X132140450Y-41875794D01*
X132090657Y-41916657D01*
X132049794Y-41966450D01*
X132019430Y-42023257D01*
X132000732Y-42084897D01*
X131994418Y-42149000D01*
X131994418Y-42660049D01*
X131335300Y-42000932D01*
X131335300Y-41145978D01*
X131337366Y-41125000D01*
X131329122Y-41041293D01*
X131304705Y-40960804D01*
X131265055Y-40886624D01*
X131211695Y-40821605D01*
X131146676Y-40768245D01*
X131072496Y-40728595D01*
X130992007Y-40704178D01*
X130929278Y-40698000D01*
X130929277Y-40698000D01*
X130918449Y-40696934D01*
X130911570Y-40674257D01*
X130881206Y-40617450D01*
X130840343Y-40567657D01*
X130790550Y-40526794D01*
X130733743Y-40496430D01*
X130712546Y-40490000D01*
X130733743Y-40483570D01*
X130790550Y-40453206D01*
X130840343Y-40412343D01*
X130881206Y-40362550D01*
X130911570Y-40305743D01*
X130918772Y-40282000D01*
X132217132Y-40282000D01*
X133755549Y-41820418D01*
G37*
X133755549Y-41820418D02*
X133593000Y-41820418D01*
X133528897Y-41826732D01*
X133467257Y-41845430D01*
X133410450Y-41875794D01*
X133360657Y-41916657D01*
X133319794Y-41966450D01*
X133289430Y-42023257D01*
X133283000Y-42044454D01*
X133276570Y-42023257D01*
X133246206Y-41966450D01*
X133205343Y-41916657D01*
X133155550Y-41875794D01*
X133098743Y-41845430D01*
X133037103Y-41826732D01*
X132973000Y-41820418D01*
X132323000Y-41820418D01*
X132258897Y-41826732D01*
X132197257Y-41845430D01*
X132140450Y-41875794D01*
X132090657Y-41916657D01*
X132049794Y-41966450D01*
X132019430Y-42023257D01*
X132000732Y-42084897D01*
X131994418Y-42149000D01*
X131994418Y-42660049D01*
X131335300Y-42000932D01*
X131335300Y-41145978D01*
X131337366Y-41125000D01*
X131329122Y-41041293D01*
X131304705Y-40960804D01*
X131265055Y-40886624D01*
X131211695Y-40821605D01*
X131146676Y-40768245D01*
X131072496Y-40728595D01*
X130992007Y-40704178D01*
X130929278Y-40698000D01*
X130929277Y-40698000D01*
X130918449Y-40696934D01*
X130911570Y-40674257D01*
X130881206Y-40617450D01*
X130840343Y-40567657D01*
X130790550Y-40526794D01*
X130733743Y-40496430D01*
X130712546Y-40490000D01*
X130733743Y-40483570D01*
X130790550Y-40453206D01*
X130840343Y-40412343D01*
X130881206Y-40362550D01*
X130911570Y-40305743D01*
X130918772Y-40282000D01*
X132217132Y-40282000D01*
X133755549Y-41820418D01*
G36*
X145459886Y-27078329D02*
G01*
X145503053Y-27091362D01*
X145542872Y-27112534D01*
X145577821Y-27141038D01*
X145606569Y-27175788D01*
X145628017Y-27215455D01*
X145641352Y-27258535D01*
X145648000Y-27321783D01*
X145648000Y-31877000D01*
X142748000Y-31877000D01*
X142723224Y-31879440D01*
X142699399Y-31886667D01*
X142677443Y-31898403D01*
X142658197Y-31914197D01*
X142642403Y-31933443D01*
X142630667Y-31955399D01*
X142623440Y-31979224D01*
X142621000Y-32004000D01*
X142621000Y-38214866D01*
X140695032Y-36288900D01*
X140681659Y-36272605D01*
X140616640Y-36219245D01*
X140542460Y-36179595D01*
X140461971Y-36155178D01*
X140415293Y-36150581D01*
X140353689Y-36088977D01*
X140250996Y-36020360D01*
X140136889Y-35973095D01*
X140015754Y-35949000D01*
X139892246Y-35949000D01*
X139771111Y-35973095D01*
X139657004Y-36020360D01*
X139554311Y-36088977D01*
X139466977Y-36176311D01*
X139398360Y-36279004D01*
X139351095Y-36393111D01*
X139327000Y-36514246D01*
X139327000Y-36637754D01*
X139351095Y-36758889D01*
X139398360Y-36872996D01*
X139466977Y-36975689D01*
X139554311Y-37063023D01*
X139657004Y-37131640D01*
X139771111Y-37178905D01*
X139892246Y-37203000D01*
X140015754Y-37203000D01*
X140136889Y-37178905D01*
X140250996Y-37131640D01*
X140298377Y-37099981D01*
X141981000Y-38782606D01*
X141981000Y-39009023D01*
X141981001Y-41843081D01*
X141927103Y-41826732D01*
X141863000Y-41820418D01*
X141213000Y-41820418D01*
X141148897Y-41826732D01*
X141087257Y-41845430D01*
X141030450Y-41875794D01*
X140980657Y-41916657D01*
X140939794Y-41966450D01*
X140909430Y-42023257D01*
X140903000Y-42044454D01*
X140896570Y-42023257D01*
X140866206Y-41966450D01*
X140825343Y-41916657D01*
X140775550Y-41875794D01*
X140718743Y-41845430D01*
X140657103Y-41826732D01*
X140593000Y-41820418D01*
X140028269Y-41820418D01*
X139999355Y-41766324D01*
X139999108Y-41766023D01*
X139959368Y-41717599D01*
X139959364Y-41717595D01*
X139945995Y-41701305D01*
X139929706Y-41687937D01*
X139803367Y-41561599D01*
X139789995Y-41545305D01*
X139724976Y-41491945D01*
X139650796Y-41452295D01*
X139570307Y-41427878D01*
X139507578Y-41421700D01*
X139507567Y-41421700D01*
X139486600Y-41419635D01*
X139465633Y-41421700D01*
X137748978Y-41421700D01*
X137728000Y-41419634D01*
X137707023Y-41421700D01*
X137707022Y-41421700D01*
X137644293Y-41427878D01*
X137563804Y-41452295D01*
X137489624Y-41491945D01*
X137424605Y-41545305D01*
X137371245Y-41610324D01*
X137331595Y-41684504D01*
X137307178Y-41764993D01*
X137299934Y-41838551D01*
X137277257Y-41845430D01*
X137220450Y-41875794D01*
X137170657Y-41916657D01*
X137129794Y-41966450D01*
X137099430Y-42023257D01*
X137093000Y-42044454D01*
X137086570Y-42023257D01*
X137056206Y-41966450D01*
X137015343Y-41916657D01*
X136965550Y-41875794D01*
X136908743Y-41845430D01*
X136886066Y-41838551D01*
X136884433Y-41821960D01*
X136878822Y-41764993D01*
X136854405Y-41684504D01*
X136814755Y-41610324D01*
X136761395Y-41545305D01*
X136696376Y-41491945D01*
X136622196Y-41452295D01*
X136541707Y-41427878D01*
X136458000Y-41419634D01*
X136437023Y-41421700D01*
X136431669Y-41421700D01*
X135323656Y-40313688D01*
X135418189Y-40250523D01*
X135505523Y-40163189D01*
X135574140Y-40060496D01*
X135621405Y-39946389D01*
X135645500Y-39825254D01*
X135645500Y-39701746D01*
X135621405Y-39580611D01*
X135574140Y-39466504D01*
X135505523Y-39363811D01*
X135445500Y-39303788D01*
X135445500Y-39155668D01*
X140158869Y-34442300D01*
X140949023Y-34442300D01*
X140970000Y-34444366D01*
X141026912Y-34438761D01*
X141053707Y-34436122D01*
X141134196Y-34411705D01*
X141208376Y-34372055D01*
X141273395Y-34318695D01*
X141326755Y-34253676D01*
X141366405Y-34179496D01*
X141390822Y-34099007D01*
X141396281Y-34043582D01*
X141470000Y-34043582D01*
X141534103Y-34037268D01*
X141595743Y-34018570D01*
X141652550Y-33988206D01*
X141702343Y-33947343D01*
X141743206Y-33897550D01*
X141773570Y-33840743D01*
X141792268Y-33779103D01*
X141798582Y-33715000D01*
X141798582Y-31815000D01*
X141792268Y-31750897D01*
X141773570Y-31689257D01*
X141743206Y-31632450D01*
X141702343Y-31582657D01*
X141652550Y-31541794D01*
X141595743Y-31511430D01*
X141534103Y-31492732D01*
X141470000Y-31486418D01*
X140470000Y-31486418D01*
X140405897Y-31492732D01*
X140344257Y-31511430D01*
X140287450Y-31541794D01*
X140237657Y-31582657D01*
X140196794Y-31632450D01*
X140166430Y-31689257D01*
X140147732Y-31750897D01*
X140141418Y-31815000D01*
X140141418Y-33588300D01*
X140002966Y-33588300D01*
X139981999Y-33586235D01*
X139961032Y-33588300D01*
X139961022Y-33588300D01*
X139898293Y-33594478D01*
X139817804Y-33618895D01*
X139783273Y-33637352D01*
X139743623Y-33658545D01*
X139694899Y-33698532D01*
X139694895Y-33698536D01*
X139678605Y-33711905D01*
X139665236Y-33728195D01*
X134731400Y-38662032D01*
X134715105Y-38675405D01*
X134701733Y-38691699D01*
X134701732Y-38691700D01*
X134661745Y-38740424D01*
X134651867Y-38758905D01*
X134622095Y-38814605D01*
X134597678Y-38895094D01*
X134591500Y-38957823D01*
X134591500Y-38957833D01*
X134589435Y-38978800D01*
X134591500Y-38999768D01*
X134591500Y-39303788D01*
X134531477Y-39363811D01*
X134468312Y-39458344D01*
X132535300Y-37525332D01*
X132535300Y-34893679D01*
X132566577Y-34940489D01*
X132653911Y-35027823D01*
X132756604Y-35096440D01*
X132870711Y-35143705D01*
X132991846Y-35167800D01*
X133115354Y-35167800D01*
X133236489Y-35143705D01*
X133350596Y-35096440D01*
X133453289Y-35027823D01*
X133513312Y-34967800D01*
X133629333Y-34967800D01*
X133650300Y-34969865D01*
X133671267Y-34967800D01*
X133671278Y-34967800D01*
X133734007Y-34961622D01*
X133814496Y-34937205D01*
X133888676Y-34897555D01*
X133953695Y-34844195D01*
X133967068Y-34827900D01*
X135063081Y-33731887D01*
X135067732Y-33779103D01*
X135086430Y-33840743D01*
X135116794Y-33897550D01*
X135157657Y-33947343D01*
X135207450Y-33988206D01*
X135264257Y-34018570D01*
X135293135Y-34027330D01*
X135287095Y-34041911D01*
X135263000Y-34163046D01*
X135263000Y-34286554D01*
X135287095Y-34407689D01*
X135334360Y-34521796D01*
X135402977Y-34624489D01*
X135490311Y-34711823D01*
X135593004Y-34780440D01*
X135707111Y-34827705D01*
X135828246Y-34851800D01*
X135951754Y-34851800D01*
X136072889Y-34827705D01*
X136186996Y-34780440D01*
X136289689Y-34711823D01*
X136377023Y-34624489D01*
X136445640Y-34521796D01*
X136492905Y-34407689D01*
X136517000Y-34286554D01*
X136517000Y-34163046D01*
X136492905Y-34041911D01*
X136486865Y-34027330D01*
X136515743Y-34018570D01*
X136572550Y-33988206D01*
X136622343Y-33947343D01*
X136663206Y-33897550D01*
X136693570Y-33840743D01*
X136712268Y-33779103D01*
X136718582Y-33715000D01*
X136718582Y-31815000D01*
X136712268Y-31750897D01*
X136693570Y-31689257D01*
X136663206Y-31632450D01*
X136622343Y-31582657D01*
X136572550Y-31541794D01*
X136515743Y-31511430D01*
X136454103Y-31492732D01*
X136390000Y-31486418D01*
X135885251Y-31486418D01*
X136229370Y-31142300D01*
X138409023Y-31142300D01*
X138430000Y-31144366D01*
X138453923Y-31142010D01*
X138513707Y-31136122D01*
X138594196Y-31111705D01*
X138668376Y-31072055D01*
X138733395Y-31018695D01*
X138786755Y-30953676D01*
X138809060Y-30911946D01*
X141374300Y-30911946D01*
X141374300Y-31035454D01*
X141398395Y-31156589D01*
X141445660Y-31270696D01*
X141514277Y-31373389D01*
X141601611Y-31460723D01*
X141704304Y-31529340D01*
X141818411Y-31576605D01*
X141939546Y-31600700D01*
X142063054Y-31600700D01*
X142184189Y-31576605D01*
X142298296Y-31529340D01*
X142400989Y-31460723D01*
X142488323Y-31373389D01*
X142556940Y-31270696D01*
X142604205Y-31156589D01*
X142607047Y-31142300D01*
X143489023Y-31142300D01*
X143510000Y-31144366D01*
X143533923Y-31142010D01*
X143593707Y-31136122D01*
X143674196Y-31111705D01*
X143748376Y-31072055D01*
X143813395Y-31018695D01*
X143866755Y-30953676D01*
X143906405Y-30879496D01*
X143930822Y-30799007D01*
X143936281Y-30743582D01*
X144010000Y-30743582D01*
X144074103Y-30737268D01*
X144135743Y-30718570D01*
X144192550Y-30688206D01*
X144242343Y-30647343D01*
X144283206Y-30597550D01*
X144313570Y-30540743D01*
X144332268Y-30479103D01*
X144338582Y-30415000D01*
X144338582Y-28515000D01*
X144332268Y-28450897D01*
X144313570Y-28389257D01*
X144283206Y-28332450D01*
X144242343Y-28282657D01*
X144192550Y-28241794D01*
X144135743Y-28211430D01*
X144074103Y-28192732D01*
X144010000Y-28186418D01*
X143010000Y-28186418D01*
X142945897Y-28192732D01*
X142884257Y-28211430D01*
X142827450Y-28241794D01*
X142777657Y-28282657D01*
X142736794Y-28332450D01*
X142706430Y-28389257D01*
X142687732Y-28450897D01*
X142681418Y-28515000D01*
X142681418Y-30288300D01*
X142280667Y-30288300D01*
X142259700Y-30286235D01*
X142238733Y-30288300D01*
X142238722Y-30288300D01*
X142175993Y-30294478D01*
X142095504Y-30318895D01*
X142078756Y-30327847D01*
X142043483Y-30346700D01*
X141939546Y-30346700D01*
X141818411Y-30370795D01*
X141704304Y-30418060D01*
X141601611Y-30486677D01*
X141514277Y-30574011D01*
X141445660Y-30676704D01*
X141398395Y-30790811D01*
X141374300Y-30911946D01*
X138809060Y-30911946D01*
X138826405Y-30879496D01*
X138850822Y-30799007D01*
X138856281Y-30743582D01*
X138930000Y-30743582D01*
X138994103Y-30737268D01*
X139055743Y-30718570D01*
X139112550Y-30688206D01*
X139162343Y-30647343D01*
X139203206Y-30597550D01*
X139233570Y-30540743D01*
X139252268Y-30479103D01*
X139258582Y-30415000D01*
X139258582Y-28515000D01*
X139252268Y-28450897D01*
X139233570Y-28389257D01*
X139203206Y-28332450D01*
X139162343Y-28282657D01*
X139112550Y-28241794D01*
X139055743Y-28211430D01*
X138994103Y-28192732D01*
X138930000Y-28186418D01*
X137930000Y-28186418D01*
X137865897Y-28192732D01*
X137804257Y-28211430D01*
X137747450Y-28241794D01*
X137697657Y-28282657D01*
X137656794Y-28332450D01*
X137626430Y-28389257D01*
X137607732Y-28450897D01*
X137601418Y-28515000D01*
X137601418Y-30288300D01*
X136073464Y-30288300D01*
X136052499Y-30286235D01*
X136031534Y-30288300D01*
X136031522Y-30288300D01*
X135968793Y-30294478D01*
X135888304Y-30318895D01*
X135871556Y-30327847D01*
X135814123Y-30358545D01*
X135765398Y-30398532D01*
X135765389Y-30398541D01*
X135749105Y-30411905D01*
X135735741Y-30428189D01*
X134802500Y-31361432D01*
X134786205Y-31374805D01*
X134772833Y-31391099D01*
X134772832Y-31391100D01*
X134732845Y-31439824D01*
X134715612Y-31472065D01*
X134693195Y-31514005D01*
X134668778Y-31594494D01*
X134662600Y-31657223D01*
X134662600Y-31657233D01*
X134660535Y-31678200D01*
X134662600Y-31699167D01*
X134662601Y-32924630D01*
X134322055Y-33265176D01*
X134316640Y-33252104D01*
X134248023Y-33149411D01*
X134160689Y-33062077D01*
X134057996Y-32993460D01*
X133943889Y-32946195D01*
X133822754Y-32922100D01*
X133777000Y-32922100D01*
X133777000Y-30743582D01*
X133850000Y-30743582D01*
X133914103Y-30737268D01*
X133975743Y-30718570D01*
X134032550Y-30688206D01*
X134082343Y-30647343D01*
X134123206Y-30597550D01*
X134153570Y-30540743D01*
X134172268Y-30479103D01*
X134178582Y-30415000D01*
X134178582Y-28515000D01*
X134172268Y-28450897D01*
X134153570Y-28389257D01*
X134123206Y-28332450D01*
X134082343Y-28282657D01*
X134032550Y-28241794D01*
X133975743Y-28211430D01*
X133914103Y-28192732D01*
X133850000Y-28186418D01*
X132850000Y-28186418D01*
X132785897Y-28192732D01*
X132724257Y-28211430D01*
X132667450Y-28241794D01*
X132617657Y-28282657D01*
X132576794Y-28332450D01*
X132546430Y-28389257D01*
X132527732Y-28450897D01*
X132521418Y-28515000D01*
X132521418Y-30415000D01*
X132527732Y-30479103D01*
X132546430Y-30540743D01*
X132576794Y-30597550D01*
X132617657Y-30647343D01*
X132667450Y-30688206D01*
X132724257Y-30718570D01*
X132785897Y-30737268D01*
X132850000Y-30743582D01*
X132923000Y-30743582D01*
X132923001Y-33117123D01*
X132920935Y-33138100D01*
X132923001Y-33159077D01*
X132923001Y-33159078D01*
X132929179Y-33221807D01*
X132951051Y-33293906D01*
X132953596Y-33302296D01*
X132993245Y-33376476D01*
X133033232Y-33425200D01*
X133033237Y-33425205D01*
X133046606Y-33441495D01*
X133062895Y-33454863D01*
X133134000Y-33525968D01*
X133134000Y-33610854D01*
X133158095Y-33731989D01*
X133205360Y-33846096D01*
X133273977Y-33948789D01*
X133281888Y-33956700D01*
X133236489Y-33937895D01*
X133115354Y-33913800D01*
X132991846Y-33913800D01*
X132870711Y-33937895D01*
X132756604Y-33985160D01*
X132653911Y-34053777D01*
X132566577Y-34141111D01*
X132535300Y-34187921D01*
X132535300Y-31398266D01*
X132537365Y-31377299D01*
X132535300Y-31356332D01*
X132535300Y-31356322D01*
X132529122Y-31293593D01*
X132504705Y-31213104D01*
X132476899Y-31161083D01*
X132465055Y-31138923D01*
X132425068Y-31090199D01*
X132425064Y-31090195D01*
X132411695Y-31073905D01*
X132395407Y-31060538D01*
X128440768Y-27105900D01*
X128427395Y-27089605D01*
X128405943Y-27072000D01*
X145395335Y-27072000D01*
X145459886Y-27078329D01*
G37*
X145459886Y-27078329D02*
X145503053Y-27091362D01*
X145542872Y-27112534D01*
X145577821Y-27141038D01*
X145606569Y-27175788D01*
X145628017Y-27215455D01*
X145641352Y-27258535D01*
X145648000Y-27321783D01*
X145648000Y-31877000D01*
X142748000Y-31877000D01*
X142723224Y-31879440D01*
X142699399Y-31886667D01*
X142677443Y-31898403D01*
X142658197Y-31914197D01*
X142642403Y-31933443D01*
X142630667Y-31955399D01*
X142623440Y-31979224D01*
X142621000Y-32004000D01*
X142621000Y-38214866D01*
X140695032Y-36288900D01*
X140681659Y-36272605D01*
X140616640Y-36219245D01*
X140542460Y-36179595D01*
X140461971Y-36155178D01*
X140415293Y-36150581D01*
X140353689Y-36088977D01*
X140250996Y-36020360D01*
X140136889Y-35973095D01*
X140015754Y-35949000D01*
X139892246Y-35949000D01*
X139771111Y-35973095D01*
X139657004Y-36020360D01*
X139554311Y-36088977D01*
X139466977Y-36176311D01*
X139398360Y-36279004D01*
X139351095Y-36393111D01*
X139327000Y-36514246D01*
X139327000Y-36637754D01*
X139351095Y-36758889D01*
X139398360Y-36872996D01*
X139466977Y-36975689D01*
X139554311Y-37063023D01*
X139657004Y-37131640D01*
X139771111Y-37178905D01*
X139892246Y-37203000D01*
X140015754Y-37203000D01*
X140136889Y-37178905D01*
X140250996Y-37131640D01*
X140298377Y-37099981D01*
X141981000Y-38782606D01*
X141981000Y-39009023D01*
X141981001Y-41843081D01*
X141927103Y-41826732D01*
X141863000Y-41820418D01*
X141213000Y-41820418D01*
X141148897Y-41826732D01*
X141087257Y-41845430D01*
X141030450Y-41875794D01*
X140980657Y-41916657D01*
X140939794Y-41966450D01*
X140909430Y-42023257D01*
X140903000Y-42044454D01*
X140896570Y-42023257D01*
X140866206Y-41966450D01*
X140825343Y-41916657D01*
X140775550Y-41875794D01*
X140718743Y-41845430D01*
X140657103Y-41826732D01*
X140593000Y-41820418D01*
X140028269Y-41820418D01*
X139999355Y-41766324D01*
X139999108Y-41766023D01*
X139959368Y-41717599D01*
X139959364Y-41717595D01*
X139945995Y-41701305D01*
X139929706Y-41687937D01*
X139803367Y-41561599D01*
X139789995Y-41545305D01*
X139724976Y-41491945D01*
X139650796Y-41452295D01*
X139570307Y-41427878D01*
X139507578Y-41421700D01*
X139507567Y-41421700D01*
X139486600Y-41419635D01*
X139465633Y-41421700D01*
X137748978Y-41421700D01*
X137728000Y-41419634D01*
X137707023Y-41421700D01*
X137707022Y-41421700D01*
X137644293Y-41427878D01*
X137563804Y-41452295D01*
X137489624Y-41491945D01*
X137424605Y-41545305D01*
X137371245Y-41610324D01*
X137331595Y-41684504D01*
X137307178Y-41764993D01*
X137299934Y-41838551D01*
X137277257Y-41845430D01*
X137220450Y-41875794D01*
X137170657Y-41916657D01*
X137129794Y-41966450D01*
X137099430Y-42023257D01*
X137093000Y-42044454D01*
X137086570Y-42023257D01*
X137056206Y-41966450D01*
X137015343Y-41916657D01*
X136965550Y-41875794D01*
X136908743Y-41845430D01*
X136886066Y-41838551D01*
X136884433Y-41821960D01*
X136878822Y-41764993D01*
X136854405Y-41684504D01*
X136814755Y-41610324D01*
X136761395Y-41545305D01*
X136696376Y-41491945D01*
X136622196Y-41452295D01*
X136541707Y-41427878D01*
X136458000Y-41419634D01*
X136437023Y-41421700D01*
X136431669Y-41421700D01*
X135323656Y-40313688D01*
X135418189Y-40250523D01*
X135505523Y-40163189D01*
X135574140Y-40060496D01*
X135621405Y-39946389D01*
X135645500Y-39825254D01*
X135645500Y-39701746D01*
X135621405Y-39580611D01*
X135574140Y-39466504D01*
X135505523Y-39363811D01*
X135445500Y-39303788D01*
X135445500Y-39155668D01*
X140158869Y-34442300D01*
X140949023Y-34442300D01*
X140970000Y-34444366D01*
X141026912Y-34438761D01*
X141053707Y-34436122D01*
X141134196Y-34411705D01*
X141208376Y-34372055D01*
X141273395Y-34318695D01*
X141326755Y-34253676D01*
X141366405Y-34179496D01*
X141390822Y-34099007D01*
X141396281Y-34043582D01*
X141470000Y-34043582D01*
X141534103Y-34037268D01*
X141595743Y-34018570D01*
X141652550Y-33988206D01*
X141702343Y-33947343D01*
X141743206Y-33897550D01*
X141773570Y-33840743D01*
X141792268Y-33779103D01*
X141798582Y-33715000D01*
X141798582Y-31815000D01*
X141792268Y-31750897D01*
X141773570Y-31689257D01*
X141743206Y-31632450D01*
X141702343Y-31582657D01*
X141652550Y-31541794D01*
X141595743Y-31511430D01*
X141534103Y-31492732D01*
X141470000Y-31486418D01*
X140470000Y-31486418D01*
X140405897Y-31492732D01*
X140344257Y-31511430D01*
X140287450Y-31541794D01*
X140237657Y-31582657D01*
X140196794Y-31632450D01*
X140166430Y-31689257D01*
X140147732Y-31750897D01*
X140141418Y-31815000D01*
X140141418Y-33588300D01*
X140002966Y-33588300D01*
X139981999Y-33586235D01*
X139961032Y-33588300D01*
X139961022Y-33588300D01*
X139898293Y-33594478D01*
X139817804Y-33618895D01*
X139783273Y-33637352D01*
X139743623Y-33658545D01*
X139694899Y-33698532D01*
X139694895Y-33698536D01*
X139678605Y-33711905D01*
X139665236Y-33728195D01*
X134731400Y-38662032D01*
X134715105Y-38675405D01*
X134701733Y-38691699D01*
X134701732Y-38691700D01*
X134661745Y-38740424D01*
X134651867Y-38758905D01*
X134622095Y-38814605D01*
X134597678Y-38895094D01*
X134591500Y-38957823D01*
X134591500Y-38957833D01*
X134589435Y-38978800D01*
X134591500Y-38999768D01*
X134591500Y-39303788D01*
X134531477Y-39363811D01*
X134468312Y-39458344D01*
X132535300Y-37525332D01*
X132535300Y-34893679D01*
X132566577Y-34940489D01*
X132653911Y-35027823D01*
X132756604Y-35096440D01*
X132870711Y-35143705D01*
X132991846Y-35167800D01*
X133115354Y-35167800D01*
X133236489Y-35143705D01*
X133350596Y-35096440D01*
X133453289Y-35027823D01*
X133513312Y-34967800D01*
X133629333Y-34967800D01*
X133650300Y-34969865D01*
X133671267Y-34967800D01*
X133671278Y-34967800D01*
X133734007Y-34961622D01*
X133814496Y-34937205D01*
X133888676Y-34897555D01*
X133953695Y-34844195D01*
X133967068Y-34827900D01*
X135063081Y-33731887D01*
X135067732Y-33779103D01*
X135086430Y-33840743D01*
X135116794Y-33897550D01*
X135157657Y-33947343D01*
X135207450Y-33988206D01*
X135264257Y-34018570D01*
X135293135Y-34027330D01*
X135287095Y-34041911D01*
X135263000Y-34163046D01*
X135263000Y-34286554D01*
X135287095Y-34407689D01*
X135334360Y-34521796D01*
X135402977Y-34624489D01*
X135490311Y-34711823D01*
X135593004Y-34780440D01*
X135707111Y-34827705D01*
X135828246Y-34851800D01*
X135951754Y-34851800D01*
X136072889Y-34827705D01*
X136186996Y-34780440D01*
X136289689Y-34711823D01*
X136377023Y-34624489D01*
X136445640Y-34521796D01*
X136492905Y-34407689D01*
X136517000Y-34286554D01*
X136517000Y-34163046D01*
X136492905Y-34041911D01*
X136486865Y-34027330D01*
X136515743Y-34018570D01*
X136572550Y-33988206D01*
X136622343Y-33947343D01*
X136663206Y-33897550D01*
X136693570Y-33840743D01*
X136712268Y-33779103D01*
X136718582Y-33715000D01*
X136718582Y-31815000D01*
X136712268Y-31750897D01*
X136693570Y-31689257D01*
X136663206Y-31632450D01*
X136622343Y-31582657D01*
X136572550Y-31541794D01*
X136515743Y-31511430D01*
X136454103Y-31492732D01*
X136390000Y-31486418D01*
X135885251Y-31486418D01*
X136229370Y-31142300D01*
X138409023Y-31142300D01*
X138430000Y-31144366D01*
X138453923Y-31142010D01*
X138513707Y-31136122D01*
X138594196Y-31111705D01*
X138668376Y-31072055D01*
X138733395Y-31018695D01*
X138786755Y-30953676D01*
X138809060Y-30911946D01*
X141374300Y-30911946D01*
X141374300Y-31035454D01*
X141398395Y-31156589D01*
X141445660Y-31270696D01*
X141514277Y-31373389D01*
X141601611Y-31460723D01*
X141704304Y-31529340D01*
X141818411Y-31576605D01*
X141939546Y-31600700D01*
X142063054Y-31600700D01*
X142184189Y-31576605D01*
X142298296Y-31529340D01*
X142400989Y-31460723D01*
X142488323Y-31373389D01*
X142556940Y-31270696D01*
X142604205Y-31156589D01*
X142607047Y-31142300D01*
X143489023Y-31142300D01*
X143510000Y-31144366D01*
X143533923Y-31142010D01*
X143593707Y-31136122D01*
X143674196Y-31111705D01*
X143748376Y-31072055D01*
X143813395Y-31018695D01*
X143866755Y-30953676D01*
X143906405Y-30879496D01*
X143930822Y-30799007D01*
X143936281Y-30743582D01*
X144010000Y-30743582D01*
X144074103Y-30737268D01*
X144135743Y-30718570D01*
X144192550Y-30688206D01*
X144242343Y-30647343D01*
X144283206Y-30597550D01*
X144313570Y-30540743D01*
X144332268Y-30479103D01*
X144338582Y-30415000D01*
X144338582Y-28515000D01*
X144332268Y-28450897D01*
X144313570Y-28389257D01*
X144283206Y-28332450D01*
X144242343Y-28282657D01*
X144192550Y-28241794D01*
X144135743Y-28211430D01*
X144074103Y-28192732D01*
X144010000Y-28186418D01*
X143010000Y-28186418D01*
X142945897Y-28192732D01*
X142884257Y-28211430D01*
X142827450Y-28241794D01*
X142777657Y-28282657D01*
X142736794Y-28332450D01*
X142706430Y-28389257D01*
X142687732Y-28450897D01*
X142681418Y-28515000D01*
X142681418Y-30288300D01*
X142280667Y-30288300D01*
X142259700Y-30286235D01*
X142238733Y-30288300D01*
X142238722Y-30288300D01*
X142175993Y-30294478D01*
X142095504Y-30318895D01*
X142078756Y-30327847D01*
X142043483Y-30346700D01*
X141939546Y-30346700D01*
X141818411Y-30370795D01*
X141704304Y-30418060D01*
X141601611Y-30486677D01*
X141514277Y-30574011D01*
X141445660Y-30676704D01*
X141398395Y-30790811D01*
X141374300Y-30911946D01*
X138809060Y-30911946D01*
X138826405Y-30879496D01*
X138850822Y-30799007D01*
X138856281Y-30743582D01*
X138930000Y-30743582D01*
X138994103Y-30737268D01*
X139055743Y-30718570D01*
X139112550Y-30688206D01*
X139162343Y-30647343D01*
X139203206Y-30597550D01*
X139233570Y-30540743D01*
X139252268Y-30479103D01*
X139258582Y-30415000D01*
X139258582Y-28515000D01*
X139252268Y-28450897D01*
X139233570Y-28389257D01*
X139203206Y-28332450D01*
X139162343Y-28282657D01*
X139112550Y-28241794D01*
X139055743Y-28211430D01*
X138994103Y-28192732D01*
X138930000Y-28186418D01*
X137930000Y-28186418D01*
X137865897Y-28192732D01*
X137804257Y-28211430D01*
X137747450Y-28241794D01*
X137697657Y-28282657D01*
X137656794Y-28332450D01*
X137626430Y-28389257D01*
X137607732Y-28450897D01*
X137601418Y-28515000D01*
X137601418Y-30288300D01*
X136073464Y-30288300D01*
X136052499Y-30286235D01*
X136031534Y-30288300D01*
X136031522Y-30288300D01*
X135968793Y-30294478D01*
X135888304Y-30318895D01*
X135871556Y-30327847D01*
X135814123Y-30358545D01*
X135765398Y-30398532D01*
X135765389Y-30398541D01*
X135749105Y-30411905D01*
X135735741Y-30428189D01*
X134802500Y-31361432D01*
X134786205Y-31374805D01*
X134772833Y-31391099D01*
X134772832Y-31391100D01*
X134732845Y-31439824D01*
X134715612Y-31472065D01*
X134693195Y-31514005D01*
X134668778Y-31594494D01*
X134662600Y-31657223D01*
X134662600Y-31657233D01*
X134660535Y-31678200D01*
X134662600Y-31699167D01*
X134662601Y-32924630D01*
X134322055Y-33265176D01*
X134316640Y-33252104D01*
X134248023Y-33149411D01*
X134160689Y-33062077D01*
X134057996Y-32993460D01*
X133943889Y-32946195D01*
X133822754Y-32922100D01*
X133777000Y-32922100D01*
X133777000Y-30743582D01*
X133850000Y-30743582D01*
X133914103Y-30737268D01*
X133975743Y-30718570D01*
X134032550Y-30688206D01*
X134082343Y-30647343D01*
X134123206Y-30597550D01*
X134153570Y-30540743D01*
X134172268Y-30479103D01*
X134178582Y-30415000D01*
X134178582Y-28515000D01*
X134172268Y-28450897D01*
X134153570Y-28389257D01*
X134123206Y-28332450D01*
X134082343Y-28282657D01*
X134032550Y-28241794D01*
X133975743Y-28211430D01*
X133914103Y-28192732D01*
X133850000Y-28186418D01*
X132850000Y-28186418D01*
X132785897Y-28192732D01*
X132724257Y-28211430D01*
X132667450Y-28241794D01*
X132617657Y-28282657D01*
X132576794Y-28332450D01*
X132546430Y-28389257D01*
X132527732Y-28450897D01*
X132521418Y-28515000D01*
X132521418Y-30415000D01*
X132527732Y-30479103D01*
X132546430Y-30540743D01*
X132576794Y-30597550D01*
X132617657Y-30647343D01*
X132667450Y-30688206D01*
X132724257Y-30718570D01*
X132785897Y-30737268D01*
X132850000Y-30743582D01*
X132923000Y-30743582D01*
X132923001Y-33117123D01*
X132920935Y-33138100D01*
X132923001Y-33159077D01*
X132923001Y-33159078D01*
X132929179Y-33221807D01*
X132951051Y-33293906D01*
X132953596Y-33302296D01*
X132993245Y-33376476D01*
X133033232Y-33425200D01*
X133033237Y-33425205D01*
X133046606Y-33441495D01*
X133062895Y-33454863D01*
X133134000Y-33525968D01*
X133134000Y-33610854D01*
X133158095Y-33731989D01*
X133205360Y-33846096D01*
X133273977Y-33948789D01*
X133281888Y-33956700D01*
X133236489Y-33937895D01*
X133115354Y-33913800D01*
X132991846Y-33913800D01*
X132870711Y-33937895D01*
X132756604Y-33985160D01*
X132653911Y-34053777D01*
X132566577Y-34141111D01*
X132535300Y-34187921D01*
X132535300Y-31398266D01*
X132537365Y-31377299D01*
X132535300Y-31356332D01*
X132535300Y-31356322D01*
X132529122Y-31293593D01*
X132504705Y-31213104D01*
X132476899Y-31161083D01*
X132465055Y-31138923D01*
X132425068Y-31090199D01*
X132425064Y-31090195D01*
X132411695Y-31073905D01*
X132395407Y-31060538D01*
X128440768Y-27105900D01*
X128427395Y-27089605D01*
X128405943Y-27072000D01*
X145395335Y-27072000D01*
X145459886Y-27078329D01*
G36*
X116975000Y-29179250D02*
G01*
X117133750Y-29338000D01*
X117983000Y-29338000D01*
X117983000Y-29318000D01*
X118237000Y-29318000D01*
X118237000Y-29338000D01*
X119086250Y-29338000D01*
X119245000Y-29179250D01*
X119247486Y-28641700D01*
X122361418Y-28641700D01*
X122361418Y-30415000D01*
X122367732Y-30479103D01*
X122386430Y-30540743D01*
X122416794Y-30597550D01*
X122457657Y-30647343D01*
X122507450Y-30688206D01*
X122564257Y-30718570D01*
X122625897Y-30737268D01*
X122690000Y-30743582D01*
X123690000Y-30743582D01*
X123754103Y-30737268D01*
X123815743Y-30718570D01*
X123872550Y-30688206D01*
X123922343Y-30647343D01*
X123963206Y-30597550D01*
X123993570Y-30540743D01*
X124012268Y-30479103D01*
X124018582Y-30415000D01*
X124018582Y-28641700D01*
X124135332Y-28641700D01*
X128880700Y-33387069D01*
X128880701Y-37264446D01*
X125681813Y-34043582D01*
X126230000Y-34043582D01*
X126294103Y-34037268D01*
X126355743Y-34018570D01*
X126412550Y-33988206D01*
X126462343Y-33947343D01*
X126503206Y-33897550D01*
X126533570Y-33840743D01*
X126552268Y-33779103D01*
X126558582Y-33715000D01*
X126558582Y-31815000D01*
X126552268Y-31750897D01*
X126533570Y-31689257D01*
X126503206Y-31632450D01*
X126462343Y-31582657D01*
X126412550Y-31541794D01*
X126355743Y-31511430D01*
X126294103Y-31492732D01*
X126230000Y-31486418D01*
X125230000Y-31486418D01*
X125165897Y-31492732D01*
X125104257Y-31511430D01*
X125088644Y-31519775D01*
X125087000Y-31518132D01*
X125087000Y-31434246D01*
X125062905Y-31313111D01*
X125015640Y-31199004D01*
X124947023Y-31096311D01*
X124859689Y-31008977D01*
X124756996Y-30940360D01*
X124642889Y-30893095D01*
X124521754Y-30869000D01*
X124398246Y-30869000D01*
X124277111Y-30893095D01*
X124163004Y-30940360D01*
X124060311Y-31008977D01*
X123972977Y-31096311D01*
X123904360Y-31199004D01*
X123857095Y-31313111D01*
X123833000Y-31434246D01*
X123833000Y-31557754D01*
X123857095Y-31678889D01*
X123904360Y-31792996D01*
X123972977Y-31895689D01*
X124060311Y-31983023D01*
X124163004Y-32051640D01*
X124277111Y-32098905D01*
X124398246Y-32123000D01*
X124484132Y-32123000D01*
X124901418Y-32540287D01*
X124901418Y-33257826D01*
X122121111Y-30458419D01*
X122117438Y-30453222D01*
X122091530Y-30428635D01*
X122090054Y-30427149D01*
X122076233Y-30410450D01*
X122044507Y-30384633D01*
X122012477Y-30358346D01*
X122011683Y-30357922D01*
X122010993Y-30357360D01*
X121974673Y-30338140D01*
X121938297Y-30318697D01*
X121937442Y-30318438D01*
X121936649Y-30318018D01*
X121897115Y-30306204D01*
X121857807Y-30294280D01*
X121856918Y-30294192D01*
X121856060Y-30293936D01*
X121814953Y-30290059D01*
X121774101Y-30286036D01*
X121757667Y-30287655D01*
X121755872Y-30287346D01*
X121718309Y-30288329D01*
X119247534Y-30298585D01*
X119245000Y-29750750D01*
X119086250Y-29592000D01*
X118237000Y-29592000D01*
X118237000Y-29612000D01*
X117983000Y-29612000D01*
X117983000Y-29592000D01*
X117133750Y-29592000D01*
X116975000Y-29750750D01*
X116974386Y-29883517D01*
X116048767Y-28957899D01*
X116035394Y-28941604D01*
X115970375Y-28888244D01*
X115896195Y-28848594D01*
X115815706Y-28824177D01*
X115752977Y-28817999D01*
X115752966Y-28817999D01*
X115731999Y-28815934D01*
X115711032Y-28817999D01*
X113970965Y-28817999D01*
X113950000Y-28815934D01*
X113929035Y-28817999D01*
X113929023Y-28817999D01*
X113866294Y-28824177D01*
X113858582Y-28826516D01*
X113858582Y-28641700D01*
X116972514Y-28641700D01*
X116975000Y-29179250D01*
G37*
X116975000Y-29179250D02*
X117133750Y-29338000D01*
X117983000Y-29338000D01*
X117983000Y-29318000D01*
X118237000Y-29318000D01*
X118237000Y-29338000D01*
X119086250Y-29338000D01*
X119245000Y-29179250D01*
X119247486Y-28641700D01*
X122361418Y-28641700D01*
X122361418Y-30415000D01*
X122367732Y-30479103D01*
X122386430Y-30540743D01*
X122416794Y-30597550D01*
X122457657Y-30647343D01*
X122507450Y-30688206D01*
X122564257Y-30718570D01*
X122625897Y-30737268D01*
X122690000Y-30743582D01*
X123690000Y-30743582D01*
X123754103Y-30737268D01*
X123815743Y-30718570D01*
X123872550Y-30688206D01*
X123922343Y-30647343D01*
X123963206Y-30597550D01*
X123993570Y-30540743D01*
X124012268Y-30479103D01*
X124018582Y-30415000D01*
X124018582Y-28641700D01*
X124135332Y-28641700D01*
X128880700Y-33387069D01*
X128880701Y-37264446D01*
X125681813Y-34043582D01*
X126230000Y-34043582D01*
X126294103Y-34037268D01*
X126355743Y-34018570D01*
X126412550Y-33988206D01*
X126462343Y-33947343D01*
X126503206Y-33897550D01*
X126533570Y-33840743D01*
X126552268Y-33779103D01*
X126558582Y-33715000D01*
X126558582Y-31815000D01*
X126552268Y-31750897D01*
X126533570Y-31689257D01*
X126503206Y-31632450D01*
X126462343Y-31582657D01*
X126412550Y-31541794D01*
X126355743Y-31511430D01*
X126294103Y-31492732D01*
X126230000Y-31486418D01*
X125230000Y-31486418D01*
X125165897Y-31492732D01*
X125104257Y-31511430D01*
X125088644Y-31519775D01*
X125087000Y-31518132D01*
X125087000Y-31434246D01*
X125062905Y-31313111D01*
X125015640Y-31199004D01*
X124947023Y-31096311D01*
X124859689Y-31008977D01*
X124756996Y-30940360D01*
X124642889Y-30893095D01*
X124521754Y-30869000D01*
X124398246Y-30869000D01*
X124277111Y-30893095D01*
X124163004Y-30940360D01*
X124060311Y-31008977D01*
X123972977Y-31096311D01*
X123904360Y-31199004D01*
X123857095Y-31313111D01*
X123833000Y-31434246D01*
X123833000Y-31557754D01*
X123857095Y-31678889D01*
X123904360Y-31792996D01*
X123972977Y-31895689D01*
X124060311Y-31983023D01*
X124163004Y-32051640D01*
X124277111Y-32098905D01*
X124398246Y-32123000D01*
X124484132Y-32123000D01*
X124901418Y-32540287D01*
X124901418Y-33257826D01*
X122121111Y-30458419D01*
X122117438Y-30453222D01*
X122091530Y-30428635D01*
X122090054Y-30427149D01*
X122076233Y-30410450D01*
X122044507Y-30384633D01*
X122012477Y-30358346D01*
X122011683Y-30357922D01*
X122010993Y-30357360D01*
X121974673Y-30338140D01*
X121938297Y-30318697D01*
X121937442Y-30318438D01*
X121936649Y-30318018D01*
X121897115Y-30306204D01*
X121857807Y-30294280D01*
X121856918Y-30294192D01*
X121856060Y-30293936D01*
X121814953Y-30290059D01*
X121774101Y-30286036D01*
X121757667Y-30287655D01*
X121755872Y-30287346D01*
X121718309Y-30288329D01*
X119247534Y-30298585D01*
X119245000Y-29750750D01*
X119086250Y-29592000D01*
X118237000Y-29592000D01*
X118237000Y-29612000D01*
X117983000Y-29612000D01*
X117983000Y-29592000D01*
X117133750Y-29592000D01*
X116975000Y-29750750D01*
X116974386Y-29883517D01*
X116048767Y-28957899D01*
X116035394Y-28941604D01*
X115970375Y-28888244D01*
X115896195Y-28848594D01*
X115815706Y-28824177D01*
X115752977Y-28817999D01*
X115752966Y-28817999D01*
X115731999Y-28815934D01*
X115711032Y-28817999D01*
X113970965Y-28817999D01*
X113950000Y-28815934D01*
X113929035Y-28817999D01*
X113929023Y-28817999D01*
X113866294Y-28824177D01*
X113858582Y-28826516D01*
X113858582Y-28641700D01*
X116972514Y-28641700D01*
X116975000Y-29179250D01*
G36*
X97302132Y-32339000D02*
G01*
X96078582Y-32339000D01*
X96078582Y-31815000D01*
X96072268Y-31750897D01*
X96053570Y-31689257D01*
X96023206Y-31632450D01*
X95982343Y-31582657D01*
X95932550Y-31541794D01*
X95875743Y-31511430D01*
X95814103Y-31492732D01*
X95750000Y-31486418D01*
X94823300Y-31486418D01*
X94823300Y-31097668D01*
X96961418Y-28959551D01*
X96961418Y-30415000D01*
X96967732Y-30479103D01*
X96986430Y-30540743D01*
X97016794Y-30597550D01*
X97057657Y-30647343D01*
X97107450Y-30688206D01*
X97164257Y-30718570D01*
X97225897Y-30737268D01*
X97290000Y-30743582D01*
X98290000Y-30743582D01*
X98354103Y-30737268D01*
X98415743Y-30718570D01*
X98472550Y-30688206D01*
X98522343Y-30647343D01*
X98563206Y-30597550D01*
X98593570Y-30540743D01*
X98612268Y-30479103D01*
X98618582Y-30415000D01*
X98618582Y-28515000D01*
X98612268Y-28450897D01*
X98593570Y-28389257D01*
X98563206Y-28332450D01*
X98522343Y-28282657D01*
X98472550Y-28241794D01*
X98451046Y-28230300D01*
X101410830Y-28230300D01*
X97302132Y-32339000D01*
G37*
X97302132Y-32339000D02*
X96078582Y-32339000D01*
X96078582Y-31815000D01*
X96072268Y-31750897D01*
X96053570Y-31689257D01*
X96023206Y-31632450D01*
X95982343Y-31582657D01*
X95932550Y-31541794D01*
X95875743Y-31511430D01*
X95814103Y-31492732D01*
X95750000Y-31486418D01*
X94823300Y-31486418D01*
X94823300Y-31097668D01*
X96961418Y-28959551D01*
X96961418Y-30415000D01*
X96967732Y-30479103D01*
X96986430Y-30540743D01*
X97016794Y-30597550D01*
X97057657Y-30647343D01*
X97107450Y-30688206D01*
X97164257Y-30718570D01*
X97225897Y-30737268D01*
X97290000Y-30743582D01*
X98290000Y-30743582D01*
X98354103Y-30737268D01*
X98415743Y-30718570D01*
X98472550Y-30688206D01*
X98522343Y-30647343D01*
X98563206Y-30597550D01*
X98593570Y-30540743D01*
X98612268Y-30479103D01*
X98618582Y-30415000D01*
X98618582Y-28515000D01*
X98612268Y-28450897D01*
X98593570Y-28389257D01*
X98563206Y-28332450D01*
X98522343Y-28282657D01*
X98472550Y-28241794D01*
X98451046Y-28230300D01*
X101410830Y-28230300D01*
X97302132Y-32339000D01*
M02*
